<svg class="logo" width="128px" height="54px" viewBox="0 0 611 255" version="1.1" xmlns="http://www.w3.org/2000/svg" xmlns:xlink="http://www.w3.org/1999/xlink"><title>Mouse Dining</title><g class="mouse"><path d="M610.7,118.6 C610.7,117.8 610.3,117.1 609.5,116.7 C608.7,116.3 608,116 607.1,116 C605.3,116.1 603.8,116.8 602.7,118.3 C601.6,119.8 600.7,121.2 599.9,122.6 C597.6,126.8 594.8,131 591.7,135.2 C588.5,139.4 585.1,143.2 581.2,146.5 C577.4,149.8 573.2,152.6 568.7,154.8 C564.2,157 559.3,158.2 554,158.3 C548.3,158.5 544.1,157 541.6,153.9 C539,150.8 537.7,146.4 537.5,140.8 C537.4,137.7 537.7,134.2 538.4,130.4 C542.1,129 546.2,126.4 550.5,122.6 C554.8,118.9 558.8,114.6 562.5,109.8 C566.2,105 569.3,100.1 571.6,95 C574,89.9 575.1,85.3 575,81.2 C574.9,76.9 573.6,73.4 571.1,70.7 C568.6,68 565.2,66.7 560.8,66.8 C554.2,67 548.3,69.7 543,75 C537.7,80.2 533.1,86.6 529.4,94 C525.7,101.4 522.9,109.1 521,117 C520,121.2 519.3,125 518.9,128.6 C518.6,129 518.3,129.5 518,129.9 C507.6,142.7 508.1,141.6 502.7,146.1 C498.9,149.2 490.2,153.3 487.4,153.3 C489.3,150.5 490.6,147.4 491.4,144.1 C492.2,140.8 492.6,137.5 492.5,134.2 C492.3,129 491.4,123.8 489.6,118.8 C487.8,113.8 485.6,108.9 483,104.1 C480.4,99.3 477.7,94.6 474.9,90 C472.1,85.3 469.7,80.6 467.6,76 C469,72.2 470.1,68.2 471.2,64 C472.2,59.8 472.7,55.6 472.5,51.5 C472.5,50.2 472.3,48.8 472,47.3 C471.7,45.8 471.3,44.4 470.6,43 C470,41.6 469.1,40.5 468,39.6 C466.9,38.7 465.6,38.3 464.1,38.4 C461.1,38.5 458.6,39.6 456.3,41.8 C454.1,44 452.3,46.6 450.9,49.6 C449.5,52.6 448.5,55.7 447.7,59 C447,62.3 446.7,65.2 446.7,67.6 C446.8,72 448.8,78.8 450.4,83 C428.5,125 415.1,141.8 409.2,148 L407.8,149.4 C404.1,152.9 401.1,154.6 398.6,154.7 C397,154.8 395.6,154.1 394.6,152.7 C393.6,151.3 392.8,149.7 392.2,147.9 C391.7,146 391.3,144.1 391,142.2 C390.8,140.2 390.6,138.7 390.6,137.5 C390.5,133.7 390.6,129.5 390.9,124.7 C391.2,119.9 391.8,115.2 392.6,110.4 C393.4,105.6 394.3,100.9 395.4,96.3 C396.5,91.7 397.6,87.5 398.8,83.9 C399.2,82.4 399.7,80.9 400.3,79.3 C400.8,77.7 401.1,76.1 401,74.5 C400.9,72.7 400.4,71.6 399.3,71.1 C398.2,70.6 396.9,70.4 395.5,70.5 C393.4,70.6 391.6,71.2 390.3,72.3 C388.9,73.4 387.8,74.8 386.9,76.3 C386,77.9 385.2,79.6 384.6,81.5 C384,83.4 383.4,85.1 382.8,86.6 C381.9,89.1 380.4,92.4 378.2,96.6 C376,100.8 373.5,105.3 370.7,110.2 C367.9,115.1 364.9,120.1 361.6,125.1 C358.3,130.1 355,134.7 351.6,138.8 C348.2,142.9 344.9,146.3 341.6,148.9 C338.3,151.5 335.3,152.9 332.5,153 C330.2,153.1 328.8,151.9 328.3,149.4 C327.8,147 327.5,144.9 327.5,143.3 C327.4,139 327.6,134.4 328.2,129.3 C328.8,124.2 329.5,119.1 330.4,113.9 C331.3,108.7 332.4,103.6 333.6,98.7 C334.8,93.7 336.1,89.2 337.2,85.1 C337.5,83.8 337.8,82.4 338.2,81 C338.6,79.6 338.7,78.2 338.7,76.9 C338.6,73.3 336.6,71.6 332.9,71.7 C329.1,71.8 325.8,73 322.8,75.2 C320.7,76.8 319,78.8 317.8,81.2 L317.8,81.3 L317.5,81.9 C315.9,85.5 314.2,89 312.3,92.5 C311.8,93.2 311.4,93.9 311,94.5 C309.6,96.8 307.4,100.3 304.3,104.9 C302.8,107.1 301.3,109.3 299.7,111.5 C299.9,108.4 300,105.3 299.9,102.3 C299.8,98.5 299.3,94.7 298.4,90.8 C297.5,86.9 296.2,83.3 294.4,80.1 C292.6,76.9 290.2,74.2 287.1,72.2 C284.1,70.2 280.3,69.2 275.7,69.3 C268.3,69.5 261.9,72 256.4,76.7 C250.9,81.4 246.3,87.1 242.5,93.7 C239,100 236.3,106.7 234.5,113.8 C234.2,114.1 234,114.5 233.8,114.8 C232.2,117.1 230.5,120.1 228.5,123.6 C226.6,127.1 224.4,130.5 222.2,133.8 C219.9,137.1 217.4,139.9 214.6,142.3 C211.8,144.7 208.7,145.9 205.2,146 C202.7,146.1 200.7,144.9 199.2,142.5 C197.6,140.1 196.4,137.2 195.5,133.9 C194.6,130.6 193.9,127.2 193.6,123.9 C193.3,120.5 193,118 193,116.2 C192.7,104.9 192.8,93.7 193.6,82.7 C194.3,71.7 195.4,60.7 196.9,49.6 C197.4,45.8 197.9,42.1 198.3,38.5 C198.7,34.9 198.8,31.2 198.7,27.4 C198.6,25.3 198.3,23 197.8,20.7 C197.2,18.3 195.6,17.2 192.8,17.3 C190.8,17.4 188.9,17.8 186.9,18.7 C185.4,19.4 184.3,20.5 183.4,21.9 C182.5,23.3 181.9,24.9 181.3,26.6 C180.8,28.3 180.4,30.1 180.1,31.9 C179.8,33.7 179.5,35.4 179.3,36.8 C178.5,41.3 177,45.6 175,49.8 C173,54 171.2,58.3 169.5,62.6 C165.7,71.7 161.8,80.7 157.8,89.5 C153.8,98.3 149.6,107.2 145.3,116.2 C142.4,122.2 139.4,128.1 136.5,134.1 C133.8,139.5 130.9,144.9 127.8,150.3 C127.7,150.4 127.7,150.5 127.6,150.6 C127.4,151 127.2,151.4 127,151.7 C126.9,151.8 126.8,152 126.7,152.2 C124.8,155.3 122,159.9 119.7,161.5 C119.6,161.6 119.4,161.7 119.3,161.8 C119.1,161.9 119,162 118.8,162.1 C116.2,163.5 114.2,163.7 112,161.7 C110.7,160.5 109.3,157.6 108.7,155.9 C104,142.4 103.1,127.9 102.5,113.7 C101.5,92.4 100.9,71.1 100.6,49.7 C100.5,39 100.4,28.4 100.5,17.7 C100.5,12.2 100.5,-2.4 90.4,1.6 L90.4,1.5 C88.9,2.1 87.5,2.8 86.1,3.6 C84.2,4.7 82.5,6 81,7.4 C79.6,8.8 78.9,10.3 78.9,11.8 C78.9,12.5 79,12.9 79.2,13.3 C79.8,40.4 75.6,76 67.9,106.6 C62,130.2 53.2,162.7 30.7,176.2 C27.4,178.2 23.8,179.7 20,180.6 C16,181.6 12.1,181 8,180.7 C6.8,180.6 5.6,180.5 4.5,180.9 C2,181.7 0.6,184.7 1.1,187.3 C1.5,189.1 2.6,190.7 4.1,191.9 C4.7,192.4 5.4,192.8 6.1,193.1 C8.5,194.3 11.2,194.6 13.8,194.7 C16.3,194.8 18.8,194.7 21.2,194.2 C26.2,193.5 30.8,191.9 35,189.4 C35.3,189.2 35.7,189 36,188.8 C41.1,185.6 45.6,181.6 49.7,176.7 C54.1,171.5 57.9,165.5 61.3,158.6 C64.7,151.8 67.7,144.8 70.4,137.7 C73,130.6 75.4,123.4 77.5,116.3 C79.6,109.2 81.4,102.6 83.1,96.7 C83.3,96.4 83.4,95.9 83.5,95.2 C83.6,94.5 83.9,94.2 84.2,94.2 C84.5,94.2 84.7,94.5 84.7,95.2 L84.7,96.4 C84.9,102.3 85.1,108.8 85.4,115.9 C85.7,123 86.2,130.3 87,137.6 C87.8,145 88.9,152.1 90.4,158.9 C91.8,165.7 93.7,171.8 96,177.2 C97.2,180 99,182.4 101.3,184.5 C103.6,186.6 106.4,187.7 109.6,187.6 C113.9,187.5 118.3,185 122.9,180.3 C127.5,175.6 132,169.6 136.5,162.5 C141,155.4 145.3,147.7 149.4,139.5 C153.6,131.3 157.3,123.6 160.6,116.5 C163.9,109.4 166.7,103.5 169,98.7 C171.3,93.9 172.8,91.3 173.4,90.9 C173.6,91.1 173.7,91.3 173.7,91.6 C173.8,94.6 173.9,98.3 174.2,102.8 C174.4,107.3 174.9,112.1 175.5,117.3 C176.2,122.4 177.1,127.6 178.3,132.8 C179.5,138 181.1,142.7 183.2,146.8 C185.2,150.9 187.7,154.3 190.6,156.8 C193.5,159.3 197.1,160.5 201.4,160.4 C205.3,160.3 209.3,158.7 213.4,155.7 C217.5,152.7 221.4,149.1 225.1,145 C227.5,142.4 229.6,139.7 231.6,136.9 C231.8,140.2 232.3,143.6 233.1,147.1 C234,151 235.5,154.5 237.4,157.5 C239.3,160.6 241.8,163.1 244.9,165 C248,167 251.8,167.9 256.2,167.7 C259.6,167.6 263,166.9 266.2,165.5 C269.4,164.2 272.4,162.6 275.2,160.7 C279.9,157.4 283.8,153.6 286.9,149 C290,144.5 292.6,139.6 294.6,134.5 C295.1,133.2 295.6,132 296,130.7 C296.4,129.5 296.8,127.5 297.2,125.5 C302,122.6 306.3,118.9 309.4,114.6 C310.9,112.5 311.6,111.5 311.6,111.5 C311.1,117.6 311,123.5 311.1,129.4 C311.2,132.5 311.4,136.1 311.8,140.1 C312.2,144.1 312.9,147.9 314.1,151.3 C315.3,154.8 317.1,157.7 319.5,160.1 C321.9,162.5 325.4,163.6 329.8,163.5 C334.4,163.4 339,161.8 343.6,158.8 C348.2,155.8 352.5,152.2 356.7,147.9 C360.8,143.7 364.6,139.2 368,134.5 C371.4,129.8 374.3,125.7 376.6,122.2 C376.3,123.8 376.2,125.4 376.3,126.9 C376.3,128.4 376.4,129.9 376.4,131.6 C376.5,134.2 376.7,137.5 377.1,141.5 C377.5,145.5 378.3,149.3 379.5,152.9 C380.8,156.5 382.5,159.5 384.7,162.1 C386.9,164.7 389.9,165.9 393.7,165.8 C398.5,165.7 404.7,164 409.8,160.3 C414.8,156.6 422.1,149 426.9,143.8 L427.1,143.6 C427.2,143.5 427.2,143.4 427.3,143.4 L427.4,143.3 C435.6,134.3 445.5,120.2 458.3,94.7 C459.4,96.5 460.5,98.4 461.7,100.5 C463.9,104.5 465.8,108.5 467.6,112.7 C469.4,116.9 470.8,121.1 472,125.4 C473.2,129.6 473.9,133.6 474,137.4 C474.2,143.6 472.7,148.8 469.4,152.9 C466.2,157 461.3,159.2 454.7,159.4 C451.4,159.5 448.3,159.3 445.5,158.8 C442.6,158.3 439.8,157.1 437.1,155.2 C437.4,155.5 437,155.3 435.9,154.6 C434.7,153.9 433.7,153.6 432.7,153.6 C430.1,153.7 428.8,154.9 428.9,157.4 C428.9,158.5 429.2,159.5 429.7,160.3 C430.2,161.1 430.9,161.9 431.7,162.7 C435.4,166 440,168.1 445.5,168.9 C451,169.7 456.2,170.1 460.9,169.9 C469.7,169.6 482.8,167.8 489.9,165.1 C496.7,162.5 498.9,161.7 505.4,157.4 C509.5,154.7 516.5,148.2 518.9,144.9 C519.2,146.6 519.5,148.3 520,149.9 C521.1,153.9 522.8,157.4 525.1,160.3 C527.4,163.3 530.3,165.6 533.8,167.4 C537.3,169.2 541.5,170 546.4,169.8 C553.1,169.6 559.6,168.3 565.7,165.8 C571.9,163.4 577.6,160.2 582.9,156.2 C588.2,152.2 593,147.6 597.4,142.4 C601.8,137.2 605.4,131.7 608.3,126.1 C609.1,124.8 609.6,123.6 609.9,122.6 C610.6,121.6 610.7,120.3 610.7,118.6 L610.7,118.6 L610.7,118.6 Z M541.3,110.5 C542.6,105.8 544.3,101.1 546.3,96.3 C548.3,91.6 550.5,87.4 552.8,83.8 C555.1,80.2 557.6,78.4 560,78.3 C561.6,78.2 562.8,78.8 563.4,80 C564,81.2 564.3,82.5 564.4,83.8 C564.5,87.1 563.7,90.5 562,94.1 C560.3,97.7 558.2,101.2 555.7,104.6 C553.2,108 550.4,111.2 547.4,114 C544.4,116.8 541.6,119.1 539,120.8 C539.2,118.7 540,115.3 541.3,110.5 L541.3,110.5 L541.3,110.5 Z M286.7,130.6 C285.4,134.4 283.7,138 281.6,141.5 C279.5,144.9 276.9,147.9 273.9,150.5 C272.3,151.9 270.6,153 268.7,154 C266.8,155 264.8,155.5 262.7,155.5 C260.2,155.6 258.2,154.9 256.5,153.6 C254.8,152.3 253.5,150.6 252.5,148.7 C251.5,146.8 250.9,144.6 250.5,142.2 C250.1,139.8 249.9,137.7 249.8,135.7 C249.7,131.9 250.2,127.2 251.2,121.6 C251.8,118.3 252.7,115.1 253.7,111.9 C255,117.5 258.1,122.7 263.3,126.7 C269.8,131.7 278.5,132.4 286.8,130.1 C286.7,130.3 286.7,130.4 286.7,130.6 L286.7,130.6 L286.7,130.6 Z M289.4,118.8 L289.4,119 C282.8,121.5 275.2,121.6 270.4,118 C259.4,109.7 264.3,94.1 272.8,86 C274,85.7 275.3,85.4 276.6,85.4 C279.2,85.3 281.4,86 283.1,87.5 C284.8,89 286.2,90.9 287.2,93 C288.3,95.2 289,97.6 289.4,100.2 C289.8,102.8 290,105.1 290.1,107.1 C290.1,110.9 289.9,114.8 289.4,118.8 L289.4,118.8 L289.4,118.8 Z M463.6,54.7 C463.5,55.6 463.3,56.4 463,57.2 L461.5,61.4 C461.3,62.1 461,62.8 460.7,63.5 C460.7,63.6 460.6,63.7 460.5,63.9 C460.3,63.9 460.2,64 460.1,64.3 C459.9,64.3 459.6,64.2 459.5,64.1 C459.3,63.9 459.2,63.7 459.2,63.5 C458.6,61.8 458.3,59.8 458.6,58 C458.8,56.8 459.2,55.6 459.7,54.5 C460,53.7 460.4,53 461.1,52.5 C461.8,52 462.8,52 463.4,52.7 C463.8,53.2 463.7,54 463.6,54.7 L463.6,54.7 L463.6,54.7 Z" ></path></g><g fill="#E14040" class="dining"><path d="M134.4,254.4 L134.4,198.5 L156.1,198.5 C172,198.5 181.3,210.7 181.3,226.6 C181.3,242.4 172,254.4 156.1,254.4 L134.4,254.4 L134.4,254.4 Z M143,246.4 L156.1,246.4 C167.1,246.4 172.7,237.6 172.7,226.5 C172.7,215.4 167.1,206.5 156.1,206.5 L143,206.5 L143,246.4 L143,246.4 Z M209,198.5 L217.6,198.5 L217.6,254.4 L209,254.4 L209,198.5 L209,198.5 Z M289.1,254.4 L281.1,254.4 L257.1,214.4 L257.1,254.4 L248.5,254.4 L248.5,198.5 L256.8,198.5 L280.6,238.2 L280.6,198.5 L289.2,198.5 L289.2,254.4 L289.1,254.4 L289.1,254.4 Z M319.9,198.5 L328.5,198.5 L328.5,254.4 L319.9,254.4 L319.9,198.5 L319.9,198.5 Z M400,254.4 L392,254.4 L368,214.4 L368,254.4 L359.4,254.4 L359.4,198.5 L367.7,198.5 L391.5,238.2 L391.5,198.5 L400.1,198.5 L400.1,254.4 L400,254.4 L400,254.4 Z M468.9,211.3 C465.5,208.1 460.9,206 455.8,206 C444.7,206 436.1,215.3 436.1,226.5 C436.1,237.7 444.7,247 455.8,247 C464.9,247 472.1,241.6 472.6,233.3 C472.6,232.5 472.7,232 472.7,230.1 L456.9,230.1 L456.9,222.7 L481.7,222.7 L481.7,225.7 C481.7,245.7 471.8,255 455.8,255 C439.9,255 427.5,242.2 427.5,226.3 C427.5,210.4 439.9,197.6 455.8,197.6 C463.5,197.6 470.4,200.6 475.3,205.5 L468.9,211.3 L468.9,211.3 Z"></path></g></svg>
