<svg viewBox="0 0 421 159" xmlns="http://www.w3.org/2000/svg"><title>Akershus</title><g fill="#fff" fill-rule="evenodd"><path d="M58.9 99.6l-2.6-2.9c-.2-.2-.4-.5-.4-.8L35.7 29.2c-.2-.7-.1-1.4.4-2l2.2-2.9c.2-.2 0-.5-.3-.4-.1 0-.2.1-.3.1-.2 0-.4.1-.6.1-.3.1-.5.1-.8.2-.3.1-.7.2-1 .2l-1.2.3c-.4.1-.9.2-1.3.3-.5.1-.9.2-1.4.4-.5.1-1 .2-1.5.4-.5.1-1 .3-1.5.4-.5.1-1 .3-1.5.4-.5.1-1 .3-1.5.4-.5.1-1 .2-1.5.4-.5.1-.9.2-1.4.4-.4.1-.9.2-1.3.3l-1.2.3c-.3.1-.7.2-1 .3-.3.1-.5.1-.8.2-.1 0-.2.1-.3.1-.1 0-.2.1-.3.1v.2c0 .2.2.2.3.3.4.3.8.5 1.3.8.8.5 1.2 1.6 1 2.5 0 0-3.4 12.1-7.4 26.2v.1c-.4-.3 0 0-.5-.3-.4-.2-.7-.5-1.1-.7-.6-.5-1.1-1.1-1.4-1.9v-.2c-.1-.3-.1-.7.1-.9.3-.3.9-.2 1.3-.1.7.1 1.3-.2 1.8-.6.8-.8 1-2 .6-3s-1.4-1.8-2.4-2.1c-1-.3-2.2-.3-3.3-.1-.4.1-.9.2-1.3.5-.5.3-.8.8-1.1 1.2-.9 1.5-1.2 3.4-.8 5.1.2 1 .7 1.9 1.2 2.8 1 1.7 2.3 3.2 3.9 4.4.5.4 1.1.8 1.4 1.4 0 .1-.1.2-.1.3-1 3.6-2 7.1-3 10.7C6.4 81.9 4.7 87.9 3 94c-.7 2.6-1.5 5.1-2.2 7.7-.4 1.5-.6 3.1-.6 4.6v6.9c0 .4.5.6.8.4 2.9-2.6 5.6-5.4 8.4-8.1.9-.9 2-1.4 3.1-2.1 3.2-1.8 7.2-2.2 10.8-1.8.5.1 1 .1 1.5.3 1.2.3 2.3.8 3.3 1.5 1.1.8 2.6 2.5 3.2 3.7 1.3 2.3 1.9 3 2.2 5.7.2 2.2.5 5-1.1 6.8-.3.3-.5.6-.9.5-.4-.1-.8-.3-.5-1.4.5-1.9.5-4-.5-6.2-1.4-3-4.2-5.2-7.5-5.5-5.7-.6-10.4 3.8-10.4 9.3 0 4.7 3.5 8.6 8.1 9.3 5.3 1.1 10.4-.1 13.6-2.9.4-.4.8-.8 1.1-1.2 1-1.4 1.4-3.2 1.9-4.9.2-.5.7-1.1 1.2-1.3.2-.1.4-.1.5-.1.5-.1 1.1-.1 1.6-.1.3 0 .5 0 .8-.1.4-.1.8-.4 1.1-.7.5-.6.8-1.4.7-2.1 0-.2-.1-.4-.2-.6-.1-.2-.3-.4-.5-.6-.2-.2-.4-.4-.6-.5-.2-.1-.5-.1-.8-.1-.3 0-.6 0-.9.1-.3.1-.6.3-.9.4-.4.2-1 .1-1.3-.2-.9-.7-1.2-2.5-1.7-3.5-.6-1.3-1.4-2.5-2.2-3.6-1.7-2.2-3.7-4.2-6.1-5.7-3.1-2-6.7-3.2-10.3-3.5-.9-.1-1.8-.1-2.7-.1-.7 0-1.7.4-1.6-.5 0-.4.3-1 .4-1.4 1.5-4.8 2.9-9.6 4.4-14.5 1-3.3 2-6.6 3-10 .1-.3.4-.5.6-.5H36c.3 0 .6.2.7.5l7.5 28.6c.1.4.1.9-.1 1.3l-1 2.3c-.1.3.1.6.4.6h15.1c.3-.4.5-.8.3-1.1zm-25-40.4h-9.8c-.3 0-.5-.3-.4-.5l5-17.2c.1-.4.7-.4.8 0l4.7 17.2c.1.2-.1.5-.3.5zM54.2 58.3c1 1.1 2.6 1.5 4.1 1.6.9.1 1.9.1 2.8 0v19.7c0 .6-.2 1.2-.7 1.7l-2.8 3c-.2.2-.1.6.3.6h17.4c.3 0 .5-.3.3-.6l-2.7-3.6c-.3-.4-.5-.9-.5-1.5V52.3l4-4.2c.3-.4.9-.3 1.1.2l14.8 31.4c.4.9.3 2-.4 2.7l-1.7 1.8c-.2.2 0 .5.2.5h15.3c.3 0 .4-.3.2-.5l-2.6-2.6c-.2-.2-.3-.4-.5-.7L82.2 37.8c-.1-.2-.1-.5.1-.7l19.2-26.9c.2-.3-.1-.8-.4-.7l-17.3 3.2c-.4.1-.5.5-.2.8l1.3 1.4c.5.5.7 1.2.6 1.9l-.7 6c-.6 2-1.4 3.7-2.1 4.6L72.4 41V19.3c0-.6.3-1.2.7-1.6l2.1-2c.3-.3 0-.7-.3-.6l-17.3 4.7c-.3.1-.3.4-.2.6l3.1 3.2c.4.4.6 1 .6 1.6V57c-.8.2-1.7.3-2.4-.1-.2-.1-.3-.2-.4-.4-.1-.2-.1-.4.1-.6.1-.1.2-.1.3-.2.8-.3 1.3-1.1 1.3-1.9.1-.8-.4-1.7-1.1-2.1-.4-.2-.9-.3-1.4-.4-.7-.1-1.3 0-2 .2-.9.3-1.7 1.1-2 2-.4.9-.4 2-.2 2.9.2.8.5 1.4.9 1.9zM106.4 46.4c.1.4.3.7.5 1 .5.8 1.3 1.3 2.2 1.7.5.2 1 .3 1.5.2.5-.1.9-.6.9-1.1 0-.5-.6-.9-.9-1.3-.7-.8-.7-2.2 0-3.1 1.1-1.5 3.1-1.1 4.7-.9v36.5c0 .8-.3 1.6-.8 2.2l-2.4 2.6c-.2.3 0 .7.3.7h45c.3 0 .5-.4.3-.6l-1.4-1.9c-.1-.1-.2-.2-.3-.2h-2.6v-.4c0-.2.2-.3.3-.4 2-2.1 4.1-4.1 5.5-6.7.4-.8.8-1.6 1-2.4.6-2 .6-4.5.3-6.6-.3-1.7-1.1-3.3-2.6-4.3-.5-.3-1-.7-1.5-.9-1.6-.8-3.9-1-5.5-.1-.6.3-1.1.8-1.5 1.3-1.1 1.4-1.8 3.3-1.5 5 .3 1.7 1.9 3.3 3.7 3.4.6 0 1.3-.1 1.9-.3.3-.1.7-.3 1-.1.2.1.3.3.3.5s0 .4-.1.6c-.1.3-.2.6-.4.9-.2.4-.7.6-1 .9l-1.2.9c-.9.5-1.8.8-2.8.8h-22.5V44.8c.9.1 1.8.3 2.7.4.3 0 .5.1.8.1 1 .1 1.9.7 2.5 1.5l4.7 6.5c.3.4.9.2.9-.3V33.1c0-.4-.5-.6-.8-.3l-4.3 4.3c-.7.7-1.7 1.1-2.8 1.1-1.2 0-2.4-.1-3.6-.1V17.4c0-.6.4-1 1-1.1l15.5-1.3s.9 1.1 1 1.2c.5.6.9 1.2 1.3 1.8.8 1.3 1.3 2.6 1.6 4.1.6 2.7.3 5.8 5.1 7.2.2.1.4.1.6.1 2 .1 4.1-1 5.1-2.8 1-1.8.7-4.2-.6-5.7-1-1.1-2.4-1.8-3.9-2.1-.7-.2-1.5-.3-2.1-.7-1.2-.8-.7-1.9-.5-3.1.2-1.2.4-2.4.6-3.5.1-.6.2-1.3.3-1.9.2-1 .4-1.7.9-2.4 1-1.6 2.5-2.8 4-4 .2-.2.1-.5-.2-.5l-45.5 5.1c-.3 0-.4.4-.2.6l3.8 3.3c.4.4.7.9.7 1.5v24.4c-1 0-2-.1-2.9-.1-.9 0-1.7-.1-2.5.2-1.1.4-2.1 1.2-2.7 2.3-.9 1.5-1 3.4-.9 5.1-.2.5-.2.9 0 1.3z"/><path d="M163.8 56.3c.7.3 1.6.5 2.1 0 .4-.4.4-.9.3-1.4-.1-.5-.4-1-.6-1.4-.3-.7-.5-1.4-.5-2.1 0-.7.3-1.5.9-1.9.7-.5 1.5-.5 2.3-.5h.9v30.7c0 1-.4 2-1.1 2.7l-1.8 1.8c-.3.3-.1.8.3.8h15.9c.4 0 .6-.5.3-.8l-1.8-2c-.7-.7-1-1.7-1-2.7V49.1H189.2l16 32.7c.3.7.3 1.5 0 2.1-.2.5.1 1 .6 1H218c.7 0 1-.9.4-1.3l-1.8-1.3c-.3-.2-.6-.6-.8-1l-16.5-36 .1-.1c9.3-7 11.9-21.8 6.6-31.8-2.3-4.2-5.8-7.7-10-10-9-4.8-20.2-3.3-29.9-2.5-.5 0-.7.6-.4 1l2.8 3.2c.5.6.8 1.3.8 2V39c-.6.1-1.3.1-2 .2-3.2.5-6.1 3.5-7.1 6.6-1 3.1-.3 6.7 1.9 9.1.5.6 1.1 1.1 1.7 1.4zm16.4-45.5s10.8.3 14.6 4.8c4.7 5.6 3.6 15.4.1 19.8-4.4 5.5-14.7 4.1-14.7 4.1V10.8z"/><path d="M256.1 53.1c-1.6-3.3-4.1-5.9-6.6-8.5-5.3-5.3-10.7-10.5-16.3-15.4-4.7-4.1-10.3-11.6-6.7-18 2.2-3.9 7.2-4.1 11-2.4 3.2 1.5 6.3 4 8.1 7 1.6 2.7 2.8 5.3 4 8.2.2.4.4.9.9 1 .5.1.9-.3 1-.8.2-1 0-2.4.1-3.4 0-1.3.1-2.7.1-4 .1-2.6.2-5.2.2-7.8 0-.2 0-.4-.1-.5-.1-.2-.4-.3-.7-.3-1.3-.1-3 .4-4.2-.1-1-.3-1.7-1.4-2.6-2-2.3-1.7-4.7-3.2-7.3-4.3-3.6-1.4-7.8-1.8-11.4-.4-3 1.2-5.4 3.6-7 6.5-2.3 4.1-3.4 10.2-2 14.7 1.1 3.8 4.2 7.9 7.1 10.6l11.1 10.5c3.3 3.1 5 4.8 8.8 8.8 3 3.2 4 6 4.3 10.5.3 4.5-1.1 8.9-4.9 11.3-2.7 1.7-6.6 2-9.7 1.4-5.5-1.2-10.5-5.4-9.4-11.5.2-1.3.9-2.2 1.9-3 .8-.6 1.8-1 2.8-1.1.4 0 .8 0 1.2-.1.4-.1.8-.2 1-.6.3-.4.2-.9 0-1.3s-.7-.6-1.1-.7c-.2 0-.4 0-.5-.1-.3-.2.1-1 .1-1.3.1-.6 0-1.3-.2-1.9-.5-1.5-1.7-2.6-3.2-2.9-2.9-.6-5.4 1.6-5.4 4.3 0 1.3.5 2.4 1.4 3.2.3.3.3.7 0 1-.3.3-.7.6-1 .9-2.3 2.2-4.3 4.7-6 7.4-.5.9-1.1 1.9-1.1 2.9 0 .3.1.6.3.9.1.2.4.3.6.2.3-.1.3-.4.4-.6.1-.2.1-.4.2-.5.4-.9 1.1-1.8 2-2.3 1.6-.9 2.1.7 2.6 2 1.2 3.6 2.5 7.3 5.2 9.9 2.9 2.8 6.4 4.3 10.9 5.2 3.5.6 8.4.3 11.6-1.2.6-.3 1.2-.6 1.7-.9 4.9-2.7 7.8-7.4 8.9-12.7 1.1-5.8.6-12.2-2.1-17.8zM262.8 84.9H279c.5 0 .8-.6.5-1l-2.8-3.9c-.5-.7-.7-1.5-.7-2.3V49h24.3v30.9c0 1-.4 1.9-1 2.7L298 84c-.4.4-.1 1 .5 1h16.6c.5 0 .8-.6.5-1l-2.5-3.6c-.5-.7-.7-1.5-.7-2.3V17.2c0-1 .4-1.9 1-2.6l3.1-3.3c.4-.4.1-1-.4-1.1l-18.3-2.8c-.6-.1-1 .6-.5 1.1l2 2c.7.7 1.1 1.6 1.1 2.6v26.5H276V12.8c0-.9.3-1.7.9-2.4l3.8-4.6c.3-.4.1-.9-.4-1l-16.6-2.6c-.5-.1-.9.5-.6 1l1.5 2.1c.4.6.7 1.4.7 2.1v72.2c0 1.2-.6 2.4-1.5 3.1l-1.3 1c-.6.5-.3 1.2.3 1.2z"/><path d="M344.1 87.6c40.4 3 25.4-50.2 23-58.2-.2-.7-.5-1.7-.2-2.3.4-.9 1.2-1.6 2.1-1.9.2-.1.4-.1.6-.2.1-.1.1-.2.1-.2v-.1c0-.1-.1-.1-.1-.2-.1-.1-.3-.1-.4-.2-.1 0-.2-.1-.4-.1-.5-.1-1-.3-1.5-.4-1.2-.3-2.4-.7-3.6-1-1.3-.4-2.6-.7-3.9-1.1-1.2-.3-2.3-.7-3.5-1-.8-.2-1.6-.4-2.4-.7-.2-.1-.4-.1-.6-.2-.4-.1-.7.4-.4.6l1.6 1.6c.2.2.3.4.4.6 1.4 2.3 2.9 6.1 4.2 10.7l-27.9 25.9c-1.4-13.7 3.5-31.4 4.6-35.2.1-.5.4-.9.7-1.2l5-5.1c.2-.2.1-.6-.2-.6l-16.6-4.2c-.4-.1-.6.3-.4.6.5.7 1.4 1.9 2.7 3.7.5.7.7 1.7.4 2.5-5.4 19.2-18.1 65.3 16.7 67.9zM361.6 45c2 15.1-.3 31.5-16.1 31-4.9-.2-8.3-2.2-10.6-5.5L361.6 45z"/><path d="M418.1 80.5c-1.6-3.3-4.1-5.9-6.6-8.5-5.3-5.3-10.7-10.5-16.3-15.4-3.4-3-6.8-7-7.7-11.6-.4-2.3-.1-4.7 1-6.7 1.2-2.1 4.7-2.3 6.9-1.9 2.6.5 4.8 2.2 6.6 4.2 1.8 2 3 4.4 4.2 6.7 1.3 2.6 2.7 5.1 4 7.7.2.4.8.9 1.1.6.1-.1.1-.3.2-.5.4-6.3-.1-12.7-.1-19 0-.2 0-.3-.1-.5-.1-.1-.3-.2-.5-.2-1.9-.1-4 .4-5.7-.5-.7-.4-1.3-.9-1.9-1.4-5.3-4.2-15.4-5.9-20.3-2-1.9 1.5-4.4 4.9-5.1 7.3-2.8 10.3 5 21.8 12 28.7 7.4 7.4 18.7 13.7 19.1 25.3.3 7.5-3.8 15.2-10.6 18.7-4.6 2.3-10 2.7-14.8 1-3.3-1.2-6.3-3.4-8.2-6.4-2.1-3.4-2.6-7.6-2.2-11.5.1-1.5.4-3 1-4.4 1.3-3 3.9-5.8 6.6-7.5.2-.1.6-.4.9-.4.4 0 .7.4.2.9-2.8 2.3-4.7 5.8-4.7 9.8 0 6.9 5.6 12.6 12.6 12.6 6.9 0 12.6-5.6 12.6-12.6 0-2.5-.7-4.8-2-6.8-.1-.1-.1-.2-.2-.2-1.1-1.6-1.4-1.9-2.4-3-.6-.6-1.8-1.6-2.5-2.2-2.5-2-5.5-3.5-8.8-3.5-1.8 0-3.4.1-5.2.5-1.6.4-3.1 1.2-4.5 2.1-4 2.7-7.7 6.5-9 11.2-.5 1.9-.8 3.8-1 5.7-.1.8.1 1.6-.2 2.4-.3.7-.9 1.3-1.5 1.8-1 .6-2.2.9-3.3 1.2-.3.1-2.8.4-3.6 1-1.7.8-2.8 2.6-2.8 4.6 0 2.8 2.3 5.1 5.1 5.1 2.3 0 4.2-1.5 4.9-3.6 0 0 0-.1.1-.2l.5-1.5c.3-.5.9-.7 1.4-.6 1 .2 1.1 1.4 1.5 2.2.5 1 1.2 2 1.9 2.9 1.1 1.4 2.4 2.7 3.8 3.7 2.9 2.2 6.4 3.4 9.9 4.4 2.9.9 6.8 1.2 9.8 1 8.8-.6 11.1-2.1 15.8-6.1 4.9-4.1 8.6-10.5 9.9-16.9 1.4-5.7.9-12.1-1.8-17.7zM78.6 111.5h2c.4 0 .7.1 1.1.2.4.1.7.2 1 .3.7.3 1.3.8 2 1.5.7.6 1.3 1.3 1.9 2 .6.7 1.2 1.4 1.7 2.1.5.7 1 1.2 1.4 1.7.6.6 1.1 1.2 1.8 1.8.7.6 1.3 1.1 2 1.5.7.4 1.4.8 2.1 1.1.7.3 1.5.4 2.3.4 1.6 0 2.6-.5 3-1.4 0-.1 0-.2-.1-.3 0-.1-.1-.2-.2-.2s-.2 0-.2.1c-.1.2-.2.4-.4.5l-.6.3c-.2.1-.4.1-.7.1h-.6c-.9 0-1.8-.3-2.6-.8-.8-.6-1.5-1.2-2.1-2.1-.6-.8-1.2-1.7-1.7-2.5-.5-.9-1-1.7-1.4-2.3.1-.2.2-.4.3-.4.1-.1.1-.3.1-.6-.1-.6-.4-1.1-.8-1.5-.4-.4-.9-.8-1.5-1.1-.6-.3-1.3-.6-2-.7-.7-.2-1.5-.3-2.4-.3.7-.3 1.4-.6 2.1-1.1.8-.5 1.4-1 2.1-1.6.6-.6 1.2-1.3 1.6-2.1.4-.8.6-1.6.6-2.5 0-.9-.2-1.7-.6-2.4-.4-.7-1-1.3-1.6-1.7-.7-.5-1.5-.8-2.4-1.1-.9-.2-1.9-.4-2.9-.4-.6 0-1.3.1-1.9.2-.7.1-1.3.3-1.9.5-.6.2-1.1.4-1.6.6-.4.2-.8.3-1 .4-.1.1-.3.1-.5.1-1.3 0-2.4 0-3.3-.1-.9-.1-1.5-.1-1.9-.1-.3 0-.5.1-.5.4 0 .2.1.4.4.4.3.1.6.1 1.1.1.4 0 .8.1 1.3.1.4.1.8.2 1 .4.1.2.1.5.2.9s.1 1 .2 1.7.1 1.6.1 2.6V114.1c0 1.1-.1 1.9-.1 2.6-.1.7-.1 1.3-.2 1.8s-.2.9-.3 1.4l-.9.3c-.3.1-.7.1-1.1.2-.7.1-1.1.2-1.4.2-.2 0-.4.2-.4.4 0 .1.1.2.2.3.1.1.2.1.4.1s.7-.1 1.5-.2 2.1-.2 3.8-.2c1.3 0 2.5 0 3.5.1s1.8.1 2.4.1c.2 0 .4 0 .5-.1.1-.1.2-.2.2-.3 0-.2-.1-.3-.4-.4-.3-.1-.6-.1-1-.1s-.8-.1-1.3-.1c-.5-.1-.9-.2-1.2-.4-.2-.6-.3-1.4-.3-2.4s-.1-2-.1-3v-2.6c.1-.3.1-.3.2-.3zm-.1-3.9c0-.9.1-1.7.1-2.6 0-.8.1-1.6.2-2.3.1-.7.1-1.2.2-1.6l.1-.5c.1-.3.3-.5.5-.8l.9-.6c.3-.2.7-.3 1.1-.4.4-.1.7-.2 1-.2.5 0 1 .1 1.5.4.5.3.9.7 1.2 1.2.3.5.6 1.1.8 1.9.2.8.3 1.5.3 2.5 0 .6-.1 1.2-.2 1.8-.2.6-.4 1.1-.6 1.5-.2.4-.5.8-.7 1.2-.3.3-.5.6-.7.7-.3.3-.7.4-1.1.6-.4.2-.9.2-1.5.2h-1.9c-.6 0-1-.1-1.2-.3-.1-.9-.1-1.8 0-2.7z"/><path d="M110.3 120.1c1.5-.7 2.8-1.7 3.9-2.9s1.9-2.6 2.5-4.1c.6-1.5.9-3 .9-4.6 0-1.6-.3-3-.9-4.3-.6-1.3-1.4-2.3-2.5-3.2-1.1-.9-2.2-1.5-3.6-1.9-1.4-.4-2.8-.7-4.3-.7-1.6 0-3.1.3-4.6.9-1.5.6-2.8 1.4-3.9 2.5s-2.1 2.3-2.8 3.8c-.7 1.5-1 3.2-1 5 0 1.7.3 3.2.9 4.5.6 1.3 1.4 2.4 2.4 3.3 1 .9 2.2 1.6 3.6 2.1s2.9.7 4.5.7c1.8 0 3.4-.4 4.9-1.1zm-9.4-2.6c-.7-.9-1.3-2-1.7-3.3-.4-1.3-.6-2.9-.6-4.7 0-1.4.2-2.8.5-4 .3-1.2.8-2.3 1.4-3.1.6-.9 1.4-1.6 2.3-2.1.9-.5 1.9-.8 3-.8 1 0 1.9.2 2.8.7.9.5 1.7 1.2 2.3 2.1.7.9 1.2 2 1.6 3.3.4 1.3.6 2.8.6 4.4 0 1.3-.1 2.6-.4 3.8-.3 1.2-.7 2.3-1.3 3.2-.6.9-1.3 1.7-2.2 2.2-.9.6-1.8.8-3 .8-1 0-1.9-.2-2.8-.6-1-.4-1.8-1.1-2.5-1.9zM139.3 104.1c.1-1 .1-1.9.2-2.6.1-.7.2-1.2.3-1.5 0-.1.1-.1.3-.2.1-.1.3-.1.5-.1s.3-.1.4-.1c.1 0 .2-.1.2-.1V99c0-.2-.2-.3-.4-.3-.3.1-.8.1-1.4.1-.6 0-1.4.1-2.5.1h-4.1c-.1 0-.2.1-.3.2-.1.1-.1.2-.1.4 0 .1 0 .3.1.4.1.1.2.2.4.1.1 0 .3 0 .5-.1.2 0 .4-.1.6-.1h.6c.2 0 .3 0 .4.1.2.1.3.4.4.7.1.3.1.9.2 1.7 0 .9.1 2.3 0 3.9s0 3.9 0 6.7c0 .6-.1 1.2-.3 2-.2.8-.5 1.5-.9 2.2-.4.7-1 1.3-1.7 1.7-.7.5-1.6.7-2.6.7-.9 0-1.7-.1-2.5-.4-.8-.3-1.5-.8-2.2-1.4-.6-.6-1.2-1.5-1.5-2.5-.4-1-.6-2.2-.6-3.7 0-1.6.1-3.1.3-4.5.2-1.4.5-2.6.8-3.7.3-1.1.7-2 1-2.7.4-.7.7-1.2 1-1.3v-.4c-.6.1-1.1.1-1.7.1h-4.2c-.2 0-.4.1-.5.1-.1 0-.3.1-.4.2-.3.2-.5.4-.7.8-.1.3-.2.7-.3 1.1-.1.5-.1.7.1.8.2.1.4 0 .5-.2.2-.4.7-.7 1.5-.9.8-.2 1.9-.3 3.4-.2-.1.1-.2.3-.5.6s-.6.8-.9 1.4c-.4.6-.8 1.2-1.2 2-.4.8-.8 1.6-1.1 2.5-.3.9-.6 1.9-.9 2.9-.2 1-.4 2.1-.4 3.1 0 1.3.2 2.5.7 3.6.4 1 1.1 1.9 1.9 2.6.8.7 1.8 1.2 2.9 1.5 1.1.3 2.4.5 3.8.5.8 0 1.5-.1 2.3-.4.8-.3 1.4-.5 2-.9.6-.4 1.2-.7 1.7-1.1.5-.4.9-.8 1.1-1.1v3c0 .6 0 1.1-.1 1.7-.1.6 0 .9-.1 1.1-.1.6-.3 1.1-.7 1.4-.4.4-.9.5-1.6.5-.8 0-1.7-.1-2.7-.3l-3-.6c-1-.2-2-.4-2.9-.6-.9-.2-1.7-.3-2.4-.4l-.6.3c-.3.2-.7.5-1.1.8-.4.3-.7.6-1.1.9-.3.3-.5.6-.5.8 0 .1.1.2.2.3.1.1.2.1.2-.1s.2-.3.5-.4c.3-.1.6-.1 1-.1.5 0 1.2.1 1.9.2.8.2 1.6.3 2.6.5.9.2 1.9.3 2.9.5 1 .1 1.9.2 2.9.2.4 0 .9-.1 1.5-.4.6-.2 1.2-.5 1.8-.9.6-.4 1.2-.8 1.8-1.3.6-.5 1.1-1 1.6-1.5s.9-1 1.2-1.5c.3-.5.4-.9.4-1.3v-13.2c.1-1.3.1-2.4.1-3.4zM172.7 120.7c.6 0 1.1 0 1.5.1.5 0 .9.1 1.3.1.4.1.8.1 1.1.2.1 0 .3.1.4.2.1.1.3.2.3.2-.2.1-.2.2-.2.4s.1.3.2.3h.2c.2 0 .3-.1.3-.2s.1-.2.1-.3c0-.3-.1-.5-.3-.7-.2-.2-.4-.3-.5-.4 0-.1.1-.4.2-.7.1-.3.2-.6.4-.9.1-.3.3-.6.5-.9.2-.3.4-.5.5-.6.1-.1.1-.1.1-.3 0-.2-.1-.2-.1-.3-.1-.1-.2-.1-.3-.2-.1 0-.2 0-.3.1-.3.3-.7.6-1.2.8-.5.2-1 .4-1.5.5-.5.1-1.1.2-1.6.3-.5.1-1 .2-1.5.2-.2 0-.4.1-.7.1-.3 0-.5.1-.8.1-.3 0-.5.1-.8.1h-1c-.1-.1-.2-.8-.3-2-.1-1.2-.1-2.7-.1-4.6v-3.8c0-1.4.1-2.7.1-3.9.1-1.2.1-2.3.2-3.2.1-.9.2-1.5.3-1.7.2-.1.5-.2.9-.3.5-.1.9-.2 1.4-.3.5-.1.9-.2 1.3-.3.4-.1.6-.3.6-.5 0-.4-.1-.6-.3-.6-.2.1-.4.2-.9.3-.4.1-.9.2-1.5.3-.6.1-1.3.2-2.1.3-.8.1-1.6.1-2.5.2h-1.8c-.8 0-1.4-.1-1.9-.1-.5-.1-.8-.1-1-.1-.2 0-.3.1-.3.2s-.1.2-.1.4c0 .1.1.2.2.3.1.1.5.1 1 .2l2.2.1c.1.2.1.4.2.7.1.3.1.8.2 1.5 0 .7.1 1.6.1 2.8v4.4c0 1.3 0 2.6-.1 3.8 0 1.2-.1 2.2-.2 3.2-.1.9-.1 1.7-.2 2.3-.1.6-.2 1-.3 1.2-.1.1-.2.2-.5.3-.3.1-.6.2-1 .3-.4.1-.8.1-1.2.2h-.9c0-.1-.1-.2-.2-.2h-1.5c-.1 0-.2 0-.3-.1-.2-.4-.4-1.1-.7-2.1-.3-1-.5-2.2-.8-3.5-.3-1.3-.6-2.8-.9-4.3-.3-1.5-.6-3-.8-4.3-.2-1.3-.4-2.6-.6-3.7-.2-1.1-.2-1.9-.2-2.3 0-.2.1-.3.2-.3.7 0 1.2-.1 1.8-.1.5 0 1-.1 1.3-.1.4-.1.7-.1.9-.2.2-.1.3-.3.3-.5 0-.1 0-.2-.1-.3-.1-.1-.1-.1-.2-.1-.1.1-.4.1-.8.2-.5.1-1.1.1-1.8.2s-1.5.1-2.3.2c-.8 0-1.7.1-2.5.1h-1.5c-.7 0-1.5-.1-2.4-.2-.9-.1-1.8-.2-2.8-.3-1-.1-1.8-.3-2.7-.5-.2.1-.2.2-.2.4s0 .3.1.5.1.3.2.3c.4.1.9.2 1.6.2.7.1 1.3.1 2 .2.7 0 1.4.1 2 .1h1.4l-2.7 1.4c-.2 1.4-.5 2.9-.8 4.4-.3 1.5-.6 3-1 4.4-.3 1.4-.7 2.7-1 3.8-.3 1.2-.7 2.1-.9 2.8-.4 1-.8 1.8-1.1 2.4-.3.6-.7 1-1.1 1.2-.4.2-.7.4-.9.5-.1 0-.2.1-.2.2v.2c0 .1.1.1.1.1h.2c.1 0 .2 0 .4-.1s.4 0 .8-.1h2.4c.4 0 .8 0 1.2.1.4 0 .7.1.9.1h.5c.5 0 .9-.1 1.1-.3.2-.2.5-.4.7-.5.1-.1.3-.2.4-.3.1-.1.1-.2.1-.2 0-.1-.1-.1-.2-.1h-1.4c-.5 0-1-.2-1.3-.6-.4-.4-.5-1-.5-1.8 0-.4 0-.9.1-1.4l.3-1.5c.1-.5.2-1 .4-1.5.1-.5.2-1 .3-1.4.4-.2.9-.3 1.5-.3.6-.1 1.3-.1 2-.1.6 0 1.2 0 1.8.1.6 0 1 .1 1.4.2.2.8.3 1.7.5 2.7.2 1 .3 1.9.5 2.7.2.8.3 1.6.4 2.2.1.6.2 1 .2 1.1 0 .1-.2.2-.5.2h-.7c-.1 0-.1 0-.2.1v.3c0 .1 0 .2.1.3.1.1.1.1.2.1h.5c.2 0 .5 0 .8-.1.3 0 .6 0 .9-.1h4.9v.1c0 .2.1.4.4.4.3 0 .7 0 1.3-.1.5-.1 1.2-.2 2-.3.8-.1 1.8-.2 2.9-.3 1.1-.1 2.6-.1 4.2-.1h1.8zm-21.9-11.2c-.6.1-1.1.2-1.7.3-.6.1-1.1.2-1.6.3-.5.1-.9.2-1.2.3.1-.6.3-1.3.5-2.1s.4-1.5.6-2.3c.2-.8.5-1.5.7-2.2.2-.7.5-1.4.8-1.9.3-.6.5-1 .7-1.3.2-.3.4-.5.6-.5.1 0 .2.1.3.2.1.1.2.5.3 1 .1.4.2.9.3 1.6.1.7.3 1.4.4 2.2.1.8.3 1.6.4 2.3.1.8.2 1.4.4 1.9-.4 0-.9.1-1.5.2zM189.6 115.3c-.1.9-.1 1.6-.2 2.2-.1.6-.2 1.1-.2 1.3-.2.5-.4.8-.8 1.1-.3.3-.7.4-1.2.4h-.8c-.2 0-.4-.1-.6-.3-.1-.1-.1-.1-.2-.1s-.1.1-.2.2-.1.2-.1.3v.3c0 .2.1.4.3.5.2.1.5.1 1 .1.8 0 1.5-.1 2.2-.4.7-.3 1.3-.6 1.8-.8.4.2.9.3 1.5.5s1.2.3 1.8.4l1.8.3c.6.1 1.1.1 1.5.1.7 0 1.4-.1 2.1-.3.8-.2 1.5-.5 2.3-.8.7-.3 1.5-.8 2.1-1.3.7-.5 1.3-1.1 1.8-1.7.5-.6 1-1.3 1.3-2 .3-.7.5-1.4.5-2.2 0-1-.3-1.8-.8-2.4-.5-.7-1.2-1.2-1.9-1.6-.8-.4-1.6-.7-2.5-.9-.9-.2-1.7-.3-2.5-.4.5-.2 1-.5 1.6-.8.6-.4 1.1-.8 1.7-1.3.5-.5 1-1.1 1.3-1.8.3-.7.5-1.4.5-2.2 0-.7-.2-1.3-.5-1.9-.4-.5-.8-1-1.5-1.3-.6-.3-1.3-.6-2.2-.8-.8-.2-1.7-.2-2.7-.2-.8 0-1.5.1-2 .2-.6.2-1.1.3-1.6.6-.5.2-1 .4-1.4.6-.5.2-1 .2-1.5.2h-1.4c-.5 0-1 0-1.5-.1-.5 0-.9-.1-1.3-.1h-.8c-.3 0-.4.2-.4.6 0 .1 0 .2.1.3.1.1.2.1.3.1h1.4c.3 0 .5.1.8.1l.6.3c.2.2.4 1.1.6 2.6.1 1.5.2 3.5.2 6.2v3.3c-.2 1.1-.3 2.1-.3 2.9zm3.8-10c0-.7.1-1.4.1-2 0-.6.1-1.2.1-1.6 0-.4.1-.8.1-1.1.1-.3.2-.6.5-.8.3-.2.5-.4.8-.6l.9-.3c.3-.1.6-.1.8-.1.4 0 .9.1 1.3.3.4.2.8.5 1.1.8.3.4.6.8.8 1.4.2.6.3 1.2.3 1.9 0 1-.1 1.9-.4 2.4-.3.6-.6 1-1 1.3-.2.2-.4.3-.6.4l-.6.3c-.2.1-.5.1-.8.2h-2.7c-.3 0-.5 0-.7-.1-.2 0-.3-.1-.3-.1.3-.8.3-1.5.3-2.3zm-.1 5.2V109h2.7c1 0 1.9.1 2.7.3.8.2 1.5.5 2 .9.6.4 1 1 1.3 1.6.3.7.5 1.5.5 2.4 0 1.1-.1 2-.4 2.7-.2.8-.6 1.4-1 1.9s-.9.8-1.5 1.1c-.6.2-1.2.3-1.8.3-.6 0-1.2-.1-1.7-.3-.5-.2-.9-.4-1.3-.7-.4-.3-.7-.6-.9-.9-.2-.3-.4-.7-.4-1 0-.2-.1-.6-.1-1.1 0-.5-.1-1.2-.1-2.3v-3.4zM249.2 100.3c-.7-.6-1.6-1.1-2.7-1.4-1-.3-2.2-.5-3.4-.5-.9 0-1.8.1-2.7.4-.9.3-1.7.6-2.5.9-.8.4-1.4.8-2 1.2-.6.4-1 .8-1.2 1v-.7c0-.3 0-.6.1-.9 0-.3.1-.6.1-.9 0-.3 0-.5.1-.6 0-.3-.1-.4-.4-.3-.5.1-1.1.2-1.6.2-.6 0-1.3.1-2.2.1H228c-.1 0-.2.1-.2.2v.5c0 .1.1.1.1.1H229.6c.2 0 .4.1.5.4.1.3.2.7.3 1.3.1.6.1 1.4.2 2.5 0 1 .1 2.3.1 3.8v4.8c0 1.3 0 2.4-.1 3.3 0 .9-.1 1.6-.1 2.2-.1.5-.1 1-.2 1.3-.1.3-.2.5-.3.6-.1.1-.2.2-.4.2-.1 0-.3.1-.6.1h-1c-.1 0-.2.1-.3.2v.1h-1.6c-.1 0-.2 0-.3-.1-.2-.4-.4-1.1-.7-2.1-.3-1-.5-2.2-.8-3.5-.3-1.3-.6-2.8-.9-4.3-.3-1.5-.6-3-.8-4.3-.2-1.3-.4-2.6-.6-3.7-.2-1.1-.2-1.9-.2-2.3 0-.2.1-.3.2-.3.7 0 1.2-.1 1.8-.1.5 0 1-.1 1.3-.1.4-.1.7-.1.9-.2.2-.1.3-.3.3-.5 0-.1 0-.2-.1-.3-.1-.1-.1-.1-.2-.1-.1.1-.4.1-.8.2-.5.1-1.1.1-1.8.2s-1.5.1-2.3.2c-.8 0-1.7.1-2.5.1h-1.5c-.7 0-1.5-.1-2.4-.2-.9-.1-1.8-.2-2.8-.3-1-.1-1.8-.3-2.7-.5-.2.1-.2.2-.2.4s0 .3.1.5.1.3.2.3c.4.1.9.2 1.6.2.7.1 1.3.1 2 .2.7 0 1.4.1 2 .1h1.4l-2.7 1.4c-.2 1.4-.5 2.9-.8 4.4-.3 1.5-.6 3-1 4.4-.3 1.4-.7 2.7-1 3.8-.3 1.2-.7 2.1-.9 2.8-.4 1-.8 1.8-1.1 2.4-.3.6-.7 1-1.1 1.2-.4.2-.7.4-.9.5-.1 0-.2.1-.2.2v.2c0 .1.1.1.1.1h.2c.1 0 .2 0 .4-.1s.4 0 .8-.1h2.4c.4 0 .8 0 1.2.1.4 0 .7.1.9.1h.5c.5 0 .9-.1 1.1-.3.2-.2.5-.4.7-.5.1-.1.3-.2.4-.3.1-.1.1-.2.1-.2 0-.1-.1-.1-.2-.1h-1.4c-.5 0-1-.2-1.3-.6-.4-.4-.5-1-.5-1.8 0-.4 0-.9.1-1.4l.3-1.5c.1-.5.2-1 .4-1.5.1-.5.2-1 .3-1.4.4-.2.9-.3 1.5-.3.6-.1 1.3-.1 2-.1.6 0 1.2 0 1.8.1.6 0 1 .1 1.4.2.2.8.3 1.7.5 2.7.2 1 .3 1.9.5 2.7.2.8.3 1.6.4 2.2.1.6.2 1 .2 1.1 0 .1-.2.2-.5.2h-.7c-.1 0-.1 0-.2.1v.3c0 .1 0 .2.1.3.1.1.1.1.2.1h.5c.2 0 .5 0 .8-.1.3 0 .6 0 .9-.1h5.4c.1 0 .2-.1.2-.2.1 0 .3 0 .7-.1h8c.1 0 .2 0 .3-.1.1-.1.1-.1.1-.2s0-.2-.1-.3c-.1-.1-.1-.2-.3-.2h-.9c-.5 0-.8 0-.9-.1-.1-.1-.2-.2-.3-.4 0-.1-.1-.3-.1-.6s-.1-.7-.1-1.1c0-.4-.1-.9-.1-1.5v-7.7c0-.9.1-1.8.1-2.5s.1-1.2.2-1.5c.1-.6.4-1.2.8-1.8.4-.6 1-1.1 1.5-1.5.6-.4 1.2-.8 1.9-1 .7-.2 1.4-.4 2.1-.4.8 0 1.5.2 2.2.5.7.3 1.3.8 1.8 1.5s.9 1.5 1.3 2.5c.3 1 .5 2.2.5 3.5 0 1.3-.1 2.5-.2 3.8-.1 1.3-.3 2.4-.5 3.5s-.4 2-.7 2.8c-.2.8-.5 1.4-.7 1.7-.1.1-.2.2-.3.2-.1 0-.1.1-.2.1s-.1 0-.1.1v.2c0 .2.2.3.5.3H250.8c.1 0 .3-.1.4-.3.1-.2.2-.3.2-.4 0-.1 0-.2-.1-.2-.1-.1-.2-.2-.2-.1-.1.1-.3.2-.5.2h-.7c-.5 0-.9-.1-1.1-.2-.2-.1-.3-.3-.3-.5 0-.3.1-.7.2-1.3.2-.6.4-1.2.6-1.9.2-.7.5-1.5.8-2.3.3-.8.6-1.7.8-2.6.2-.9.4-1.8.6-2.6.2-.9.2-1.8.2-2.6 0-1.3-.2-2.4-.6-3.4-.6-.7-1.2-1.5-1.9-2.1zm-31.2 9.2c-.6.1-1.1.2-1.7.3-.6.1-1.1.2-1.6.3-.5.1-.9.2-1.2.3.1-.6.3-1.3.5-2.1s.4-1.5.6-2.3c.2-.8.5-1.5.7-2.2.2-.7.5-1.4.8-1.9.3-.6.5-1 .7-1.3.2-.3.4-.5.6-.5.1 0 .2.1.3.2.1.1.2.5.3 1 .1.4.2.9.3 1.6.1.7.3 1.4.4 2.2.1.8.3 1.6.4 2.3.1.8.2 1.4.4 1.9-.5 0-1 .1-1.5.2zM264.6 121.3h.4c.5.1.9.1 1.4.3.5.1 1 .2 1.4.3 1.8.2 3.2.5 4.4.9 1.2.4 2.1.9 2.9 1.4.8.5 1.2 1 1.5 1.6.3.6.5 1 .5 1.5s-.1.8-.4 1c-.3.2-.5.3-.8.4-.1-.1-.1-.1-.1-.2v-.2c0-.1 0-.1-.1-.2s-.1-.1-.3-.1c-.2 0-.3.1-.5.2-.1.1-.2.3-.2.5s.1.4.4.5c.2.1.5.2.7.2.4 0 .9-.2 1.2-.5.3-.3.7-.7.9-1.1.3-.5.5-.9.6-1.5.1-.5.2-1 .2-1.4v-.2c.2-.2.3-.5.4-.8.1-.3.2-.6.2-.8 0-.4-.2-.7-.6-1-.4-.3-1-.5-1.7-.7-.7-.2-1.4-.4-2.3-.5l-2.4-.3c-.8-.1-1.5-.2-2.2-.2-.7-.1-1.2-.1-1.5-.2.9-.5 1.7-1.1 2.5-1.9.8-.8 1.5-1.6 2.1-2.6.6-1 1.1-2 1.5-3.1.4-1.1.6-2.3.6-3.4 0-1.6-.3-3.1-.8-4.4-.6-1.3-1.3-2.4-2.2-3.3-.9-.9-2-1.6-3.3-2.1-1.3-.5-2.6-.8-4-.8-1.5 0-3 .3-4.5.9-1.4.6-2.7 1.5-3.8 2.5-1.1 1.1-2 2.3-2.7 3.7-.7 1.4-1 2.9-1 4.5 0 1.7.3 3.2.8 4.5.5 1.4 1.3 2.6 2.3 3.6 1 1 2.1 1.8 3.5 2.3 1.3.6 2.8.8 4.4.8.3-.1.5-.1.6-.1zm-4.1-3.6c-.7-.8-1.4-1.9-1.9-3.3-.5-1.3-.8-3-.8-4.9 0-1.6.2-3 .5-4.3.3-1.2.7-2.3 1.3-3.1.6-.8 1.2-1.4 1.9-1.9.7-.4 1.5-.6 2.4-.6 1 0 1.9.2 2.8.7.9.5 1.6 1.2 2.2 2.1.6.9 1.1 2.1 1.5 3.4.4 1.3.6 2.9.6 4.7 0 1.5-.2 2.8-.5 4-.3 1.2-.8 2.2-1.3 3-.6.8-1.2 1.4-1.9 1.9-.7.4-1.5.7-2.3.7-.6 0-1.3-.2-2.1-.6-.9-.4-1.7-1-2.4-1.8zM298.3 104.1c.1-1.1.2-2 .3-2.7.1-.7.2-1.2.3-1.5.2-.1.4-.2.6-.2h1.5c.2 0 .3-.2.3-.5 0-.2-.1-.4-.3-.4-.7 0-1.3.1-2 .1h-2c-.9 0-1.8 0-2.9-.1-1.1-.1-2-.1-2.9-.1-.1 0-.2.1-.3.2-.1.1-.1.2-.1.3 0 .1 0 .3.1.4 0 .1.1.2.3.2h1.8c.3 0 .7 0 .9.1.3.1.4.1.4.2.2.3.3 1 .3 2.1s.1 2.8.1 4.8c0 2.6-.1 4.9-.3 6.7-.2 1.8-.7 3.1-1.5 4-.4.4-.9.8-1.7 1.2-.8.4-1.7.6-2.7.6-1 0-2-.2-2.8-.7-.8-.5-1.6-1.1-2.2-2-.6-.9-1.1-2-1.4-3.3-.3-1.3-.5-2.8-.5-4.4 0-1.4.2-2.7.5-3.8.3-1.1.7-2.1 1.1-3 .4-.8.8-1.5 1.3-2 .4-.5.8-.8 1.1-.9v-.6c-.4 0-.7.1-.9.1h-2.5c-.6 0-1.1-.1-1.7-.1-.6 0-1.1-.1-1.5-.1-.4 0-.8-.1-.9-.1-.2 0-.4-.1-.5 0-.1 0-.2.1-.3.3-.1.2-.2.4-.2.6 0 .2-.1.4-.1.7 0 .3-.1.5-.1.8v.7h.2c.1 0 .2 0 .2-.1.1-.3.3-.5.6-.6.3-.2.8-.3 1.2-.4.4-.1 1-.2 1.6-.2.6 0 1.2-.1 1.8-.1-.4.3-.8.9-1.4 1.7-.6.8-1.1 1.7-1.7 2.7-.6 1-1 2.1-1.4 3.3-.4 1.2-.6 2.3-.6 3.3 0 1.6.2 3 .7 4.2.5 1.2 1.1 2.2 1.9 3 .8.8 1.8 1.4 2.9 1.9 1.1.4 2.3.7 3.6.8 1.7 0 3.2-.3 4.4-.8 1.2-.5 2.2-1.2 3-2v1.5c0 .4.1.6.1.8 0 .2.1.3.2.3h.9c.2 0 .5 0 .8-.1.3 0 .6 0 .8-.1.3 0 .5-.1.7-.1.2.2.5.5 1 .8.5.3 1.1.4 1.7.4.6 0 .8-.2.8-.6 0-.1-.1-.1-.2-.1h-.4c-.3 0-.5 0-.8-.1-.2-.1-.4-.2-.7-.3-.2-.1-.3-.3-.5-.6-.1-.3-.2-.7-.3-1.3-.1-.6-.1-1.5-.2-2.5v-4.2c0-1.6 0-3 .1-4.4.3-1.5.4-2.7.4-3.7zM314.4 98.8c-1.6 0-3.2.2-4.7.7-1.5.5-2.8 1.2-4 2.2-1.2 1-2.1 2.2-2.7 3.8-.7 1.5-1 3.3-1 5.4 0 1.5.2 2.9.7 4.1.5 1.3 1.2 2.3 2.1 3.2.9.9 2.1 1.6 3.5 2.1s2.9.8 4.7.8h1.6c.6 0 1.2-.1 1.8-.1.6-.1 1.1-.1 1.7-.1h1.2c.4 0 .6.2.7.5.1.3.2.6.2.9 0 .2.1.3.3.3.2 0 .3 0 .5-.1-.1-.3-.2-.8-.2-1.3s-.1-1-.1-1.6c0-.7.1-1.2.2-1.7.1-.3.1-.5.2-.7 0-.1-.1-.2-.2-.2-.1-.1-.2-.1-.3-.1 0 0-.1 0-.1.1-.1.3-.3.6-.7 1-.3.4-.7.7-1.2 1.1-.5.3-1.1.6-1.9.9-.7.2-1.6.4-2.5.4-1 0-1.9-.2-2.6-.5-.7-.3-1.4-.7-2-1.2-.6-.5-1-1.1-1.4-1.8-.4-.7-.7-1.4-.9-2.1-.2-.7-.4-1.4-.5-2.1-.1-.7-.1-1.4-.1-2 .3 0 .9 0 1.8-.1h5.5c.7 0 1.2.1 1.7.2s.9.2 1.2.4c.3.2.5.4.6.8 0 .1.2.3.4.3.2.1.3 0 .4-.2 0-.5 0-1 .1-1.5s.2-.9.3-1.3c.1-.4.2-.7.3-1 .1-.3.2-.5.2-.7-.1-.1-.2-.1-.3-.2-.2 0-.3 0-.4.2-.2.2-.4.3-.8.5-.4.1-.8.3-1.4.4-.5.1-1.1.2-1.7.3-.6.1-1.3.1-1.9.1h-3.1c-.6 0-1.2-.1-1.7-.1s-.9-.1-1-.1c.1-1.1.3-2.1.6-3.1s.8-1.9 1.3-2.7c.6-.8 1.2-1.4 2-1.9s1.6-.7 2.5-.7c.8 0 1.6.1 2.2.3.7.2 1.2.5 1.7.8.5.3.8.7 1.1 1 .3.4.5.7.6 1 .1.3.2.4.4.4s.3-.1.4-.2c.1-.6.2-1.2.3-1.7.1-.5.2-.9.3-1.1.2-.9.5-1.6.8-2.3.3-.6.7-1.1 1.2-1.5.3-.2.4-.4.2-.5-.2-.1-.4-.2-.7-.3-.3 0-.5.2-.7.6-.2.4-.4.8-.5 1.2-.2.4-.3.8-.4 1.2-.1.4-.2.5-.3.5-.2 0-.4-.1-.8-.1-.4-.1-.8-.1-1.3-.2s-1.1-.1-1.6-.1c-.8-.5-1.3-.5-1.8-.5z"/><path d="M328.1 102.8c-.6.5-1.1 1-1.7 1.6-.6.6-1.1 1.3-1.6 2.1s-.9 1.6-1.2 2.5c-.3.9-.5 1.9-.5 2.9 0 1.3.2 2.6.7 3.7.4 1.1 1.1 2.1 1.9 2.9.8.8 1.9 1.5 3.1 1.9 1.2.5 2.6.7 4.2.7s3-.3 4.4-.8c1.4-.6 2.5-1.2 3.5-2.1 1-.9 1.8-1.8 2.4-2.8.6-1 .9-2 .9-2.9 0-.6-.2-1.1-.5-1.6s-.8-.9-1.3-1.2c-.5-.3-1.2-.6-2-.8-.8-.2-1.6-.3-2.5-.3-1 0-2 .1-2.9.3-.9.2-1.7.4-2.3.7-.6.3-1.1.6-1.5 1-.4.4-.6.7-.6 1.1 0 .6.3 1.1.8 1.5.5.4 1.2.6 2 .6.7 0 1.2-.1 1.7-.2s.8-.3.9-.4c.1-.1.1-.1.1-.2 0-.2-.1-.2-.3-.2-.4 0-.7-.1-.9-.4-.2-.3-.3-.6-.3-1s.2-.8.5-1.2c.3-.4.9-.6 1.8-.6.6 0 1 .1 1.5.4.4.2.8.6 1 .9.3.4.5.9.6 1.4.1.5.2 1 .2 1.6 0 .8-.1 1.5-.4 2.3-.3.7-.6 1.4-1.1 2-.5.6-1.1 1-1.8 1.4-.7.4-1.6.5-2.5.5-1 0-1.9-.2-2.7-.7-.8-.5-1.5-1.1-2-2-.6-.8-1-1.8-1.3-2.9-.3-1.1-.4-2.3-.4-3.7 0-1.5.2-2.9.6-4.1.4-1.2.9-2.2 1.5-3 .6-.8 1.3-1.4 2.1-1.9.8-.4 1.5-.7 2.3-.7h2c.8 0 1.6 0 2.3.1.8 0 1.4.1 2 .2.6.1.9.3 1 .5v1c0 .1.1.2.3.2h.4c0-.1 0-.3.1-.6s.2-.7.3-1.1c.1-.4.3-.8.4-1.3.1-.4.3-.8.4-1.2.1-.4.2-.7.3-1 .1-.3.2-.4.2-.5 0-.1-.1-.2-.3-.2-.2 0-.3.1-.3.2-.1.2-.2.4-.5.6-.2.2-.7.4-1.3.6-.7.2-1.6.3-2.8.4-1.2.1-2.9.2-4.9.2h-3.8c-1.2 0-2.2 0-3.1-.1-.9-.1-1.6-.2-2.2-.3-.2-.1-.3-.2-.3-.4 0-.1 0-.3.1-.6-.1 0-.2-.1-.2-.1-.1 0-.2 0-.3.1-.1.1-.2.5-.3.9-.2.5-.3 1-.6 1.6-.2.6-.4 1.1-.6 1.7-.2.5-.4.9-.6 1.2.1.2.1.3.2.4.1.1.2.1.4.1.1-.3.2-.6.4-.8.1-.3.3-.5.6-.6.2-.2.6-.3 1.1-.4.6-.1 1.2-.2 1.9-.3.7-.1 1.5-.1 2.3-.2.8 0 1.5-.1 2.2-.1-.2.1-.6.2-1 .5-1.1.2-1.6.5-2.2 1zM188.2 152.5c-.1.1-.2.2-.4.3-.2.1-.4.1-.7.1-.6 0-1-.1-1.2-.4-.3-.3-.4-.6-.4-1 0-.6.1-1.3.4-1.9.3-.7.6-1.3 1-2s.8-1.4 1.3-2.1c.5-.7.9-1.5 1.3-2.3.4-.8.7-1.6 1-2.5.3-.9.4-1.8.4-2.7 0-.9-.2-1.7-.6-2.4-.4-.7-.9-1.4-1.5-1.9-.6-.6-1.3-1-2.1-1.3-.8-.3-1.6-.5-2.5-.5-.9 0-1.8.2-2.7.5-.9.4-1.7.8-2.5 1.2-.8.5-1.4.9-2 1.4-.6.4-.9.8-1.1 1 0-1.6 0-2.9.1-3.7 0-.8.2-1.5.3-1.9.1-.3.5-.5 1.1-.7.6-.2 1.5-.2 2.5-.2h3.8c.6 0 1.1 0 1.7.1h1.3c.3 0 .5-.1.8-.2.3-.2.6-.4.8-.6.3-.2.5-.5.6-.7.2-.2.3-.4.3-.6 0-.1 0-.2-.1-.3-.1-.1-.2 0-.4 0-1.8.5-3.8.9-6.2 1.2-2.4.3-5.1.4-8.2.4h-4.9c-.1 0-.2.1-.2.2v.5s0 .1.1.1h1.6c.3 0 .5.1.7.2.2.1.3.5.4 1.2.1.7.1 1.6.2 2.9v5.4c0 1.1 0 2.3-.1 3.5-.1 1.2-.1 2.3-.2 3.3s-.2 1.8-.4 2.5c-.1.7-.3 1.1-.4 1.2-.1.1-.4.2-.8.2-.4.1-.8.1-1.2.1-.1 0-.1 0-.2.1s-.1.2-.1.3v.3c0 .1.1.1.1.1.1 0 .4 0 .8-.1h8.4c.2 0 .4-.1.4-.4 0-.3-.1-.4-.3-.4-.3 0-.7 0-1.1-.1-.4 0-.7-.2-.8-.4-.1-.2-.2-.8-.3-1.6-.1-.9-.1-1.8-.1-2.9v-6.3c0-.7.2-1.3.6-1.9.4-.6.9-1.1 1.5-1.5.6-.4 1.1-.7 1.8-1 .7-.3 1.1-.4 1.6-.4 1.6 0 2.9.6 4 1.8 1 1.2 1.5 3 1.5 5.3 0 1.5-.1 2.7-.3 3.8-.2 1.1-.5 2-.8 2.8-.3.8-.7 1.5-1.1 2-.4.5-.7 1-1.1 1.4-.3.4-.6.7-.8 1-.2.3-.3.6-.3.9 0 .1 0 .3.1.5s.2.4.4.6c.2.2.4.4.7.5.3.1.6.2 1 .2.5 0 1-.1 1.4-.2.4-.1.8-.3 1.2-.5.4-.2.6-.4.8-.6.2-.2.4-.4.4-.6v-.3c-.2.1-.2 0-.3 0z"/><path d="M227.6 149c.1-.3.3-.6.5-.9.2-.3.4-.5.5-.6.1-.1.1-.1.1-.3 0-.2-.1-.2-.1-.3-.1-.1-.2-.1-.3-.2-.1 0-.2 0-.3.1-.3.3-.7.6-1.2.8-.5.2-1 .4-1.5.5-.5.1-1.1.2-1.6.3-.5.1-1 .2-1.5.2-.2 0-.4.1-.7.1-.3 0-.5.1-.8.1-.3 0-.5.1-.8.1h-1c-.1-.1-.2-.8-.3-2-.1-1.2-.1-2.7-.1-4.6v-3.8c0-1.4.1-2.7.1-3.9.1-1.2.1-2.3.2-3.2.1-.9.2-1.5.3-1.7.2-.1.5-.2.9-.3.5-.1.9-.2 1.4-.3.5-.1.9-.2 1.3-.3.4-.1.6-.3.6-.5 0-.4-.1-.6-.3-.6-.2.1-.4.2-.9.3-.4.1-.9.2-1.5.3-.6.1-1.3.2-2.1.3-.8.1-1.6.1-2.5.2h-1.8c-.8 0-1.4-.1-1.9-.1-.5-.1-.8-.1-1-.1-.2 0-.3.1-.3.2s-.1.2-.1.4c0 .1.1.2.2.3.1.1.5.1 1 .2l2.2.1c.1.2.1.4.2.7.1.3.1.8.2 1.5 0 .7.1 1.6.1 2.8v4.4c0 1.3 0 2.6-.1 3.8 0 1.2-.1 2.2-.2 3.2-.1.9-.1 1.7-.2 2.3-.1.6-.2 1-.3 1.2-.1.1-.2.2-.5.3-.3.1-.6.2-1 .3-.4.1-.8.1-1.2.2h-.9c0-.1-.1-.2-.2-.2h-1.5c-.1 0-.2 0-.3-.1-.2-.4-.4-1.1-.7-2.1-.3-1-.5-2.2-.8-3.5-.3-1.3-.6-2.8-.9-4.3-.3-1.5-.6-3-.8-4.3-.2-1.3-.4-2.6-.6-3.7-.2-1.1-.2-1.9-.2-2.3 0-.2.1-.3.2-.3.7 0 1.2-.1 1.8-.1.5 0 1-.1 1.3-.1.4-.1.7-.1.9-.2.2-.1.3-.3.3-.5 0-.1 0-.2-.1-.3-.1-.1-.1-.1-.2-.1-.1.1-.4.1-.8.2-.5.1-1.1.1-1.8.2s-1.5.1-2.3.2c-.8 0-1.7.1-2.5.1h-1.5c-.7 0-1.5-.1-2.4-.2-.9-.1-1.8-.2-2.8-.3-1-.1-1.8-.3-2.7-.5-.2.1-.2.2-.2.4s0 .3.1.5.1.3.2.3c.4.1.9.2 1.6.2.7.1 1.3.1 2 .2.7 0 1.4.1 2 .1h1.4l-2.7 1.4c-.2 1.4-.5 2.9-.8 4.4-.3 1.5-.6 3-1 4.4-.3 1.4-.7 2.7-1 3.8-.3 1.2-.7 2.1-.9 2.8-.4 1-.8 1.8-1.1 2.4-.3.6-.7 1-1.1 1.2-.4.2-.7.4-.9.5-.1 0-.2.1-.2.2v.2c0 .1.1.1.1.1h.2c.1 0 .2 0 .4-.1s.4 0 .8-.1h2.4c.4 0 .8 0 1.2.1.4 0 .7.1.9.1h.5c.5 0 .9-.1 1.1-.3.2-.2.5-.4.7-.5.1-.1.3-.2.4-.3.1-.1.1-.2.1-.2 0-.1-.1-.1-.2-.1h-1.4c-.5 0-1-.2-1.3-.6-.4-.4-.5-1-.5-1.8 0-.4 0-.9.1-1.4l.3-1.5c.1-.5.2-1 .4-1.5.1-.5.2-1 .3-1.4.4-.2.9-.3 1.5-.3.6-.1 1.3-.1 2-.1.6 0 1.2 0 1.8.1.6 0 1 .1 1.4.2.2.8.3 1.7.5 2.7.2 1 .3 1.9.5 2.7.2.8.3 1.6.4 2.2.1.6.2 1 .2 1.1 0 .1-.2.2-.5.2h-.7c-.1 0-.1 0-.2.1v.3c0 .1 0 .2.1.3.1.1.1.1.2.1h.5c.2 0 .5 0 .8-.1.3 0 .6 0 .9-.1h4.9v.1c0 .2.1.4.4.4.3 0 .7 0 1.3-.1.5-.1 1.2-.2 2-.3.8-.1 1.8-.2 2.9-.3 1.1-.1 2.6-.1 4.2-.1h1.9c.6 0 1.1 0 1.5.1.5 0 .9.1 1.3.1.4.1.8.1 1.1.2.1 0 .3.1.4.2.1.1.3.2.3.2-.2.1-.2.2-.2.4s.1.3.2.3h.2c.2 0 .3-.1.3-.2s.1-.2.1-.3c0-.3-.1-.5-.3-.7-.2-.2-.4-.3-.5-.4 0-.1.1-.4.2-.7.1-.3.1-.5.3-.9zm-26.9-9.5c-.6.1-1.1.2-1.7.3-.6.1-1.1.2-1.6.3-.5.1-.9.2-1.2.3.1-.6.3-1.3.5-2.1s.4-1.5.6-2.3c.2-.8.5-1.5.7-2.2.2-.7.5-1.4.8-1.9.3-.6.5-1 .7-1.3.2-.3.4-.5.6-.5.1 0 .2.1.3.2.1.1.2.5.3 1 .1.4.2.9.3 1.6.1.7.3 1.4.4 2.2.1.8.3 1.6.4 2.3.1.8.2 1.4.4 1.9-.4 0-.9.1-1.5.2z"/><path d="M246.4 146.7c-.1 0-.2 0-.3.1-.3.3-.7.6-1.2.8-.5.2-1 .4-1.5.5-.5.1-1.1.2-1.6.3-.5.1-1 .2-1.5.2-.2 0-.4.1-.7.1-.3 0-.5.1-.8.1-.3 0-.5.1-.8.1h-1c-.1-.1-.2-.8-.3-2-.1-1.2-.1-2.7-.1-4.6v-3.8c0-1.4.1-2.7.1-3.9.1-1.2.1-2.3.2-3.2.1-.9.2-1.5.3-1.7.2-.1.5-.2.9-.3.5-.1.9-.2 1.4-.3.5-.1.9-.2 1.3-.3.4-.1.6-.3.6-.5 0-.4-.1-.6-.3-.6-.2.1-.4.2-.9.3-.4.1-.9.2-1.5.3-.6.1-1.3.2-2.1.3-.8.1-1.6.1-2.5.2h-1.8c-.8 0-1.4-.1-1.9-.1-.5-.1-.8-.1-1-.1-.2 0-.3.1-.3.2s-.1.2-.1.4c0 .1.1.2.2.3.1.1.5.1 1 .2l2.2.1c.1.2.1.4.2.7.1.3.1.8.2 1.5 0 .7.1 1.6.1 2.8v4.4c0 1.3 0 2.6-.1 3.8 0 1.2-.1 2.2-.2 3.2-.1.9-.1 1.7-.2 2.3-.1.6-.2 1-.3 1.2-.1.1-.2.2-.5.3-.3.1-.6.2-1 .3-.4.1-.8.1-1.2.2-.4 0-.7.1-1 0-.2 0-.4.1-.4.2s-.1.3-.1.5.1.4.4.4c.3 0 .7 0 1.3-.1.5-.1 1.2-.2 2-.3.8-.1 1.8-.2 2.9-.3 1.1-.1 2.6-.1 4.2-.1h1.9c.6 0 1.1 0 1.5.1.5 0 .9.1 1.3.1.4.1.8.1 1.1.2.1 0 .3.1.4.2.1.1.3.2.3.2-.2.1-.2.2-.2.4s.1.3.2.3h.2c.2 0 .3-.1.3-.2s.1-.2.1-.3c0-.3-.1-.5-.3-.7-.2-.2-.4-.3-.5-.4 0-.1.1-.4.2-.7.1-.3.2-.6.4-.9.1-.3.3-.6.5-.9.2-.3.4-.5.5-.6.1-.1.1-.1.1-.3 0-.2-.1-.2-.1-.3 0-.2-.1-.2-.2-.3zM150.4 138.3c-2.1-1-4.5.2-6.7.6-2.9.6-5.9-.1-8.8-.1-6.5.1-12.3 3.4-18.3 6-1.6.7-3.2 1.3-4.8 1.8-1.5.5-3.1 1-4.7 1.3-1.9.3-3.9.6-5.8.6-1.7 0-3.4-.4-4.9-1.2-1.4-.8-2.6-2-3.8-3-.4-.4-.9-.7-1.4-.9-.6-.2-1.2-.3-1.8-.3-.6 0-1.2 0-1.8.2-1 .3-1.8 1.2-2.3 2.1-.9 2-.5 4.2 1.2 5.6.2.1.4.3.5.5.1.2.2.4.2.7-.1.4-.7.5-1.1.5-1.9-.1-3.8-.6-5.6-1.2-2.6-.8-4.8-2-7.1-3.3-4.1-2.7-7.3-6.9-8.1-11.7-.4-2.8 0-5.8-1.4-8.2-1.9-3.5-7.3-4.4-10.2-1.7-1.7 1.6-2.5 4.1-2.6 6.5-.4 8 5.2 15.3 12.2 19.1 7 3.8 15.2 4.8 23.1 5.5 6.8.6 13.9.9 20.3-1.5 3.4-1.3 6.4-3.3 9.5-5.2 6.7-4 13.9-7.1 21.4-9.3 2.1-.6 4.5-1.1 6.3.1 1.2.8 1.8 2.2 3 2.9 1.6 1 4.1.4 5-1.3 1-1.9.3-4.3-1.5-5.1zM361 126.6c-2.9-2.7-8.3-1.8-10.2 1.7-1.3 2.5-.9 5.5-1.4 8.2-.7 4.8-4 9-8.1 11.7-2.3 1.3-4.6 2.5-7.1 3.3-1.8.6-3.8 1.1-5.6 1.2-.4 0-.9-.1-1.1-.5-.1-.2 0-.5.2-.7.1-.2.3-.3.5-.5 1.7-1.3 2.1-3.6 1.2-5.6-.4-1-1.3-1.8-2.3-2.1-.6-.2-1.2-.2-1.8-.2-.6 0-1.2.1-1.8.3-.5.2-1 .6-1.4.9-1.2 1-2.4 2.2-3.8 3-1.5.8-3.2 1.1-4.9 1.2-1.9 0-3.9-.3-5.8-.6-1.6-.3-3.1-.8-4.7-1.3-1.7-.5-3.3-1.1-4.8-1.8-5.9-2.6-11.8-5.9-18.3-6-3 0-5.9.6-8.8.1-2.3-.4-4.6-1.6-6.7-.6-1.7.8-2.5 3.2-1.6 4.9.9 1.7 3.4 2.3 5 1.3 1.2-.7 1.9-2.1 3-2.9 1.8-1.2 4.2-.7 6.3-.1 7.5 2.2 14.7 5.3 21.4 9.3 3.1 1.8 6.1 3.9 9.5 5.2 6.4 2.5 13.5 2.1 20.3 1.5 8-.7 16.1-1.6 23.1-5.5 7-3.8 12.7-11.1 12.2-19.1-.1-2.3-.8-4.7-2.5-6.3z"/></g></svg>