<svg viewBox="0 0 289 49" xmlns="http://www.w3.org/2000/svg"><title>Chef Mickey</title><g fill="#fff" fill-rule="evenodd"><path d="M46 13.8c.8-.1 1.5-.1 2.3-.2 1.1 0 1.4.2 1.6 1.3.3 1.6.5 3.2.7 4.9.7 5.6 1.4 11.2 2.1 16.9v.3c.2 2 .1 2.1-1.8 2.6-1.2.3-2.3.6-3.5.9-1.9.4-2.1.3-2.6-1.6-.4-1.7-.8-3.5-1.2-5.2-.1-.4-.2-.8-.3-1.3-.2-.7-.6-1-1.3-.9-1.8.3-3.6.5-5.5.8-.7.1-1 .5-.9 1.2.2 1.6.3 3.3.4 4.9.1.6.1 1.3.2 1.9.1 1.3 0 1.5-1.4 1.8-1.8.4-3.7.8-5.5 1.2-.9.2-1.1 0-1.4-.9-.2-.7-.3-1.4-.4-2.1l-2.7-21c-.3-2.3-.2-2.4 2.1-2.9 1.4-.3 2.7-.6 4.1-.8 1.2-.2 1.4 0 1.7 1.2.5 2.2 1 4.4 1.5 6.7.3 1.3.4 1.4 1.6 1.2 1.5-.2 3.1-.4 4.6-.6 1-.1 1.2-.3 1.1-1.3-.1-2-.3-4.1-.4-6.1v-.3c-.2-1.8 0-2.1 1.8-2.3 1.2-.3 2.2-.3 3.1-.3zM125.5 3.6c.2-.6.5-1.6 1.1-1 .8.7 1.3 1.4 1.8 2.1.6 1 1.2 1.8 1.8 2.8 1.2 1.9 2.4 3.8 3.6 5.8.3.5 1.1.5 1.3-.1 0-.1.1-.2.1-.2 2.1-3.5 4.1-7 6.1-10.5.3-.5.5-.9.9-1.3.5-.6.9-.6 1.2.1.2.3.3.7.4 1.1 2.1 6.4 3.9 13 5.7 19.5.4 1.4.8 2.7 1.1 4.1.3 1.2.2 1.4-.9 1.7-1.9.4-3.9.9-5.8 1.2-1 .2-1.3 0-1.6-1-.6-1.5-1.1-3.1-1.7-4.6-.2-.5-.4-1.1-.6-1.6-.1-.2-.2-.6-.5-.6s-.5.6-.6.7l-1.2 2.1c-.5.8-.8 1.3-1.3 2.1-.3.5-.9 1.7-1.5 1.9-.6.2-1-.6-1.3-1-1.2-1.8-2.4-3.6-3.6-5.5-.1-.2-.3-.4-.6-.5-.5.4-.5 1-.7 1.6-.6 1.9-1.1 3.8-1.7 5.7-.4 1.3-.5 1.4-1.8 1.3-1.5-.1-3.1-.3-4.6-.4-.8-.1-1.5-.5-1.3-1.3 4.6-17.1 6.2-24.2 6.2-24.2zM192.7 18.1c0-3.7.1-7.5.1-11.2V5.7c0-.6.3-.9.9-.9 2.1.1 4.2.2 6.2.4.6.1 1 .5 1.1 1.2 0 1.1.1 2.1.2 3.2 0 .6 0 1.3.1 1.9 0 .3 0 .6.3.8.4.2.6-.2.8-.4 1.6-1.8 3.3-3.7 4.9-5.5.1-.1.1-.2.2-.2 1.5-1.8 1.6-1.8 3.8-.9 1.1.5 2.1.9 3.2 1.4 1 .5 1.1.8.4 1.7-.9 1.2-1.9 2.3-2.8 3.5-1.3 1.5-2.5 3.1-3.8 4.6-.9 1.1-.9 1.2.1 2.3 2.3 2.4 4.6 4.9 6.8 7.3.6.6 1.2 1.3 1.7 2 .4.4.4.9-.1 1.2-1.6 1.2-3.3 2.2-5 3.2-.6.4-1.2.2-1.7-.2-.6-.5-1.1-1.1-1.6-1.6-1.7-1.8-3.5-3.6-5.2-5.4l-.6-.6c-.4-.3-.7-.8-1.2-.6-.5.2-.3.8-.3 1.2-.2 2-.3 4.1-.5 6.1-.2 1.6-.4 1.8-2 1.6-1.4-.2-2.8-.4-4.2-.7-1.6-.3-1.9-.6-1.9-2.2 0-4.1.1-8.1.1-12zM239.5 14.7c-1.7-.2-3.5-.4-5.2-.6-.4 0-.9-.1-1.3-.1-.6 0-.9.2-1.1.7-.3 1.2-.6 2.4-.9 3.7-.2.8 0 1 .9 1.1 1.8.2 3.6.4 5.5.6 1.5.1 1.8.4 1.5 1.9-.1.9-.3 1.7-.4 2.6-.2 1.3-.4 1.4-1.7 1.3-1.9-.2-3.7-.5-5.6-.7-1.2-.2-1.2-.2-1.5 1-.6 3.1-.6 3.1 2.4 3.6 1.7.3 3.4.6 5.1 1 1.4.3 1.5.5 1.3 1.9-.1 1-.2 1.9-.4 2.9-.2 1.2-.3 1.3-1.5 1.2-1.7-.2-3.5-.4-5.2-.6-3.5-.5-7.1-1-10.6-1.5-1.4-.2-1.6-.5-1.4-1.8.7-4.7 1.5-9.3 2.3-14 .5-3.2 1.2-6.4 1.7-9.7.4-2.3.5-2.4 2.7-2l14.1 2.1c2.3.4 2.3.4 2 2.6-.1.6-.2 1.2-.3 1.9-.2 1.2-.3 1.2-1.4 1.1-.3-.2-.6-.2-1-.2zM61.2 36.1c-.8.1-1.2-.2-1.4-.7-.1-.3-.3-.6-.4-1l-6.3-22.2c-.6-2.3-.6-2.3 1.8-2.9 4.4-1.2 8.8-2.2 13.3-3.2 1.6-.4 1.8-.2 2.3 1.3.2.6.4 1.3.6 2 .4 1.7.4 1.8-1.3 2.4-1.7.5-3.4 1-5.2 1.5-2.6.7-2.1.8-1.5 2.7.2.7.4 1.3.6 1.9.2.7.6.8 1.2.7 1.6-.4 3.2-.8 4.8-1.1 2.1-.5 2.3-.4 2.8 1.7v.1c.5 1.9.3 2.1-1.5 2.7-1.4.4-2.9.8-4.3 1.3-1.3.4-1.3.4-1 1.7l.6 2.4c.3 1 .4 1.1 1.5.8 1.5-.4 3.1-.9 4.6-1.3l2.4-.6c.7-.1 1.1.1 1.3.8.4 1.2.7 2.3 1 3.5.2.9.1 1.1-.8 1.4-1.9.6-3.7 1.1-5.6 1.6-2.9.8-5.8 1.6-8.7 2.3-.4.1-.7.2-.8.2zM185.7 5.5c-.1 1.2-.3 2.4-.4 3.5-.2 1.3-.4 1.5-1.6 1.5-2 .1-3.9.5-5.7 1.5-2.7 1.6-3.8 4.2-3 7 .7 2.3 2.8 4.1 5.2 4.2 1.9.1 3.7-.2 5.4-.8 1.6-.5 1.6-.5 2.4.9.7 1.4 1.4 2.9 2.1 4.3.4 1 .4 1.1-.6 1.6-3.8 1.9-7.8 2.6-12 1.6-5.1-1.3-10.7-5.5-11.3-11.9-.5-4.6 1.1-8.6 4.4-11.8 3.8-3.7 8.4-4.4 13.4-4.3.2 0 .4 0 .6.1 1.2.2 1.3.4 1.3 1.5-.2.5-.2.8-.2 1.1zM14.2 48.1c-4.7-.1-8.5-2-11.3-5.6C-.3 38.4-.9 33.8 1.4 29c3.2-6.7 10.6-10.2 17.8-8.8.1 0 .3 0 .4.1 1.7.4 1.9.7 1.3 2.4-.4 1.2-.9 2.5-1.4 3.7-.5 1.3-.7 1.5-2 1.2-1.1-.2-2.1-.1-3.2.1-3.6.7-6 3.8-5.8 7.5.2 2.4 2.4 4.5 5.1 4.8 1.5.1 3 0 4.5-.4 1.3-.3 1.5-.2 2 1 .6 1.4 1.1 2.8 1.5 4.2.3 1 .2 1.2-.8 1.7-2 1.1-4.2 1.6-6.6 1.6zM246.7 11.9c1.7.1 3.2.2 4.8.4 1.4.1 1.6.3 2 1.7.5 2 1 3.9 1.5 5.9.1.2.1.5.2.7.2.6.5.7.9.3 1.2-1 2.5-2 3.7-3.1 1.1-.9 2.2-1.9 3.3-2.9.6-.5 1.2-.7 1.9-.2 1.3 1 2.7 1.8 4 2.8 1 .8 1 1.1.1 1.9-2 1.8-4 3.5-6 5.2-1.8 1.5-3.6 3.1-5.4 4.6-.9.7-1.3 1.6-1.6 2.5-.8 2.5-1.6 5.1-2.4 7.6-.5 1.4-.6 1.5-2 1.1-1.6-.4-3.1-.7-4.7-1.1-1.1-.3-1.3-.5-1-1.7.4-1.8.9-3.7 1.3-5.5l.9-3.3c.3-1.1.3-2.2 0-3.3-1-3.9-2-7.9-3-11.8-.1-.3-.1-.7-.2-1-.2-.7.1-1 .8-1.1.3.3.7.3.9.3zM96.3 17c0 1.5 0 1.6-1.3 1.9-1.5.3-3.1.5-4.6.8-1.6.3-1.7.3-1.7 1.9 0 2.4.1 4.7.1 7.1 0 1.6-.2 1.7-1.7 1.9-1.5.2-3.1.3-4.6.5-1.7.2-2-.1-2.2-1.7l-.6-8.1c-.3-4.1-.6-8.2-.8-12.3-.1-1.1-.1-2.2-.1-3.3 0-1.1.1-1.2 1.2-1.4 1.9-.3 3.8-.5 5.8-.7 2.9-.3 5.9-.6 8.8-.9.4 0 .8-.1 1.2-.1.6 0 1 .3 1.1 1 .2 1 .4 2 .4 3s-.1 1.2-1.1 1.4c-2.3.5-4.5 1-6.8 1.5-1.3.3-1.3.3-1.3 1.6 0 .8.1 1.6.2 2.5.2 1.2.2 1.3 1.4 1.2 1.2-.2 2.5-.4 3.7-.5.5-.1 1-.1 1.4-.1.6 0 1 .3 1.1.9.3.6.4 1.4.4 1.9zM270.9 47.9c-1 0-2.2-.1-3.3-.3-.7-.1-1.1-.5-1.2-1.2-.2-1.6-.4-3.2-.5-4.8-.1-1.2.2-1.5 1.4-1.2.9.2 1.7.3 2.6.2 2.7-.1 4.3-1.7 4.4-4.4.1-1.7-.1-3.3-.5-4.9-.1-.7-.3-1.4-.4-2.1-.3-3.4.9-5.4 4.1-6.9 2.5-1.2 5.2-1.3 8-1.2.5 0 .9.3 1.1.8.6 1.4 1.2 2.9 1.8 4.3.2.5 0 .8-.6.9-.4.1-.9.1-1.3.1-1 0-1.9.2-2.8.6-1.3.6-2.1 1.7-2.3 3.1-.1 1-.1 2 .2 3 .4 1.5.7 2.9 1 4.4.8 3.3-1.1 6.3-3.5 7.6-2.4 1.4-5.2 2.1-8.2 2zM162.3 25.2c0 .8-.1 1.6-.2 2.5-.1 1.4-.2 1.4-1.6 1.4-1.8-.1-3.6-.2-5.4-.4-1-.1-1.2-.3-1.2-1.4v-4.5l.3-18.9v-1c.1-.7.4-1.1 1.1-1.1 2.1 0 4.2 0 6.2.1 1.1.1 1.3.3 1.2 1.5 0 2.3-.1 4.6-.2 6.9 0 1.2-.1 2.3-.1 3.5M272.4 19.2c.1-1.4.5-2.4.8-3.5.2-.8.6-1 1.6-.8 1 .1 1.5.5 1.6 1.2.2 1.2-1.1 4.1-2.2 4.7-.4.3-.8.2-1.2-.1-.6-.5-.7-1.1-.6-1.5z"/></g></svg>