<svg viewBox="0 0 371 287" xmlns="http://www.w3.org/2000/svg"><title>Hoop Dee Doo</title><g fill="#fff" fill-rule="evenodd"><path d="M22.5 207.1c.7-4 1.1-6.8 1.2-8.7.2 2.1.6 4.1 1.2 5.8.5 1.5 1 2 1.5 1.4 1.4-1.7 2.2-2.6 3.6-4.3 0-11.1 0-22.2.1-33.3-1.4 1.3-2.2 2-3.6 3.3V137c4.3-2.9 6.5-4.2 10.8-6.9 0 10.5-.1 21-.1 31.5-1.4 1.3-2.2 1.9-3.6 3.2 0 10.8-.1 21.6-.1 32.4l3.5-4c.6-.6 1.1-2.2 1.5-4.6.8-3.3 1.2-5.9 1.3-7.8.2 1.9.6 3.6 1.2 5.1.5 1.3 1 1.8 1.5 1.2 1.4-1.6 2.2-2.3 3.6-3.8 0-9.8.1-19.5.1-29.3-1.4 1.2-2.2 1.8-3.6 3 0-9.6.1-14.5.1-24.1 0-3.6.3-6.9.9-9.9.7-3.4 1.6-5.7 2.8-6.8-1.1-.3-2-1.9-2.7-4.7-.7-3-.9-6.1-.9-8.9 0-7.2 0-10.8.1-18 1.5-.4 2.2-.6 3.6-.9 0-9.8.1-19.5.1-29.3-1.5 0-2.2 0-3.7.1-.4 0-1 .9-1.5 2.8-.7 2.1-1.1 4.3-1.3 6.5-.2-2.3-.7-4.4-1.3-6.4-.5-1.8-1-2.8-1.5-2.8-1.4 0-2.1 0-3.6.1 0 10.8-.1 21.6-.1 32.3 1.4-.4 2.2-.6 3.6-1 0 10.1 0 15.1-.1 25.2-4.3 2-6.5 3.1-10.8 5.2V89c1.5-.4 2.2-.6 3.6-1 0-11.1 0-22.2.1-33.3-1.5 0-2.2 0-3.7.1-.4 0-.9 1.1-1.5 3.2-.6 2.2-1.1 4.7-1.2 7.4-.1-2-.5-4.4-1.2-7.3-.5-2.1-1.1-3.2-1.6-3.2-1.4 0-2.2.1-3.6.1v36.7c1.5-.4 2.2-.7 3.7-1.1 0 8.5 0 12.8-.1 21.3 0 4.7-.3 8.6-.7 11.5-.7 4.6-1.7 7.6-2.9 8.8 1.2-.3 2.1 1.4 2.9 4.9.5 2.5.7 6 .7 10.7v28.5c-1.5 1.4-2.2 2.1-3.6 3.6v36.7l3.5-4.5c.8-.5 1.3-2.2 1.8-5zM53 118c.5 1.9.7 4.7.7 8.3-.1 11.8-.1 23.6-.2 35.4 0 4.1.5 7.4 1.7 9.7 1.2 2.4 2.4 2.8 3.8 1.5 4.3-4.2 6.5-6.2 10.8-10 1.6-2.1 2.9-4.7 3.8-7.8 1.2-3.9 1.7-7.5 1.7-10.9.1-9.9.1-19.9.2-29.8 0-2.8.3-5.3 1-7.7.7-2.7 1.7-4.4 2.8-5.3-1.1-.2-2-1.4-2.7-3.6-.6-2.2-.9-4.5-.9-6.9.1-10 .1-15 .2-25 0-3.7-.5-6.9-1.6-9.5-1.2-3-2.5-4.5-3.8-4.5H59.7c-1.5 0-2.8 1.8-4 5.2-1 3-1.7 6.9-1.7 11.5-.1 9.9-.1 19.9-.2 29.8 0 3.7-.3 6.6-.8 8.9-.7 3.6-1.7 5.9-3 6.9 1.3-.2 2.2 1 3 3.8zm6.2 4.7c0-3.2.3-6.2.9-8.8.7-3.1 1.7-5.1 2.8-5.9-1-.1-1.9-1.5-2.7-4.2-.6-2.2-.9-4.8-.9-7.6 0-6.3.1-9.4.1-15.6 4.3-1 6.5-1.5 10.9-2.4 0 5.8-.1 8.7-.1 14.5 0 2.9-.3 5.5-.8 7.8-.8 3.2-1.8 5.2-2.9 6 1.2-.2 2.1.9 2.9 3.3.5 1.8.7 4.3.7 7.3-.1 7.8-.1 11.7-.1 19.5-4.4 2.9-6.5 4.4-10.9 7.6 0-8.5.1-12.8.1-21.5zM87.3 144.7c1.2 1.9 2.4 2.3 3.8 1.3 4.4-3.1 6.5-4.6 10.9-7.3 1.6-1.5 2.9-3.5 3.8-5.9 1.2-3 1.7-5.8 1.8-8.5.1-9.3.1-14 .2-23.4 0-2.2.3-4.2 1-6 .7-2.1 1.7-3.4 2.8-4-1.1-.2-2-1.2-2.7-2.9-.6-1.7-.9-3.6-.9-5.4.1-7.8.1-11.8.2-19.6 0-2.9-.5-5.4-1.6-7.5-1.2-2.3-2.5-3.5-3.8-3.5H92c-1.5 0-2.8 1.4-4 4.1-1 2.3-1.7 5.4-1.7 8.9-.1 9.2-.1 13.9-.2 23.1 0 2.8-.3 5.1-.8 6.9-.7 2.8-1.7 4.6-3 5.3 1.2-.2 2.2.8 2.9 2.9.5 1.5.7 3.6.7 6.4-.1 11-.1 16.5-.2 27.5-.1 3.2.5 5.7 1.6 7.6zm4.2-37.8c0-2.5.3-4.8.9-6.8.7-2.4 1.7-4 2.8-4.6-1-.1-1.9-1.2-2.7-3.3-.6-1.7-.9-3.8-.9-5.9 0-4.9.1-7.3.1-12.1 4.3-.7 6.5-1.1 10.9-1.7 0 4.5-.1 6.8-.1 11.3 0 2.3-.3 4.3-.8 6.1-.8 2.5-1.8 4-3 4.6 1.2-.1 2.2.8 2.9 2.7.5 1.4.7 3.3.7 5.7-.1 6.1-.1 9.1-.1 15.2-4.4 2.1-6.6 3.2-10.9 5.6 0-6.7.1-10.1.2-16.8zM123.7 54.9c-.6 1.1-1.1 2.2-1.3 3.5-.1-.9-.5-2.1-1.2-3.5-.5-1-1.1-1.5-1.6-1.5H116c-.1 6.9-.1 10.3-.2 17.2 1.4-.2 2.2-.3 3.6-.4 0 4-.1 6-.1 10 0 2.2-.3 4-.7 5.4-.7 2.2-1.7 3.5-3 4 1.2-.1 2.2.7 2.9 2.4.4 1.2.7 2.9.6 5.1 0 5.4-.1 8.1-.1 13.5-1.4.6-2.2.8-3.6 1.4-.1 6.9-.1 10.3-.2 17.2 1.5-.8 2.2-1.1 3.6-1.8.6-.3 1.1-1.1 1.6-2.3.7-1.8 1.2-3.1 1.3-4 .2 1 .6 2 1.2 2.9.5.7 1 1.1 1.5.8 1.5-.7 2.2-1 3.6-1.6.1-6.4.1-9.5.1-15.9-1.5.5-2.2.7-3.6 1.2.1-6.5.1-9.8.1-16.3 4.8-1.2 7.2-1.8 12-2.7 1.4-.3 2.5-1.1 3.3-2.4.4-.6.7-1.4.9-2.3.2-1 .3-1.9.4-2.8.1-7.6.1-11.3.1-18.9 0-3.2-.6-5.6-1.6-7.3-1-1.7-2.5-2.6-4.4-2.6-4.1 0-6.2 0-10.3.1-.2.1-.7.6-1.3 1.6zM136 68.5c0 4.9-.1 7.3-.1 12.2-4.4.7-6.5 1.1-10.9 1.9 0-5.2.1-7.8.1-13 4.4-.5 6.5-.7 10.9-1.1zM157.5 100.1c0 5.5 0 8.3-.1 13.8 2.2-.5 3.3-.7 5.5-1.1.6-.1 1.1-.7 1.5-1.5.6-1 1.1-2.1 1.3-3 .2 1 .7 1.9 1.2 2.6.5.7 1 1.1 1.5 1 4.4-.6 6.6-.8 11.1-1.1 1.8-.5 3.2-1.3 4-2.4 1.1-1.5 1.6-3.4 1.6-5.5V87.2c0-1.6.3-3 .9-4.1.7-1.3 1.6-2.1 2.8-2.4-1.2-.4-2.1-1.4-2.7-2.7-.6-1.2-.9-2.6-.9-4V61c0-2.2-.5-4.1-1.6-5.6-1.2-1.6-2.5-2.5-3.9-2.5h-10.9c-.5 0-1 .5-1.5 1.3-.6.9-1.1 1.8-1.3 2.8-.2-.9-.7-1.9-1.3-2.8-.5-.8-1-1.3-1.5-1.3h-5.4c0 5.5 0 8.3-.1 13.9 2.2-.1 3.2-.2 5.4-.3v8.1c0 1.8-.3 3.2-.7 4.3-.7 1.7-1.6 2.6-2.9 2.9 1.3 0 2.2.8 2.9 2.3.4 1 .7 2.4.7 4.1 0 4.4 0 6.6-.1 10.9l-5.5 1zm11.2-12.3c0-1.6.4-3.1.9-4.3.6-1.3 1.5-2.2 2.8-2.5-1.1-.3-2-1.2-2.7-2.5-.6-1.3-1-2.6-1-4v-7.9c4.4-.1 6.6-.2 11-.3 0 10.5 0 21-.1 31.5-4.4.2-6.6.4-11 .8.1-4.3.1-6.5.1-10.8zM198.4 109.8c.6-.9 1.1-1.8 1.3-2.6.2 1 .7 2 1.3 2.9.5.8 1 1.3 1.5 1.4 2.9.3 4.4.5 7.3 1 .6.1 1.1-.3 1.6-1 .6-.8 1.1-1.7 1.2-2.6.2 1 .7 2 1.3 3 .5.9 1.1 1.5 1.6 1.6.7.1 1 .2 1.7.4 0-7.7-.1-11.5-.1-19.2-1.5-.2-2.2-.3-3.6-.5v5.4c-4.4-.6-6.6-.9-11-1.3V85c2.2.1 3.3.2 5.5.4v2.7c1.5.1 2.2.2 3.7.4v-2.7c0-.9-.3-1.6-.8-2.3-.9-1.2-1.6-1.8-2-2 .6-.1 1.4-.7 2-1.7.6-.9.8-1.8.8-2.3v-2.6c-1.5-.1-2.2-.1-3.7-.2v2.7c-2.2-.1-3.3-.2-5.6-.3V66.5c4.4.1 6.6.2 11 .4v5.5c1.5.1 2.2.1 3.7.2 0-7.8-.1-11.6-.1-19.4h-1.7c-.5 0-1.1.4-1.6 1.2-.6.9-1 1.9-1.2 2.9-.2-.9-.6-1.8-1.3-2.9-.5-.8-1-1.2-1.6-1.2h-7.2c-.5 0-1 .4-1.5 1.2-.6.8-1.1 1.8-1.2 2.8-.2-.9-.7-1.8-1.3-2.8-.5-.8-1-1.2-1.5-1.2h-5.4v13.1c2.2 0 3.2 0 5.4.1v7.8c0 1.8-.2 3.1-.7 4.1-.6 1.5-1.6 2.4-2.9 2.5 1.2.2 2.2 1 2.9 2.5.5 1 .8 2.4.8 4.1v10.5c-2.2-.1-3.3-.2-5.5-.2v13.1c2.2.1 3.3.1 5.5.3.4-.1.9-.6 1.4-1.3zM230 54.5c-.6.9-1 1.9-1.2 3-.2-1-.7-2-1.3-3.1-.5-.8-1-1.3-1.5-1.3h-5.4c0 5.6.1 8.4.1 14 2.2.1 3.2.2 5.4.3 0 3.4 0 5.1.1 8.5 0 1.9-.2 3.4-.7 4.3-.6 1.6-1.6 2.4-2.9 2.4 1.2.3 2.2 1.4 2.9 3 .5 1.2.8 2.7.8 4.6v11.4c-2.2-.5-3.3-.7-5.5-1.1 0 5.6.1 8.4.1 14 2.2.5 3.3.8 5.5 1.4.6.2 1.1-.2 1.5-.9.5-.8 1.1-1.7 1.3-2.6.2 1.2.7 2.3 1.3 3.4.5 1 1 1.7 1.5 1.8 2.9.9 4.4 1.4 7.3 2.5.6.2 1.1-.2 1.6-.8.6-.8 1.1-1.8 1.2-2.7.2 1.2.7 2.4 1.3 3.7.5 1.1 1.1 1.9 1.6 2.1.7.3 1 .4 1.7.7-.1-8.8-.1-13.3-.2-22.1-1.4-.4-2.2-.6-3.6-1 0 2.4 0 3.7.1 6.1-4.4-1.4-6.6-2-11-3.1 0-5.9-.1-8.8-.1-14.7l5.5 1v3.1c1.5.3 2.2.5 3.7.8v-3.1c0-1-.3-1.9-.8-2.7-1-1.4-1.6-2.2-2-2.4.6-.1 1.4-.7 2-1.7.6-1 .8-2 .8-2.5v-3c-1.5-.2-2.2-.3-3.7-.5v3c-2.2-.3-3.3-.5-5.6-.8 0-4.7-.1-7-.1-11.7 4.4.3 6.6.5 11 1 0 2.5 0 3.8.1 6.3 1.5.2 2.2.3 3.7.5-.1-8.9-.1-13.4-.2-22.3h-1.7c-.5 0-1.1.5-1.6 1.4-.6 1.1-1 2.2-1.2 3.2-.2-1-.6-2.1-1.3-3.3-.5-.9-1-1.4-1.6-1.4h-7.2c-.6 0-1.1.5-1.7 1.3zM294 101c-1.2-1.1-2.1-3-2.7-5.6-.6-2.2-.9-4.5-1-6.9-.1-8.6-.1-12.9-.2-21.5 0-3.7-.6-6.8-1.7-9.3-1.2-2.8-2.6-4.1-3.9-4.1-4.4-.1-6.6-.1-10.9-.1-.5 0-1 .7-1.5 1.8-.6 1.2-1 2.5-1.2 3.9-.2-1.3-.8-2.7-1.4-4-.5-1.1-1-1.8-1.5-1.8-2.2 0-3.2 0-5.4-.1.1 7.1.1 10.7.2 17.8 2.2.3 3.2.4 5.4.7 0 4.4.1 6.6.1 11 0 2.5-.2 4.3-.7 5.5-.6 2-1.6 2.9-2.9 2.8 1.3.6 2.2 2 2.9 4.2.5 1.5.7 3.5.8 5.9.1 5.9.1 8.9.1 14.8-2.2-1-3.3-1.5-5.5-2.4.1 7.1.1 10.6.2 17.7 2.2 1.2 3.3 1.8 5.5 3.1.6.3 1 0 1.5-.8.5-.9 1.1-2 1.3-3.1.2 1.6.7 3.2 1.3 4.6.5 1.4 1 2.4 1.5 2.7 4.4 2.8 6.6 4.2 10.9 7.3 1.8.7 3.1.4 3.9-.8 1-1.7 1.5-4.5 1.5-8-.1-10.4-.1-15.6-.2-26 0-2.7.3-4.8.9-6.4.6-1.9 1.5-3 2.7-2.9zm-19.9 17.7c-.1-6.2-.1-9.3-.1-15.4 0-2.3.3-4.3.9-5.7.6-1.7 1.5-2.6 2.7-2.6-1.1-.9-2-2.5-2.7-4.7-.7-2.1-1-4.1-1-6.1 0-4.5-.1-6.8-.1-11.3 4.4.7 6.6 1 10.9 1.8.1 16.6.3 33.2.4 49.8-4.4-2.5-6.6-3.6-11-5.8zM301.3 56.5c-1 2.5-1.6 5.7-1.6 9.6.1 10.1.1 15.1.2 25.2 0 3.1-.2 5.4-.7 7-.7 2.5-1.7 3.6-2.9 3.4 1.2.7 2.2 2.6 3 5.5.5 2 .8 4.6.8 7.6.1 10 .1 20 .2 30 0 3.5.6 7.1 1.8 11 1.2 4 2.5 6.7 3.9 7.9 4.3 3.8 6.5 5.8 10.8 10 1.6.8 2.9.3 3.7-1.6 1.1-2.4 1.6-5.8 1.6-9.8-.1-11.9-.1-23.7-.2-35.6 0-3.3.3-6 .9-8.2.7-2.5 1.6-3.7 2.7-3.7-1.1-1.3-2-3.7-2.7-7-.7-3.2-.9-6.2-.9-9 0-10-.1-20-.1-29.9 0-4.5-.6-8.4-1.7-11.5-1.3-3.6-2.5-5.3-3.9-5.3h-10.8c-1.7-.2-3 1.5-4.1 4.4zm14.9 24.3c0 6.4.1 9.5.1 15.9 0 3.2-.2 5.9-.7 8-.7 2.8-1.7 4.1-2.9 3.9 1.2.8 2.2 2.9 2.9 6.3.5 2.5.8 5.4.8 8.7 0 8.5.1 12.8.1 21.4-4.3-3.2-6.5-4.7-10.9-7.7 0-7.9 0-11.9-.1-19.9 0-2.9.2-5.4.8-7.3.7-2.2 1.7-3.4 2.7-3.2-1-1-1.9-3.1-2.7-6.2-.6-2.6-.9-5.2-1-7.7 0-5.8-.1-8.7-.1-14.4 4.5.7 6.7 1.2 11 2.2zM331.4 123.1c.5 2.6.8 5.9.8 9.9 0 12.9.1 25.8.1 38.7 0 4.5.6 9.2 1.8 14.2 1.2 5.2 2.4 8.6 3.8 10.1 4.3 4.9 6.4 7.4 10.7 12.6 1.6 1 2.8.2 3.7-2.2 1.1-3.2 1.6-7.5 1.6-12.7v-45.8c0-4.2.3-7.8.9-10.6.7-3.2 1.6-4.8 2.7-4.8-1.1-1.7-2-4.7-2.7-8.9-.6-4.1-.9-8-.9-11.6V73.5c0-5.7-.6-10.7-1.7-14.8-1.2-4.6-2.5-6.8-3.8-6.8h-10.8c-1.5 0-2.8 2.1-4 5.9-1 3.3-1.6 7.4-1.6 12.4 0 10.8.1 21.7.1 32.5 0 4-.2 7-.7 9-.7 3.2-1.7 4.6-2.9 4.4 1.2.9 2.2 3.2 2.9 7zm17-34v20.5c0 4.1-.2 7.6-.7 10.3-.8 3.6-1.7 5.3-2.9 5 1.2 1.1 2.1 3.7 2.9 8 .5 3.2.7 6.9.7 11.2v27.5c-4.3-4-6.5-6-10.8-9.7v-25.6c0-3.8.2-7 .8-9.5.7-2.9 1.7-4.3 2.7-4.1-1-1.3-1.9-4-2.7-8-.6-3.3-.9-6.6-.9-9.9 0-7.4 0-11.2-.1-18.6 4.5 1 6.7 1.6 11 2.9zM118.5 213.4c1.6 9.7 5.3 13.7 11.1 10.7 4.9-2.5 5.7-9.6 4.8-16.6-.2-1.9-.3-2.8-.6-4.6-1.2.5-1.9.8-3.1 1.4.1 1.1.2 1.7.4 2.8.2 1.7 0 2.9-.7 3.2-.8.4-1.4-1.6-1.9-5.2-.8-6-4.5-9.6-7.9-8.7 3.8-3.1 6.1-9.2 5.3-15.7-1.3-9.6-4.7-16.7-16.4-9.7-6.6 3.9-9.8 6.1-16.2 10.9.9 4.2 1.3 6.3 2.2 10.6 1.1-.8 1.6-1.2 2.7-2 2.9 14.1 4.3 21.2 7.1 35.3-1 .7-1.5 1.1-2.5 1.8.9 4.3 1.3 6.4 2.2 10.6 5.6-4.2 8.4-6.1 14.1-9.5-.7-4.4-1.1-6.5-1.8-10.9-1.1.7-1.7 1-2.8 1.7-.9-5.1-1.3-7.6-2.2-12.7 4.1-2.5 5-.9 6.2 6.6zm-5.7-17c-.9.5-1.3.8-2.1 1.3l-2.5-14 2.5-1.5c2.9-1.7 4.9-.1 5.7 4.8.6 4.3-.8 7.7-3.6 9.4zM138.6 218.9c8.9-3.8 18.2-6.5 27.2-8-.4-7.8-.6-11.7-.9-19.5-3.3.6-4.9.9-8.2 1.7l.5 8c-3 .7-4.5 1.1-7.4 2-.5-5.6-.7-8.4-1.2-13.9 3.6-1.1 5.5-1.6 9.1-2.4-.3-4.6-.4-6.9-.7-11.4-3.8.9-5.6 1.4-9.4 2.5-.4-4.7-.6-7.1-1-11.8 3.2-1 4.9-1.4 8.1-2.2.2 3.1.3 4.6.5 7.7 3.5-.8 5.2-1.2 8.6-1.8-.4-7.6-.6-11.4-.9-19.1-10.5 1.8-20.9 4.9-31.2 9.1.5 4.5.8 6.7 1.3 11.2 1.3-.5 1.9-.8 3.2-1.3 1.6 14.7 2.4 22.1 4 36.8-1.2.5-1.7.7-2.9 1.2.6 4.5.8 6.7 1.3 11.2zM182.3 209.3c3.4-.1 5-.1 8.4.1 3.8-16.4 8.1-32.6 12.8-48.2 1 .1 1.5.2 2.5.4l.5-11.2c-5.9-.9-8.9-1.2-14.8-1.5-.1 4.5-.1 6.8-.1 11.3 1.1 0 1.6.1 2.7.1-2 7.4-3 11.2-4.8 18.7-1 4.3-1.7 8.5-1.8 11h-.2c-.1-2.4-.7-6.2-1.5-10.5-1.7-7.8-2.5-11.6-4.3-19.3 1.1 0 1.7 0 2.8-.1v-11.3c-7.7.1-11.5.4-19.2 1.6l.5 11.2c1.1-.2 1.7-.3 2.8-.4 4.7 15.8 9.3 31.6 13.7 48.1zM220.9 164.6c1.1.3 1.6.5 2.7.8.4-4.4.5-6.6.9-11-6.6-1.9-9.9-2.7-16.5-3.8l-.5 11.2c1.1.2 1.7.3 2.8.5-.5 8.5-.7 12.8-1.1 21.3-1 19.6 3.5 29.7 12.4 32.8 8.3 2.9 14-4.2 16.4-24.3l2.5-20.5c1.1.5 1.6.7 2.7 1.2.6-4.3.8-6.5 1.4-10.9-6.1-2.8-9.1-4-15.2-6-.4 4.5-.6 6.8-1.1 11.3 1.1.4 1.6.5 2.7.9-.7 7.2-1.1 10.8-1.8 18.1-1.5 14.7-3.5 16-6.4 15.1-3-.9-4.4-4.3-3.4-18.1.7-7.4 1-11.1 1.5-18.6zM246.5 174.5c1.3.6 1.9.9 3.1 1.6-2.1 14.5-3.1 21.8-5.2 36.3-1.2-.6-1.7-.9-2.9-1.4-.6 4.5-.9 6.7-1.5 11.2 8.9 4.2 17.9 9.7 26.5 16.2 1.5-7.3 2.3-10.9 3.8-18.2-3.1-2.3-4.7-3.5-7.9-5.6-.6 3-.9 4.6-1.4 7.6-2.9-1.9-4.3-2.8-7.2-4.6.9-5.4 1.4-8.1 2.3-13.5 3.6 2.1 5.3 3.3 8.8 5.7.8-4.3 1.2-6.5 2.1-10.8-3.6-2.5-5.4-3.6-9.1-5.8.8-4.6 1.1-6.8 1.9-11.4 3.1 1.9 4.7 2.9 7.8 5-.5 2.9-.8 4.4-1.4 7.3 3.3 2.2 5 3.4 8.3 5.8 1.5-7.1 2.2-10.7 3.7-17.8-9.9-7.4-20-13.6-30.3-18.6-.5 4.4-.8 6.6-1.4 11z"/><circle cx="185.8" cy="130.6" r="2.7"/><path d="M32.5 233.2c46.8-80.8 113.1-97.5 134.2-100.8l-.9 3.9c1.9-2.1 5.2-4.3 7.9-5.7-2.9-.7-6.6-2.1-9-3.7l1.8 3.6c-21.2 3.3-88.2 20-135.4 101.2l-5.4 9.3 2.6-1c2.2-.8 4.5-1.3 6.9-1.3 10.8 0 19.6 8.9 19.6 19.8s-8.8 19.8-19.6 19.8c-8.3 0-15-6.8-15-15.2 0-6.5 5.3-11.9 11.8-11.9 4.6 0 8.4 3.8 8.4 8.5 0 1.6-.6 3-1.6 3.9-.9.8-2.2 1.2-3.5 1.2-.3 0-.6 0-1-.1 1-.6 1.7-1.7 1.7-2.9 0-1.9-1.5-3.4-3.4-3.4s-3.4 1.5-3.4 3.4c0 .5.1.9.3 1.4.8 2.4 3.3 3.7 5.8 3.7 1.8 0 3.5-.6 4.8-1.7 1-.9 2.3-2.6 2.3-5.4 0-5.8-4.7-10.5-10.4-10.5-7.6 0-13.7 6.2-13.7 13.9 0 2.6.6 5 1.6 7.2l-1.2-.9c-.8-.4-1.6-.7-2.4-1.1-.8-.3-2-.5-2.8-.7-.9-.1-1.9-.2-3.1-.2-1.2 0-1.7.1-2.9.3-2.1.4-4 1.6-5.3 3.3-.6.7-1 1.6-1.3 2.3l-.2.5c0 .1 0 .1-.1.2l-.1.4-.1.4-.1.3c0 .2-.1.4-.1.6-.2.8-.2 1.7-.1 2.6.1 1.7.8 3.7 2.2 5.2.3.4.7.7 1.1 1l.1.1.1.1h.2l.1.1c.2.2.5.3.7.4.8.4 1.6.5 2.2.6 1.4.1 2.5-.2 3.3-.6.9-.4 1.5-.9 2-1.4.2-.3.4-.5.5-.7l.3-.6c.1-.4.2-.7.2-1.1 0 0-.6.3-.7.3l-.9.3c-.4.1-.9.2-1.5.1-.6 0-1.2-.1-1.9-.3-.6-.2-1.2-.6-1.7-1.3-.4-.6-.6-1.4-.6-2.3 0-.9.2-1.7.5-2.6.3-.9.8-1.6 1.5-2.2.7-.6 1.5-1 2.4-1.3.9-.3 1.9-.4 2.7-.6 1.8-.2 3.5-.1 4.9.3.7.2 1.3.4 1.9.7.5.3 1 .5 1.3.7.4.2.6.4.8.6.1 0 .1.1.1.1 3.1 3.9 7.9 6.3 13.2 6.3 11.9 0 21.6-9.8 21.6-21.8s-9.7-21.8-21.6-21.8c-1.7 0-3.4.2-5.1.6l2.5-4.1zM370.7 276.2c0-.2-.1-.4-.1-.6l-.1-.3-.1-.4-.1-.4c0-.1 0-.1-.1-.2l-.2-.5c-.3-.7-.7-1.5-1.3-2.3-1.3-1.7-3.1-2.9-5.3-3.3-1.1-.2-1.7-.3-2.9-.3s-2.2 0-3.1.2c-.9.1-2 .3-2.8.7-.8.3-1.6.6-2.4 1.1-.3.2-.5.3-.8.5 1.1-2.2 1.7-4.7 1.7-7.3 0-7.6-6.2-13.9-13.7-13.9-5.7 0-10.4 4.7-10.4 10.5 0 2.8 1.2 4.5 2.3 5.4 1.3 1.1 3 1.7 4.8 1.7 2.5 0 5-1.3 5.8-3.7.2-.4.3-.9.3-1.4 0-1.9-1.5-3.4-3.4-3.4s-3.4 1.5-3.4 3.4c0 1.3.7 2.3 1.7 2.9-.3.1-.6.1-1 .1-1.3 0-2.6-.5-3.5-1.2-1.1-.9-1.6-2.3-1.6-3.9 0-4.7 3.8-8.5 8.4-8.5 6.5 0 11.8 5.3 11.8 11.9 0 8.4-6.7 15.2-15 15.2-10.8 0-19.6-8.9-19.6-19.8s8.8-19.8 19.6-19.8c2.4 0 4.7.4 6.9 1.3l2.6 1-5.4-9.3c-47.2-81.2-114.2-97.9-135.4-101.2l1.8-3.6c-2.4 1.6-6.1 3-9 3.7 2.7 1.4 6 3.6 7.9 5.7l-.9-3.9c21.1 3.3 87.5 20 134.2 100.8l2.4 4.1c-1.7-.4-3.4-.6-5.1-.6-11.9 0-21.6 9.8-21.6 21.8s9.7 21.8 21.6 21.8c5.2 0 9.8-2.3 12.9-6 .2-.1.4-.3.8-.5s.8-.5 1.3-.7c.5-.3 1.2-.5 1.9-.7 1.4-.4 3.1-.6 4.9-.3.9.1 1.9.3 2.7.6.9.3 1.7.7 2.4 1.3.7.6 1.2 1.4 1.5 2.2.3.9.5 1.7.5 2.6 0 .9-.2 1.7-.6 2.3-.4.6-1 1-1.7 1.3-.6.2-1.3.3-1.9.3-.6 0-1.1 0-1.5-.1l-.9-.3c-.1 0-.7-.3-.7-.3 0 .4 0 .8.2 1.1l.3.6c.1.2.3.5.5.7.5.5 1.1 1 2 1.4.8.4 1.9.7 3.3.6.7-.1 1.4-.2 2.2-.6.2-.1.4-.2.7-.4l.1-.1h.2l.1-.1.1-.1c.4-.3.8-.6 1.1-1 1.4-1.5 2-3.4 2.2-5.2.1-.9.1-1.8-.1-2.6zM246.3 256.3c-.3-.6-.8-1.2-1.3-1.6l-.1-.1-.1-.1-.1-.1-.3-.2c-.1-.1-.2-.1-.2-.1-.3-.2-.6-.3-.9-.4-1.1-.3-2.2-.3-2.9-.1-.5.1-.8.3-1.2.5-.4.2-.7.4-1 .7-.2.1-.3.3-.4.4l-.1.1v.1l-.1.1v.1l-.1.1c-.2.2-.2.4-.3.5-.1.2-.1.3-.1.4-.1.6-.1 1 0 1.4.1.4.2.6.3.8.1.2.2.3.2.3l.1.1c.1.1.2.1.2 0 0 0 .1-.1 0-.2 0 0-.1-.3.1-.7.1-.2.2-.5.4-.8.1-.1.2-.3.3-.4l.1-.1.1-.1c.1 0 .2-.1.3-.1.4-.2.8-.3 1.3-.3s1 .1 1.5.3c.5.2.8.6 1.1 1 .2.5.3 1 .2 1.6-.1.6-.2 1.1-.4 1.6-.7 1.5-2.5 2.2-4 2.4-1.4.2-2.9.1-4.2-.4-1.1-.4-2-1.4-2.7-2.2-1.6-1.9-2.6-4.3-3.5-6.6-.2-.6-.4-1.2-.7-1.8-2.6-7.1-5.6-15.2-19.5-15.2h-1c-8 .2-14.2 6.5-14.2 14.3 0 .4 0 .8.1 1.3h-14.7c0-.4.1-.8.1-1.3 0-7.8-6.2-14.1-14.2-14.3h-1c-13.8 0-16.8 8.1-19.5 15.2-.2.6-.4 1.2-.7 1.8-.9 2.3-1.9 4.7-3.5 6.6-.7.9-1.7 1.8-2.7 2.2-1.3.5-2.8.7-4.2.4-1.5-.3-3.3-1-4-2.4-.2-.5-.4-1.1-.4-1.6-.1-.6 0-1.1.2-1.6s.6-.8 1.1-1c.5-.2 1-.3 1.5-.3s.9.1 1.3.3c.1 0 .2.1.3.1l.1.1.1.1c.1.1.2.3.3.4.2.3.3.6.4.8.2.5.1.7.1.7v.2c.1.1.2.1.2 0l.1-.1s.1-.1.2-.3c.1-.2.2-.5.3-.8.1-.4.1-.8 0-1.4 0-.1-.1-.3-.1-.4-.1-.2-.1-.3-.3-.5l-.1-.1v-.1c.1 0-.1-.1-.1-.1v-.1l-.1-.1c-.1-.2-.3-.3-.4-.4-.3-.3-.6-.5-1-.7-.4-.2-.7-.4-1.2-.5-.8-.2-1.8-.3-2.9.1-.3.1-.6.2-.9.4-.1 0-.1.1-.2.1l-.3.2-.1.1-.1.1-.1.1c-.5.5-1 1-1.3 1.6-.3.6-.5 1.2-.6 1.8-.1.6-.1 1.2-.1 1.7 0 .3.1.5.1.8.1.3.1.5.2.8l.1.2v.1l.1.4c.1.2.2.4.3.7.5 1 1.4 1.8 2.2 2.4 1.2.7 2.8 1.1 4.1 1 1.3-.1 2.9-.3 4.2-.8 1.3-.5 2-1.1 2.9-1.8 1.8-1.3 3.1-3.2 4.1-5.2.9-1.7 1.5-3.5 2.2-5.3 2.7-7.2 5.5-14.7 19.2-14.3 7.3.2 12.9 5.9 12.9 13 0 .4 0 .8-.1 1.3H169v-.5c0-3.8-3.1-6.9-6.8-6.9-5 0-9.1 4.1-9.1 9.1 0 6.2 5 11.3 11.2 11.3 6.7 0 12.4-4.7 13.8-11.1h15.3c1.5 6.3 7.1 11.1 13.8 11.1 6.2 0 11.2-5.1 11.2-11.3 0-5-4.1-9.1-9.1-9.1-3.8 0-6.8 3.1-6.8 6.9v.5h-8.2c0-.4-.1-.8-.1-1.3 0-7.1 5.7-12.8 12.9-13 13.8-.4 16.6 7.1 19.2 14.3.7 1.8 1.3 3.6 2.2 5.3 1 2 2.3 3.9 4.1 5.2.9.7 1.7 1.3 2.9 1.8s2.8.7 4.2.8c1.3.1 3-.3 4.1-1 .9-.5 1.7-1.4 2.2-2.4.1-.2.2-.5.3-.7l.1-.4v-.1l.1-.2c.1-.3.2-.6.2-.8.1-.3.1-.5.1-.8 0-.5 0-1.1-.1-1.7.1-.6-.1-1.2-.4-1.8zm-82.3 8.4c-5.5 0-9.9-4.5-9.9-10 0-4.3 3.5-7.8 7.7-7.8 3 0 5.5 2.5 5.5 5.6v.5h-3.1c-.4-.8-1.1-1.3-2-1.3-1.2 0-2.2 1-2.2 2.2 0 .3.1.6.2.9.5 1.6 2.2 2.4 3.8 2.4 1.2 0 2.3-.4 3.2-1.1.3-.3.6-.6.9-1.1h8.4c-1.4 5.6-6.5 9.7-12.5 9.7zm2.5-9.8l-.1.1c-.6.5-1.4.8-2.3.8-.2 0-.4 0-.6-.1.4-.2.6-.5.8-.9h2.2v.1zm36.5 0c.3.5.6.9.9 1.1.8.7 2 1.1 3.2 1.1 1.6 0 3.3-.8 3.8-2.4.1-.3.2-.6.2-.9 0-1.2-1-2.2-2.2-2.2-.9 0-1.7.5-2 1.3h-3.1v-.5c0-3.1 2.5-5.6 5.5-5.6 4.3 0 7.7 3.5 7.7 7.8 0 5.5-4.4 10-9.9 10-6 0-11-4.2-12.5-9.8h8.4v.1zm1.6 0h2.2c.2.4.5.7.8.9-.2 0-.4.1-.6.1-.9 0-1.7-.3-2.3-.8 0-.1-.1-.1-.1-.2zM178.6 19.6c0 5.6.8 11.3-.2 17 2.3.4 4.5.3 6.9.3-.3-1.3-.6-2.5-.7-3.6-.2-4-.3-8-.3-11.9 0-1.6.4-2 2-2.1 2.7-.1 5.4-.2 8.2-.2 1.8 0 1.9.1 2 2.1l.3 10v5.7c2.3.1 4.4.4 6.3.1-1.3-11.6-.9-22.8-1.1-34.3-1.9-.2-3.8-.4-5.9 0v1.8c.1 2.4.2 4.9.2 7.3 0 1.5-.3 1.8-1.7 1.8-2.9 0-5.9-.2-8.8-.2-1.1 0-1.5-.5-1.6-1.5-.1-1.2-.2-2.4-.2-3.6v-6c-2.1.3-4.2-.1-6.3.5 1.1 5.7.9 11.3.9 16.8zM262.9 33.3c6-2.5 11.5-6.1 17-9.5 4.5-2.8 9-5.4 13.9-7.2 3-1.1 6.1-1.6 9.2-1 2.6.5 4.6 1.8 5.3 4.4.7 2.7.3 5.2-1.9 7.1-2.4 2-5.3 3.1-8.5 3.1-1.6 0-2.9-.7-3.9-1.8-1.1-1.2-1.4-2.7-.7-4.3.6-1.4 2.1-2.4 3.5-2.3 1.3.1 1.8.7 1.5 1.9-.2.6-.6 1.1-.7 1.7-.1.6-.2 1.4.1 1.7.4.4 1.3.5 1.9.4 1.6-.4 2.8-2.2 2.7-4.1-.1-1.7-1.1-2.9-3-3.3-.7-.1-1.4-.2-2.1-.2-2.5.1-4.9 2.1-5.6 4.6-.6 2.3.7 4.7 3.1 6 1.6.9 3.3 1 5.1.8 4.5-.5 8.2-2.3 10-6.8 1.2-3.1.5-5.8-1.9-8s-5.2-2.8-8.3-2.7c-4.6.2-8.7 1.9-12.6 4.1-5 2.9-10 5.9-15 8.9-4.2 2.5-8.4 5-13.1 6.6-2.3.8-4.7 1.4-7.3 1 .3-.3.6-.4.9-.5 7.4-2.2 14.1-5.7 20.1-10.5 2.7-2.1 5.3-4.4 7.6-6.8 1.8-1.9 3-4.2 2.8-7-.1-1.9-1.6-3.5-3.4-3.7-1-.1-2 .1-2.5 1.1-.5.9-.4 1.7.1 2.6.3.4.5.8.9 1.1 1.4 1 1.4 2.4.8 3.8-.4 1-1 2-1.8 2.8-7.2 7.4-15.7 12.7-25.7 15.5-.3.1-.6.1-.9.1 0-.1-.1-.2-.1-.3.4-.3.7-.5 1.1-.8 5.6-3.3 10.5-7.4 14.3-12.7 2.1-2.9 3.9-6 4.8-9.5.6-2.3.8-4.5-.3-6.8-.6-1.3-1.6-2.1-3-2.4-1-.2-1.8 0-2.4.9-.6.8-.6 1.7 0 2.5.4.6.9 1.1 1.4 1.6 1.8 1.6 2.4 3.6 1.6 5.9-.8 2.2-1.6 4.3-2.8 6.3-3.8 6.3-9.6 10.4-15.8 14-.4.2-.8.3-1.4.5.1-.3 0-.3.1-.4.2-.2.5-.5.8-.7 4-3.5 7.1-7.6 9.1-12.6 1.3-3.3 1.6-6.6.8-10.1-.8-3.2-2.9-4.5-6.1-3.7-.9.2-1.9.6-2.7 1.2-.6.3-1 1-1.3 1.5-.4.8-.4 1.6.4 2.3.7.6 1.4.5 2.1.1.7-.4 1.4-1 2.1-1.4 2.6-1.5 3.9-.8 4.2 2.2v.2c.2 4.3-.7 8.3-3 12-2.7 4.4-6.5 7.6-10.6 10.6-.5.4-1.1.8-2 1.5 1.3.3 2.1.6 3 .8 6.3 1.1 12.3.1 18.1-2.3zM143.8 20.2c1.2-.3 2.4-.8 3.4-1.5 2.7-1.8 5.2-3.7 7.8-5.6.5-.4 1.1-.6 2.1-1.1.2 8.4.4 16.4.7 24.5 2 .3 3.9.2 5.8 0-.1-2.1-.3-3.9-.4-5.8-.2-6.4-.3-12.8-.4-19.2-.1-2.9.5-3.5 3.5-3.4.3 0 .6 0 .8.1 2.4.4 3.5 2 3 4.3-.2.8-.5 1.6-.9 2.7.9-.1 1.6-.1 2.1-.3.8-.4 1.6-.9 2.3-1.4 3.7-3 3.1-7.6-1.2-9.6-3-1.4-6.2-1.5-9.4-.6-4.3 1.2-8.2 3.1-11.7 5.9-1.9 1.5-3.9 3-5.9 4.4-1.5 1-2.4.7-3.3-.8-.2-.4-.5-.8-.7-1.2-1.8 1.1-2.6 2.3-2.7 4.3 0 2.8 2.3 4.9 5.1 4.3zM208.9 36.9s.2.1.3.1c5.2.1 10.5.3 15.7.3 1.7 0 3.3-.7 4.6-1.8 2.1-1.7 2.8-4.9 1.5-7.2-.6-1.1-1.5-2-2.9-1.9-.1.3-.2.4-.2.6-.5 3-1.3 4.1-4.3 4.5-2.2.3-4.4.3-6.7.3-1.7 0-2-.2-2.1-1.9-.1-2.3-.2-4.6-.2-6.9 0-2.1.3-2.4 2.3-2.3 1.6 0 3.1.3 4.9.5-.1-2.2-.2-4.4-1.2-6.2-1.8.2-3.3.4-4.8.5-.9.1-1.5-.5-1.5-1.4 0-1.4.1-2.7.2-4.4h9.3c-.7-1.4-1.2-2.3-1.7-3.3-.7-1.4-1.8-2-3.3-2.2-3.2-.3-6.4-.7-9.6-1-.5 0-.9 0-1.5.1.2 1.9.5 3.7.6 5.5.4 9.4 1.1 18.7.6 28.1zM71.9 31.5c1.7.2 3.5.1 5.1-.8 2.4-1.3 3.7-3.8 3.1-6-.6-2.5-3-4.5-5.6-4.6-.7 0-1.4 0-2.1.2-1.8.4-2.9 1.6-3 3.3-.1 1.8 1.1 3.7 2.7 4.1.6.1 1.4 0 1.9-.4.3-.3.2-1.1.1-1.7-.1-.6-.6-1.1-.7-1.7-.3-1.2.2-1.9 1.5-1.9 1.4-.1 2.9.9 3.5 2.3.6 1.5.4 3.1-.7 4.3-1 1.1-2.3 1.8-3.9 1.8-3.2.1-6.1-1-8.5-3.1-2.2-1.9-2.6-4.4-1.9-7.1.7-2.6 2.8-4 5.3-4.4 3.2-.6 6.2-.1 9.2 1 4.9 1.9 9.4 4.5 13.9 7.2 5.5 3.4 11 7 17 9.5 5.8 2.4 11.8 3.4 18 2.3.9-.1 1.7-.4 3-.8-.9-.7-1.5-1.1-2-1.5-4.1-3-7.9-6.2-10.6-10.6-2.3-3.7-3.2-7.7-3-12v-.2c.3-3 1.6-3.6 4.2-2.2.7.4 1.4.9 2.1 1.4.7.4 1.5.5 2.1-.1.8-.6.8-1.5.4-2.3-.3-.6-.8-1.2-1.3-1.5-.8-.5-1.7-.9-2.7-1.2-3.2-.8-5.4.5-6.1 3.7-.8 3.4-.5 6.8.8 10.1 1.9 5 5.1 9.1 9.1 12.6.3.2.5.5.8.7 0 0 0 .1.1.4-.5-.2-1-.3-1.4-.5-6.3-3.6-12-7.7-15.8-14-1.2-1.9-2-4.1-2.8-6.3-.8-2.3-.2-4.2 1.6-5.9.5-.5 1-1 1.4-1.6.5-.8.6-1.7 0-2.5s-1.5-1.1-2.4-.9c-1.4.3-2.4 1.1-3 2.4-1.1 2.2-.8 4.5-.3 6.8.9 3.5 2.7 6.6 4.8 9.5 3.8 5.3 8.7 9.4 14.3 12.7.4.2.8.5 1.1.8 0 .1-.1.2-.1.3-.3 0-.6 0-.9-.1-10-2.7-18.5-8-25.7-15.5-.8-.8-1.4-1.8-1.8-2.8-.6-1.4-.6-2.7.8-3.8.4-.3.6-.7.9-1.1.5-.8.7-1.7.1-2.6-.6-1-1.5-1.2-2.5-1.1-1.8.2-3.2 1.8-3.4 3.7-.2 2.8.9 5.1 2.8 7 2.4 2.4 5 4.7 7.6 6.8 6 4.8 12.7 8.3 20.1 10.5.3.1.6.3.9.5-2.5.4-4.9-.2-7.3-1-4.7-1.6-8.9-4.1-13.1-6.6-5-3-9.9-6-15-8.9-3.9-2.2-8-4-12.6-4.1-3.1-.1-6 .5-8.3 2.7-2.4 2.2-3.1 4.9-1.9 8 1.9 4.4 5.6 6.3 10.1 6.8z"/></g></svg>