<svg viewBox="0 0 337 106" xmlns="http://www.w3.org/2000/svg"><title>Le Cellier</title><g fill="#fff" fill-rule="evenodd"><path d="M48.6 90.8c-.5-3.1 2-7.5 8.1-8.4 2-.3 4.4.3 4.9.2.4-.1.8-.5 1.5-.6 1.1-.1 3.7 1.8 4.1 4.3.1 1-.4 2.2-1.6 2.3-2.1.3-3.8-3-7-2.5-1 .1-1.9.7-1.8 1.8.3 2.4 4.5 1.1 8.4 3 2.1 1 3.2 2.4 3.5 4.6.5 3.5-1.9 7.9-9 8.9-2 .3-5.5.3-7.4-.4-1.6-.6-2.8-3.7-3-5.2-.1-.8.1-1.7 1-1.8 2.2-.3 2.6 4.5 8.2 3.7.7-.1 2.3-.7 2.1-1.8-.3-2.2-4.4-1-8.3-3.2-1.9-1-3.4-2.7-3.7-4.9zM83.1 79.4c1.4-.1 2-.3 2.4-.5.4-.1.7-.3 1.3-.4 1.2-.1 4 2 4.3 5.2.2 1.5-.6 2.6-2.1 2.8-2.7.3-3.1-3.3-4.7-3.1-1.2.1-.9 1.8-.9 2 .4 3.7.6 5.6 1 9.3.4 3.6 3 1.6 3.3 3.7.1.9-.3 2.3-6 3-1.6.2-7.3.9-7.5-1.4-.2-1.6 1.8-1.2 2.2-2.4.2-.7.1-2.5.1-3.3-.2-2.7-.3-4-.6-6.7-.3-3.2-.9-3.1-1.3-3-1.4.2-1.6 3.8-4.2 4.2-1.2.2-2.1-.8-2.2-1.9-.3-2.6 1.5-6.2 3.3-6.5.2 0 .6 0 1.2.1.6 0 1.5 0 2.7-.1 3.1-.4 4.6-.6 7.7-1zM104.1 77.4c4.2-.4 4.8-1 5.3-1 1.8-.1 2.8 2.8 2.9 4.1.1 1-.2 2.2-1.5 2.3-2.5.2-.7-2.9-6.7-2.4-3.5.3-3.1.9-2.8 4.4.2 1.8.3 1.8 2.2 1.7 2.4-.2.3-3.4 2.5-3.6 1.8-.1 2.2 3.3 2.3 4.5.1 1.2.2 4.9-1.7 5.1-1.9.2-.3-3.2-3.4-2.9-1.3.1-1.2 1.3-1.1 2.2.4 4.4.7 4.2 3.9 3.9 6.3-.5 4.2-4.7 6.7-4.9 1-.1 1.6 1 1.6 1.8.1 2.1-1.2 5.9-2.5 6-.2 0-.7-.1-1.4-.1s-1.5 0-2.6.1c-5 .4-7.5.6-12.6 1.1-2 .2-2.1-.7-2.2-1.1-.2-1.7 2-.5 2-3.8-.2-5.6-.1-5.1-.9-10.5-.7-4.6-2.8-2-3-4.2-.2-1.9 2.5-1.8 3.8-1.9 3.7-.3 5.6-.5 9.2-.8zM120.6 86.6c.8-2.2 1.9-4.9 1.8-7.3-.1-2.1.8-3.8 3.6-3.9 2.7-.2 4.6 2.5 5.9 4.4.6.9 5.7 10 6.9 12.5 1.1 2.3 2.7.8 2.8 2.6.1 2.2-4.3 2.3-5.8 2.4-4.4.2-7 .3-7.1-1.6-.1-1.5 1.8-1 1.8-2.1-.1-1.4-.8-1.5-5.8-1.2-1.6.1-2.6.2-2.5 1.7.1 1.2 2 .3 2.1 1.9.1 1.8-3.2 2.1-4.4 2.1-4.4.3-4.8-.5-4.9-1.5-.1-1.4 1.6-1.1 2.4-2.3.6-.9 1.2-2.4 1.6-3.4.6-1.7.9-2.6 1.6-4.3zm6.6 1.8c.3 0 1.2 0 1.2-.5s-1-2-1.3-2.4c-.3-.5-.9-1.6-1.6-1.5-.7 0-1.2 1.9-1.3 2.2-.1.3-.6 1.6-.5 1.9 0 .5.8.4 1.1.4 1 0 1.5 0 2.4-.1zM155.7 92.1c-.5-.6-2.4-2.8-3.1-2.8-.8 0-.9.8-.9 1.7v.6c0 1.5 2 1.5 2 3 0 1-.7 1.9-6.1 2-4.8.1-5.5-.7-5.5-1.7-.1-1.6 1.5-.8 1.8-3.4.2-1.7.2-3.7.1-5.4-.1-1.9-.1-4.1-.5-5.9-.5-2.6-2.1-1.4-2.2-3.3 0-.5-.4-2.2 6.5-2.4 1.5 0 4.8-.1 4.8 2 0 1.6-1.7.7-1.6 4.3 0 .4.1 1.3.6 1.3.8 0 3.3-3.2 3.2-3.9 0-.6-.5-.9-.5-1.6 0-2.3 4.1-2.2 5.6-2.2s5.2-.2 5.2 2c0 2.5-3.3 1-4.4 2.1-.6.6-3.3 2.5-3.2 3.8 0 .8.8 1.5 1.3 2.1 2.6 2.9 4 4.3 6.5 7.2.9 1 2.8.9 2.8 2.8 0 1.5-1.6 1.7-2.8 1.7h-5.2c-1.2 0-1.2-.1-2.5-1.6-.6-.9-1-1.4-1.9-2.4zM191.7 91.4c0 .9.1 1.4.9 1.9.6.4 1 .6 1 1.3 0 .7-.1 2.2-6.2 2.1-1.3 0-5.2-.2-5.2-2.2 0-2.3 2.1.3 2.3-5.9 0-1.7-.3-1.6-1.9-1.6-4.3-.1-3.9.1-4 2.8-.1 4.2 1.9 2.5 1.9 4.5 0 2.1-4.5 2.2-6 2.2-1.4 0-5.7-.1-5.7-2.2 0-.6.5-1 1-1.3 1.1-.5 1.5-.4 1.5-6.8 0-8.1-.1-7.5-1.3-8.1-.5-.2-1-.5-1-1.1 0-2.4 5.3-2.6 7-2.6 1.3 0 5 .2 5 2 0 .9-.6 1.3-1.3 1.7-.8.4-1 .8-1 3.5 0 1.7.8 1.5 2.3 1.5h1.6c2.1 0 2-.3 2-1.2.1-3.3-.5-3.6-.9-3.8-.6-.3-1.2-.6-1.1-1.4 0-.6-.1-2.3 6.2-2.2 1.5 0 5.7.2 5.6 2.3 0 .7-.4 1.1-1 1.4-.9.4-1.3.3-1.4 5.1-.2 3.3-.2 4.9-.3 8.1zM195.3 85.8c.2-6.5 5.7-10.9 12.6-10.6 8.7.4 11.6 8.1 11.3 12-.4 6.6-6.5 10.5-12.8 10.2-6.5-.3-11.3-5.1-11.1-11.6zm10.9-6.1c-1.8-.1-2.7 1.7-2.8 3.1-.1 2.6 1.4 10 4.7 10.1 1.9.1 2.8-1.5 2.9-3.1.2-2.7-1.1-9.9-4.8-10.1zM240 83.2c.3-3.3-2.5-2.3-2.4-4 .2-1.9 3.8-1.5 5.1-1.4 1.2.1 4.7.5 4.5 2.2-.2 1.7-2.4.4-2.7 3.2-.3 3.3-.5 4.9-.8 8.2-.1 1.4-.8 8.6-11.4 7.7-12.1-1-10.1-10.1-10-10.5l.5-7c.3-1.9-1.9-2.1-1.8-3.5 0-.4-.2-2.2 6.3-1.7 5.1.4 6.1 1.4 6 2.6-.2 2.2-2.3 0-2.8 3.7-.2 2.2-.3 3.4-.4 5.6-.3 3.6.9 6 4.2 6.3 4.9.4 5-3.6 5-3.9.3-2.9.4-4.5.7-7.5zM248.4 85.4c.3-3.2 3.9-6.8 10-6.1 2 .2 4.2 1.4 4.6 1.4.4.1.9-.3 1.6-.2 1.1.1 3.2 2.7 2.8 5.2-.1 1-.9 2-2.1 1.8-2.1-.3-2.9-3.9-6.1-4.3-1-.1-2 .2-2.2 1.3-.3 2.4 4.1 2.3 7.4 5 1.8 1.5 2.5 3.1 2.2 5.4-.5 3.5-3.9 7.1-11 6.3-2-.2-5.4-1.1-7.1-2.2-1.4-1-1.8-4.3-1.6-5.8.1-.8.5-1.6 1.5-1.5 2.2.2 1.3 5 7 5.6.7.1 2.4-.1 2.5-1.2.3-2.2-4-2.1-7.2-5.2-1.5-1.3-2.5-3.3-2.3-5.5zM282.5 82.9c4.2.6 4.9.1 5.4.2 1.8.3 2.1 3.4 1.9 4.7-.2 1-.7 2.1-2 1.9-2.5-.4 0-3-5.9-3.9-3.5-.5-3.2.2-3.7 3.6-.2 1.8-.2 1.8 1.7 2.1 2.4.3 1.1-3.3 3.3-3 1.8.3 1.4 3.7 1.2 4.9-.2 1.2-.9 4.8-2.8 4.6-1.9-.3.5-3.2-2.6-3.6-1.3-.2-1.4 1-1.6 1.9-.6 4.4-.3 4.2 2.9 4.7 6.3.9 5.1-3.6 7.7-3.2 1 .2 1.3 1.3 1.2 2.2-.3 2.1-2.6 5.5-3.8 5.3-.2 0-.7-.2-1.3-.4-.6-.2-1.5-.4-2.5-.5-5-.7-7.5-1.1-12.5-1.8-2-.3-1.9-1.2-1.9-1.6.2-1.7 2.1-.1 2.8-3.2 1.1-5.5 1-4.9 1.5-10.4.4-4.6-2.3-2.6-2-4.7.2-1.8 2.8-1.2 4.1-1 3.5.4 5.3.7 8.9 1.2z"/><g><path d="M26.5 45.1c0-1.8.3-3.6 1-5.3.7-1.6 1.8-3.1 2.9-4.4.3-.4.6-.7.8-1.2.4-1.3-.6-2.1-1.8-1.9-.8.2-1.5.7-2.1 1.3-1.9 1-3.7 4.1-4.8 5.9-1.3 2.3-2.2 4.7-3.3 7.1l-.3.6c-.5.7-1.6.9-2.3.4-.5-.3-.8-1-.9-1.6-.4-2.9-.1-5.8-.1-8.8 0-2.4 0-5.1.1-8 0-2.9.1-5.6.2-8.2.1-2.5.2-4.8.3-6.7.1-1.7.2-2.5.3-2.8.1-.1.4-.1.7-.2.7-.2 1.5-.4 2.2-.5.8-.2 1.5-.5 2.1-.7 1.3-.6 1.5-1.5 1.5-2 0-2-.9-2.5-1.6-2.5-.1 0-.3 0-.4.1l-.3.2c-.1 0-.3.2-1 .4-.6.2-1.3.4-2.2.6-.9.2-1.9.4-3.1.6-1.1.2-2.4.3-3.6.3H8.1c-1.1-.1-2-.2-2.7-.3-.7-.1-1.2-.2-1.6-.2h-.4c-.7.1-1.3.6-1.4 1.2-.1.3-.1.7-.1 1.1 0 .4.1.9.6 1.4.4.4 1.1.6 2.2.7l2.5.2c0 .2.1.4.1.6.1.6.2 1.7.2 3.1.1 1.4.1 3.4.2 5.8 0 2.4.1 5.5.1 9.3 0 2.7 0 5.4-.1 7.9s-.1 4.7-.2 6.6c-.1 1.9-.2 3.5-.3 4.8-.1 1.1-.2 1.7-.3 1.9-.1 0-.1.1-.3.1-.4.2-.9.3-1.4.5-.6.2-1.1.3-1.7.4-.6.1-1 .1-1.2.1-.9-.1-1.6.4-1.9 1.3-.1.4-.2.9-.2 1.3 0 1.3.9 1.9 1.8 1.9.6 0 1.3-.1 2.2-.3.7-.2 1.7-.4 2.9-.6 1.2-.2 2.6-.4 4.4-.6 1.7-.2 3.8-.3 6.3-.3 1.1 0 2 0 2.9.1.8 0 1.6.1 2.3.2.6.1 1.3.2 1.8.3.5.1 1.1.2 1.6.4 0 0 .1 0 .1.1 0 .2-.1.4-.1.6 0 1.2.7 1.6 1.1 1.7.3.1.4.1.6.1.8 0 1.4-.5 1.6-1.2.1-.4.2-.7.2-1v-.3l.1-.1-.1-.1c-2-3.6-3.4-7.6-3.4-11.4zM66.5 1l-.2-.1H66c-.6 0-1.5.3-2.2 1.9-.3.8-.6 1.7-.9 2.7-.2.9-.4 1.8-.6 2.6-.1 0-.3-.1-.4-.1-.6-.1-1.3-.2-2.1-.3-.8-.1-1.6-.2-2.5-.3-.9-.1-1.7-.1-2.5-.1-2.6 0-5.2.5-7.5 1.5-2.4 1-4.6 2.7-6.4 4.8-1.8 2.2-3.3 4.9-4.3 8.2C35.5 25.1 35 29 35 33.5c0 3.2.4 6.3 1.2 9 .8 2.8 1.9 5.2 3.4 7.1 1.5 2 3.4 3.6 5.6 4.7 2.2 1.1 4.8 1.7 7.7 1.7.7 0 1.5 0 2.4-.1l2.7-.3c.9-.1 1.7-.2 2.5-.3.8-.1 1.3-.1 1.7-.1 0 0 0 .1.1.2.2.6.3 1.2.3 1.7v.1c.2 1.3 1.2 1.5 1.5 1.6h.2c.4 0 .8-.1 1.3-.4l.7-.4-.2-.8c-.1-.7-.2-1.5-.3-2.5-.1-1-.1-2.1-.1-3.2 0-1.3.1-2.5.2-3.5l.3-1.5v-.2c0-.6-.3-1.1-.7-1.4-.4-.3-.7-.4-1.1-.4-.6 0-1 .5-1.1.7l-.2.3c-.2.5-.4 1.1-.9 1.8-.4.7-1 1.3-1.7 2-.7.6-1.5 1.2-2.5 1.6-1 .4-2.1.6-3.4.6-1.3 0-2.5-.3-3.5-.8-1-.6-1.9-1.3-2.6-2.3-.8-1-1.4-2.2-1.9-3.5-.5-1.3-1-2.7-1.3-4.2-.3-1.4-.6-2.9-.7-4.3-.1-1.1-.2-2.1-.2-3 .4 0 1 0 1.6-.1 1.3 0 3-.1 5-.1 1.1 0 2.1 0 3.1.1.9 0 1.7.1 2.3.3.6.2 1.1.4 1.4.7.3.2.4.5.5.9.1.6.5 1.1 1.1 1.5.6.4 1.1.2 1.4.1.3-.2.7-.5.8-1.3v-.2c0-1 .1-2 .2-2.9.1-.9.3-1.8.4-2.6.2-.8.4-1.5.5-2.1.2-.7.3-1.2.3-1.6l.1-.4-.2-.3c-.3-.5-.7-.8-1.3-.9-.7-.1-1.3.2-1.7.8-.1.1-.3.3-.8.6s-1.2.5-1.9.7c-.7.2-1.6.4-2.5.5-.9.1-1.8.2-2.9.2-.3 0-.8.1-1.8 0-.9 0-1.7-.1-2.7-.1-.9 0-1.7-.1-2.5-.2-.2 0-.4 0-.5-.1.1-1.8.4-3.7.8-5.4.5-2 1.1-3.8 1.9-5.4.8-1.5 1.7-2.7 2.7-3.6.9-.8 1.9-1.2 3.1-1.2 1.1 0 2 .2 2.9.6.9.4 1.6.9 2.2 1.5.6.6 1.1 1.2 1.5 1.9.4.7.6 1.2.8 1.7.3 1.5 1.2 1.8 1.7 1.8.9 0 1.6-.5 1.8-1.5.1-1.3.3-2.4.4-3.4.2-1 .3-1.7.5-2.3.4-1.8.8-3.3 1.2-4.5.4-1.2.9-2.1 1.5-2.7 1.3-1.3.6-2.4.4-2.6 0-.2-.5-.5-1.2-.8zM119.7 2.2c-.6-.2-1.2-.1-1.7.2l-.1.1c-1 .7-1.9 1.8-2.4 3.1-.4.9-.7 1.9-1.1 3-.1 0-.2 0-.3-.1-.7-.2-1.5-.3-2.4-.4-.9-.1-1.7-.2-2.6-.3-.9-.1-1.6-.1-2.1-.1-2.4 0-4.8.6-7 1.6-2.3 1.1-4.3 2.7-6.1 4.8-1.8 2.1-3.2 4.6-4.3 7.7-1.1 3-1.6 6.5-1.6 10.4 0 4.2.5 7.9 1.5 10.9s2.3 5.6 3.9 7.5c1.6 2 3.5 3.5 5.7 4.4 2.1.9 4.3 1.4 6.5 1.4.5 0 1.2 0 1.8-.1.6 0 1.2-.1 1.8-.1.6 0 1.2-.1 1.7-.1h.1v.1c-.1.8-.3 1.6-.4 2.4-.1.9-.2 1.7-.2 2.4 0 .8.1 1.3.5 1.7.3.3.7.5 1.1.5.8 0 1.4-.2 1.7-.7.3-.4.4-1 .4-1.9 0-.6 0-1.2.1-1.8.1-.6.2-1.3.3-1.9.1-.6.2-1.1.3-1.6.1-.4.2-.8.3-1.1.1-.3.4-.8.7-1.5.4-.8.7-1.7 1-2.7.3-1 .7-2 .9-3 .3-1.1.4-1.9.4-2.6 0-.4-.2-.8-.5-1.1-.3-.2-.7-.4-1.4-.1-.8.2-1.1.7-1.2 1.1-.3 1.1-.8 2.2-1.4 3.1-.6 1-1.3 1.9-2.1 2.6-.8.7-1.6 1.3-2.5 1.7-.8.4-1.7.6-2.6.6-1.3 0-2.5-.4-3.7-1.3-1.2-.9-2.2-2.3-3.1-4.2-.9-1.9-1.6-4.3-2.2-7.1-.5-2.8-.8-6.1-.8-9.7 0-2.6.2-5.1.6-7.4.4-2.2 1-4.2 1.8-5.8.7-1.6 1.7-2.8 2.7-3.7 1-.8 2.1-1.2 3.3-1.2 1.2 0 2.3.2 3.2.7.9.4 1.6 1 2.2 1.8.6.8 1.1 1.6 1.4 2.6.4 1 .6 2 .7 3v.4l.3.3c.5.5 1 .7 1.5.7.3 0 .8-.1 1.2-.6.3-.4.4-.8.4-1.3v-1.3c0-.5.1-1.1.1-1.7.1-.6.1-1.2.2-1.8.1-.6.1-1.2.2-1.6.1-.9.3-1.9.5-2.8.2-.9.5-1.7.8-2.4.3-.7.6-1.2.9-1.6.1-.2.2-.2.2-.3.4 0 .8-.2 1.1-.5.2-.2.3-.5.6-1l.1-.2v-.2c.4-1-.1-1.7-.9-1.9zM154.9 1l-.2-.1h-.2c-.6 0-1.5.3-2.2 1.9-.3.8-.6 1.7-.9 2.7-.2.9-.4 1.8-.6 2.6-.1 0-.3-.1-.4-.1-.6-.1-1.3-.2-2.1-.3-.8-.1-1.6-.2-2.5-.3-.9-.1-1.7-.1-2.5-.1-2.6 0-5.2.5-7.5 1.5-2.4 1-4.6 2.7-6.4 4.8-1.8 2.2-3.3 4.9-4.3 8.2-1.1 3.3-1.6 7.2-1.6 11.7 0 3.2.4 6.3 1.2 9 .8 2.8 1.9 5.2 3.4 7.1 1.5 2 3.4 3.6 5.6 4.7 2.2 1.1 4.8 1.7 7.7 1.7.7 0 1.5 0 2.4-.1l2.7-.3c.9-.1 1.7-.2 2.5-.3.8-.1 1.3-.1 1.7-.1 0 0 0 .1.1.2.2.6.3 1.2.3 1.7v.1c.2 1.3 1.2 1.5 1.5 1.6h.2c.4 0 .8-.1 1.3-.4l.7-.4-.2-.8c-.1-.7-.2-1.5-.3-2.5-.1-1-.1-2.1-.1-3.2 0-1.3.1-2.5.2-3.5l.3-1.5v-.2c0-.6-.3-1.1-.7-1.4-.4-.3-.7-.4-1.1-.4-.6 0-1 .5-1.1.7l-.2.3c-.2.5-.4 1.1-.9 1.8-.4.7-1 1.3-1.7 2-.7.6-1.5 1.2-2.5 1.6-1 .4-2.1.6-3.4.6-1.3 0-2.5-.3-3.5-.8-1-.6-1.9-1.3-2.6-2.3-.8-1-1.4-2.2-1.9-3.5-.5-1.3-1-2.7-1.3-4.2-.3-1.4-.6-2.9-.7-4.3-.1-1.1-.2-2.1-.2-3 .4 0 1 0 1.6-.1 1.3 0 3-.1 5-.1 1.1 0 2.1 0 3.1.1.9 0 1.7.1 2.3.3.6.2 1.1.4 1.4.7.3.2.4.5.5.9.1.6.5 1.1 1.1 1.5.6.4 1.1.2 1.4.1.3-.2.7-.5.8-1.3v-.2c0-1 .1-2 .2-2.9.1-.9.3-1.8.4-2.6.2-.8.4-1.5.5-2.1.2-.7.3-1.2.3-1.6l.1-.4-.2-.3c-.3-.5-.7-.8-1.3-.9-.7-.1-1.3.2-1.7.8-.1.1-.3.3-.8.6s-1.2.5-1.9.7c-.7.2-1.6.4-2.5.5-.9.1-1.8.2-2.9.2-.3 0-.8.1-1.8 0-.9 0-1.7-.1-2.7-.1-.9 0-1.7-.1-2.5-.2-.2 0-.4 0-.5-.1.1-1.8.4-3.7.8-5.4.5-2 1.1-3.8 1.9-5.4.8-1.5 1.7-2.7 2.7-3.6.9-.8 1.9-1.2 3.1-1.2 1.1 0 2 .2 2.9.6.9.4 1.6.9 2.2 1.5.6.6 1.1 1.2 1.5 1.9.4.7.6 1.2.8 1.7.3 1.5 1.2 1.8 1.7 1.8.9 0 1.6-.5 1.8-1.5.1-1.3.3-2.4.4-3.4.2-1 .3-1.7.5-2.3.4-1.8.8-3.3 1.2-4.5.4-1.2.9-2.1 1.5-2.7 1.3-1.3.6-2.4.4-2.6-.1-.2-.6-.5-1.3-.8zM246.4 52c-.4 0-.8 0-1.2-.1-.4 0-.8-.1-1.3-.2-.4-.1-.8-.2-1.1-.3h-.1c-.1-.2-.1-.8-.2-1.8-.1-1.4-.2-3.2-.2-5.1 0-2-.1-4.1 0-6.2 0-2.2 0-4 .1-5.7 0-2.1.1-4.4.2-7 .1-2.5.2-4.9.3-7 .1-2.1.2-4 .4-5.4.1-.8.1-1.3.2-1.6.2-.1.4-.1.6-.1l.9-.1c.3 0 .5-.1.7-.1h.1c1.3-.2 2.1-1 2.1-2.3 0-1.2-.8-1.6-1.1-1.7-.3-.1-.6-.2-1-.2h-.2c-.3.1-.9.1-2.3.3-1.1.1-2.5.2-4.1.2-2.5 0-4.4-.1-5.6-.2-1.8-.2-2.3-.2-2.5-.2-.5 0-.9.2-1.3.5-.4.4-.6.9-.6 1.7 0 1.1.5 1.5.9 1.7.2.1.5.2.8.2.4.1.9.1 1.6 0 .5 0 1 0 1.4.1.4.1.5.2.5.2s.2.5.3 2.2v14c0 2.2 0 4.6-.1 7.2-.1 2.6-.2 5.1-.4 7.4-.2 2.3-.3 4.4-.5 6.2-.2 1.9-.4 2.7-.5 3-.1.1-.3.2-.7.3-.7.2-1.6.3-2.8.3-.6 0-1.1.3-1.5.8-.2.4-.4.8-.4 1.2 0 .4.1.8.3 1.1.4.9 1.1 1 1.4 1h.1l.8-.1c.3 0 .7-.1 1.3-.2.5-.1 1.1-.1 1.7-.1l2-.1h2.1c1.4 0 2.6 0 3.6.1 1 0 1.8.1 2.4.2.6.1 1.1.1 1.5.2.4 0 .7.1 1 .1.5 0 1-.2 1.4-.5.4-.3.8-.8.8-1.7 0-.5-.1-1.1-.5-1.5-.2-.7-.8-.7-1.3-.7zM284.6 1l-.2-.1h-.2c-.6 0-1.5.3-2.2 1.9-.3.8-.6 1.7-.9 2.7-.2.9-.4 1.8-.6 2.6-.1 0-.3-.1-.4-.1-.6-.1-1.3-.2-2.1-.3-.8-.1-1.6-.2-2.5-.3-.9-.1-1.7-.1-2.5-.1-2.6 0-5.2.5-7.5 1.5-2.4 1-4.6 2.7-6.4 4.8-1.8 2.2-3.3 4.9-4.3 8.2-1.1 3.3-1.6 7.2-1.6 11.7 0 3.2.4 6.3 1.2 9 .8 2.8 1.9 5.2 3.4 7.1 1.5 2 3.4 3.6 5.6 4.7 2.2 1.1 4.8 1.7 7.7 1.7.7 0 1.5 0 2.4-.1l2.7-.3c.9-.1 1.7-.2 2.5-.3.8-.1 1.3-.1 1.7-.1 0 0 0 .1.1.2.2.6.3 1.2.3 1.7v.1c.2 1.3 1.2 1.5 1.5 1.6h.2c.4 0 .8-.1 1.3-.4l.7-.4-.2-.8c-.1-.7-.2-1.5-.3-2.5-.1-1-.1-2.1-.1-3.2 0-1.3.1-2.5.2-3.5l.3-1.5v-.2c0-.6-.3-1.1-.7-1.4-.4-.3-.7-.4-1.1-.4-.6 0-1 .5-1.1.7l-.2.3c-.2.5-.4 1.1-.9 1.8-.4.7-1 1.3-1.7 2-.7.6-1.5 1.2-2.5 1.6-1 .4-2.1.6-3.4.6-1.3 0-2.5-.3-3.5-.8-1-.6-1.9-1.3-2.6-2.3-.8-1-1.4-2.2-1.9-3.5-.5-1.3-1-2.7-1.3-4.2-.3-1.4-.6-2.9-.7-4.3-.1-1.1-.2-2.1-.2-3 .4 0 1 0 1.6-.1 1.3 0 3-.1 5-.1 1.1 0 2.1 0 3.1.1.9 0 1.7.1 2.3.3.6.2 1.1.4 1.4.7.3.2.4.5.5.9.1.6.5 1.1 1.1 1.5.6.4 1.1.2 1.4.1.3-.2.7-.5.8-1.3v-.2c0-1 .1-2 .2-2.9.1-.9.3-1.8.4-2.6.2-.8.4-1.5.5-2.1.2-.7.3-1.2.3-1.6l.1-.4-.2-.3c-.3-.5-.7-.8-1.3-.9-.7-.1-1.3.2-1.7.8-.1.1-.3.3-.8.6s-1.2.5-1.9.7c-.7.2-1.6.4-2.5.5-.9.1-1.8.2-2.9.2-.3 0-.8.1-1.8 0-.9 0-1.7-.1-2.7-.1-.9 0-1.7-.1-2.5-.2-.2 0-.4 0-.5-.1.1-1.8.4-3.7.8-5.4.5-2 1.1-3.8 1.9-5.4.8-1.5 1.7-2.7 2.7-3.6.9-.8 1.9-1.2 3.1-1.2 1.1 0 2 .2 2.9.6.9.4 1.6.9 2.2 1.5.6.6 1.1 1.2 1.5 1.9.4.7.6 1.2.8 1.7.3 1.5 1.2 1.8 1.7 1.8.9 0 1.6-.5 1.8-1.5.1-1.3.3-2.4.4-3.4.2-1 .3-1.7.5-2.3.4-1.8.8-3.3 1.2-4.5.4-1.2.9-2.1 1.5-2.7 1.3-1.3.6-2.4.4-2.6-.1-.2-.6-.5-1.3-.8zM336.8 58c0-.2-.1-.5-.1-.7-.2-.9-.9-1.2-1.4-1.2-.3 0-.8.1-1.2.5l-.2.2-.1.3c-.1.2-.2.4-.3.5-.2.2-.4.3-.6.4-.2.1-.5.2-.7.2-.3 0-.6.1-.8.1-1.1 0-2.1-.5-3.1-1.4-1.1-1.1-2.1-2.5-3-4.1-.9-1.6-1.8-3.4-2.5-5.2-.7-1.6-1.3-3.1-1.9-4.4.1-.2.2-.4.2-.5.9-2.2-1.1-6.3-2.5-7.9-1-1.2-2.2-2.2-3.3-3.2-.2-.2-.5-.5-.5-.8 0-1.3 1.9-2.4 2.7-3.2 1.1-1.1 1.7-2.4 2.3-3.8.7-1.7 1-3.6 1-5.6 0-2.1-.3-3.9-1-5.5s-1.6-2.9-2.7-4-2.5-1.9-4-2.5c-2.5-.9-5.2-1.2-8-.3-1 .3-2 .7-3 1.1-.9.4-1.8.8-2.5 1.2-.7.4-1.2.7-1.5.9h-.1c-1.9 0-3.5-.1-4.8-.3-1.4-.2-2.4-.3-3-.3-1.1 0-1.9.8-1.9 2 0 1 .6 1.7 1.5 2 .5.1 1.1.3 1.8.3.6.1 1.2.1 1.8.2.3 0 .5.1.7.2.1.4.1.9.2 1.5.1.8.2 2 .2 3.5.1 1.5.1 3.3.2 5.5v8c0 3.4 0 6.3-.1 8.5 0 2.2-.1 4-.2 5.5s-.2 2.7-.3 3.6c-.1.8-.2 1.5-.3 2.2-.2.1-.4.2-.7.3-.4.1-.8.2-1.5.3-1.2.3-1.7.3-2 .4-.8.1-1.6.7-1.6 2 0 .6.2 1.1.6 1.4.4.4.8.5 1.3.5.2 0 .7 0 2.5-.4 1.2-.2 3.1-.3 5.5-.3 1.9 0 3.7.1 5.2.2 1.6.2 2.9.2 3.8.2.6 0 1.2-.2 1.5-.5.4-.4.6-.8.6-1.4 0-.9-.5-1.6-1.4-1.9-.5-.2-1.1-.3-1.8-.3-.6 0-1.2-.1-1.9-.2-.4-.1-.7-.2-1-.4-.2-1.2-.4-2.6-.4-4.4-.1-2-.1-4.2-.1-6.3 0-2.7-.2-5.4-.2-8.1 0-.2 0-.4.1-.5.2-.2.4-.2.7-.2 2.3.1 4.5 1.4 6 3.1 1.6 1.7 2.7 3.8 3.7 5.9l5.4 10.5c.7 1.4 1.3 2.9 2 4.3s2.1 2.6 3.2 3.6 2.3 1.8 3.5 2.4c1.3.6 2.6 1 4 1 3.7 0 5.1-2 5.7-3.7l.1-.3.2-.7zm-23.5-36.8c-.3.8-.6 1.4-1 2-.4.6-.8 1.1-1.2 1.6-.5.5-.8.7-1 .9-.5.3-.9.5-1.4.6-.5.1-1.3.2-2.1.2h-3.2c-.4 0-.6 0-.8-.1 0-1 0-2.1.1-3.2 0-1.3.1-2.5.2-3.6.1-1.2.2-2.2.3-3.2.1-.9.2-1.7.4-2.2l.2-.7c.1-.3.3-.5.6-.7.4-.3.8-.5 1.4-.8.5-.2 1.1-.4 1.6-.5.5-.1.8-.2 1.2-.2.6 0 1.2.1 1.8.4.7.3 1.3.8 1.8 1.4.6.7 1 1.5 1.3 2.5.3 1 .5 2.1.5 3.4-.3.7-.4 1.5-.7 2.2zM219.9 45.1c0-1.8.3-3.6 1-5.3.7-1.6 1.8-3.1 2.9-4.4.3-.4.6-.7.8-1.2.4-1.3-.6-2.1-1.8-1.9-.8.2-1.5.7-2.1 1.3-1.9 1-3.7 4.1-4.8 5.9-1.3 2.3-2.2 4.7-3.3 7.1l-.3.6c-.5.7-1.6.9-2.3.4-.5-.3-.8-1-.9-1.6-.4-2.9-.1-5.8-.1-8.8 0-2.4 0-5.1.1-8 0-2.9.1-5.6.2-8.2.1-2.5.2-4.8.3-6.7.1-1.7.2-2.5.3-2.8.1-.1.4-.1.7-.2.7-.2 1.5-.4 2.2-.5.8-.2 1.5-.5 2.1-.7 1.3-.6 1.5-1.5 1.5-2 0-2-.9-2.5-1.6-2.5-.1 0-.3 0-.4.1h-.1l-.3.2c-.1 0-.3.2-1 .4-.6.2-1.3.4-2.2.6-.9.2-1.9.4-3.1.6-1.1.2-2.4.3-3.6.3h-2.7c-1.1-.1-2-.2-2.7-.3-.7-.1-1.2-.2-1.6-.2h-.4c-.7.1-1.3.6-1.4 1.2-.1.3-.1.7-.1 1.1 0 .4.1.9.6 1.4.4.4 1.1.6 2.2.7l2.5.2c0 .2.1.4.1.6.1.6.2 1.7.2 3.1.1 1.4.1 3.4.2 5.8 0 2.4.1 5.5.1 9.3 0 2.7 0 5.4-.1 7.9s-.1 4.7-.2 6.6c-.1 1.9-.2 3.5-.3 4.8-.1 1.1-.2 1.7-.3 1.9-.1 0-.1.1-.3.1-.4.2-.9.3-1.4.5-.6.2-1.1.3-1.7.4-.6.1-1 .1-1.2.1-.9-.1-1.6.4-1.9 1.3-.1.4-.2.9-.2 1.3 0 1.3.9 1.9 1.8 1.9.6 0 1.3-.1 2.2-.3.7-.2 1.7-.4 2.9-.6 1.2-.2 2.6-.4 4.4-.6 1.7-.2 3.8-.3 6.3-.3 1.1 0 2 0 2.9.1.8 0 1.6.1 2.3.2.6.1 1.3.2 1.8.3.5.1 1.1.2 1.6.4 0 0 .1 0 .1.1 0 .2-.1.4-.1.6 0 1.2.7 1.6 1.1 1.7.3.1.4.1.6.1.8 0 1.4-.5 1.6-1.2.1-.4.2-.7.2-1v-.3l.1-.1-.1-.1c-1.9-3.6-3.3-7.6-3.3-11.4zM186.1 45.1c0-1.8.3-3.6 1-5.3.7-1.6 1.8-3.1 2.9-4.4.3-.4.6-.7.8-1.2.4-1.3-.6-2.1-1.8-1.9-.8.2-1.5.7-2.1 1.3-1.9 1-3.7 4.1-4.8 5.9-1.3 2.3-2.2 4.7-3.3 7.1l-.3.6c-.5.7-1.6.9-2.3.4-.5-.3-.8-1-.9-1.6-.4-2.9-.1-5.8-.1-8.8 0-2.4 0-5.1.1-8 0-2.9.1-5.6.2-8.2.1-2.5.2-4.8.3-6.7.1-1.7.2-2.5.3-2.8.1-.1.4-.1.7-.2.7-.2 1.5-.4 2.2-.5.8-.2 1.5-.5 2.1-.7 1.3-.6 1.5-1.5 1.5-2 0-2-.9-2.5-1.6-2.5-.1 0-.3 0-.4.1h-.1l-.3.2c-.1 0-.3.2-1 .4-.6.2-1.3.4-2.2.6-.9.2-1.9.4-3.1.6-1.1.2-2.4.3-3.6.3h-2.7c-1.1-.1-2-.2-2.7-.3-.7-.1-1.2-.2-1.6-.2h-.4c-.7.1-1.3.6-1.4 1.2-.1.3-.1.7-.1 1.1 0 .4.1.9.6 1.4.4.4 1.1.6 2.2.7l2.5.2c0 .2.1.4.1.6.1.6.2 1.7.2 3.1.1 1.4.1 3.4.2 5.8 0 2.4.1 5.5.1 9.3 0 2.7 0 5.4-.1 7.9s-.1 4.7-.2 6.6c-.1 1.9-.2 3.5-.3 4.8-.1 1.1-.2 1.7-.3 1.9-.1 0-.1.1-.3.1-.4.2-.9.3-1.4.5-.6.2-1.1.3-1.7.4-.6.1-1 .1-1.2.1-.9-.1-1.6.4-1.9 1.3-.1.4-.2.9-.2 1.3 0 1.3.9 1.9 1.8 1.9.6 0 1.3-.1 2.2-.3.7-.2 1.7-.4 2.9-.6 1.2-.2 2.6-.4 4.4-.6 1.7-.2 3.8-.3 6.3-.3 1.1 0 2 0 2.9.1.8 0 1.6.1 2.3.2.6.1 1.3.2 1.8.3.5.1 1.1.2 1.6.4 0 0 .1 0 .1.1 0 .2-.1.4-.1.6 0 1.2.7 1.6 1.1 1.7.3.1.4.1.6.1.8 0 1.4-.5 1.6-1.2.1-.4.2-.7.2-1v-.3l.1-.1-.1-.1c-2-3.6-3.3-7.6-3.3-11.4z"/></g></g></svg>