<svg viewBox="0 0 158 95" xmlns="http://www.w3.org/2000/svg"><title>Ohana</title><g fill="#fff" fill-rule="evenodd"><path d="M19.5 29.1c-.2-.4-.8-.4-1 0l-2.8 4.2c-19.7 28.2-.2 56.8 0 57.1l2.8 4c.2.4.8.4 1 0l2.8-4c.2-.3 19.7-28.9 0-57l-2.8-4.3zm-1 54.7c-3.8-7.3-11.1-25.6 0-44.3.2-.4.8-.4 1.1 0 11.2 18.9 3.9 37.1 0 44.3-.3.4-.9.4-1.1 0zM61.4 31H51.2c-.5 0-.8.5-.6.9l3.5 7.1c0 .1.1.2.1.3v21.6c0 .2-.1.3-.2.4l-5.4 5.3c-.2.2-.6.2-.9 0l-5.3-5.3c-.1-.1-.2-.3-.2-.4V39.3c0-.1 0-.2.1-.3l3.5-7c.2-.4-.1-.9-.6-.9H34.8c-.4 0-.7.4-.6.8l1.6 7.1V84.4l-1.6 7.1c-.1.4.2.8.6.8h10.4c.5 0 .8-.5.6-.9l-3.5-7c0-.1-.1-.2-.1-.3V71c0-.6.7-.8 1.1-.4l4.4 4.4c.2.2.6.2.9 0l4.6-4.5c.4-.4 1.1-.1 1.1.4V84c0 .1 0 .2-.1.3l-3.5 7.1c-.2.4.1.9.6.9h10.2c.4 0 .7-.4.6-.8l-1.6-7.1V38.9l1.6-7.1c0-.4-.3-.8-.7-.8zM90.9 83.9l-7.6-37.2-3-14.5c-.1-.7-1.1-.7-1.2 0l-2.8 14.5-7.6 37.2v.1l-3.4 7.1c-.2.4.1.9.6.9h9.9c.4 0 .7-.4.6-.8L74.9 84l.9-6c.1-.4.6-.7.9-.4l2.8 1.6c.2.1.4.1.6 0l3.1-1.7c.4-.2.8 0 .9.4L85 84l-1.6 7.2c-.1.4.2.8.6.8H93.9c.5 0 .8-.5.6-.9l-3.6-7.2zM79.4 73L77 71.4c-.2-.1-.3-.4-.3-.6l2-10.9.5-2.6c.1-.7 1.1-.7 1.2 0l2.5 13.5c0 .3-.1.5-.3.6L80 73c-.1.1-.4.1-.6 0zM122.7 83.9V40.3c0-.1 0-.2.1-.3l3.1-7.1c.2-.4-.1-.9-.5-.9H116.2c-.4 0-.6.4-.5.8l1.4 7.3v29.1l.2 3.2-.8-3.1L105.2 32h-7.9c-.4 0-.7.5-.5.9l3.1 7.1c0 .1.1.2.1.3v43.8c0 .1 0 .2-.1.3l-3 6.9c-.2.4.1.9.5.9H106.6c.4 0 .6-.4.5-.8l-1.4-7.3v-28l-.2-4.1 1.1 4 11 36.2h7.9c.4 0 .7-.5.5-.9l-3.3-7.4zM.5 30.3L4 43.4c.2.7 1.1.6 1.2-.1l2.1-13.9c.1-.4-.3-.8-.7-.7l-5.6.7c-.3.2-.6.6-.5.9zM157.2 92.2c.5 0 .8-.5.6-.9l-3.5-7.4-7.6-37.2-3-14.5c-.1-.7-1.1-.7-1.2 0l-2.8 14.5L132 84v.1l-3.4 7.1c-.2.4.1.9.6.9h9.9c.4 0 .7-.4.6-.8l-1.5-7.2.9-6c.1-.4.6-.7.9-.4l2.8 1.6c.2.1.4.1.6 0l3.1-1.7c.4-.2.8 0 .9.4l.9 6.1-1.6 7.2c-.1.4.2.8.6.8H157.2v.1zM142.7 73l-2.4-1.6c-.2-.1-.3-.4-.3-.6l2-10.9.5-2.6c.1-.7 1.1-.7 1.2 0l2.5 13.5c0 .3-.1.5-.3.6l-2.6 1.6c-.2.1-.4.1-.6 0zM149.2 8.2L35.1 7.6h-.4V1.5c0-.7-.6-1.2-1.2-1.2h-2.2c-.7 0-1.2.6-1.2 1.2v5.8h-.9c-.2 0-.4-.1-.6-.2-1.7-.9-4.1-1.5-6.7-1.5-2.6 0-5 .6-6.7 1.5-.2.1-.4.2-.6.2h-.4c-.7 0-1.2-.6-1.2-1.2 0-.8-.7-1.4-1.5-1.2l-3.9.7c-.6.1-1 .6-1 1.2V14c0 .6.4 1.1 1 1.2l3.9.7c.8.1 1.5-.4 1.5-1.2 0-.7.6-1.2 1.2-1.2h.2c.2 0 .4.1.6.2 1.7 1 4.2 1.6 6.9 1.6 2.9 0 5.5-.7 7.2-1.8h1v5.8c0 .7.6 1.2 1.2 1.2h2.2c.7 0 1.2-.6 1.2-1.2v-6.1h.4l114.1-.6c1.5 0 2.8-.6 2.8-2.2s-1.3-2.2-2.8-2.2z"/></g></svg>