<svg viewBox="0 0 346 94" xmlns="http://www.w3.org/2000/svg"><title>Victoria and Albert</title><g fill="#fff" fill-rule="evenodd"><path d="M45.8 20.8h.4c.3 0 .7.1 1.2.2.4.1.9.2 1.3.4s.7.4.9.6c.2.2.3.5.3.8 0 .3-.1.9-.2 1.7-.2.8-.5 2.1-1.1 3.7-.8 2.2-1.5 4.3-2.2 6.3-.7 2-1.4 3.8-1.9 5.4-.6 1.6-1.1 2.9-1.5 4l-.3.9c-.2-.7-.5-1.4-.9-2.3-.5-1.4-1.1-3-1.7-4.6-.6-1.7-1.2-3.3-1.9-5-.6-1.7-1.2-3.3-1.7-4.7-.5-1.4-.9-2.7-1.2-3.7-.4-1.3-.4-1.7-.4-1.8 0-.3.1-.6.3-.8.3-.3.6-.5.9-.6.3-.1.7-.3 1-.3.4-.1.6-.1.8-.1l.4-.1v-1.3H24.6v1.4h.5c.6 0 1.1.1 1.4.3.4.2.7.4 1 .6.3.2.5.5.6.7.2.3.3.5.4.6l.5 1c.2.3.3.7.5 1 .2.4.3.8.5 1.2.2.4.4.9.6 1.5.7 1.9 1.4 3.9 2.1 5.8.7 1.9 1.5 3.9 2.2 6 .8 2.1 1.6 4.2 2.4 6.4.8 2.2 1.7 4.6 2.6 7l.1.3h1.1l2.2-4.9 2-5.5c.7-1.9 1.4-3.8 2.1-5.8.7-1.9 1.4-3.8 2.1-5.6.7-1.8 1.3-3.4 1.9-4.9.3-.9.6-1.6.9-2.2L53 23c.2-.3.3-.6.5-.8.1-.2.3-.3.4-.4 0 0 .2-.2.8-.6.5-.3 1.1-.5 1.7-.6l.4-.1v-1.4H45.9v1.7h-.1zM65 37.9c-.4-.1-.6-.3-.8-.6-.1-.1-.2-.3-.2-.9V22.2c0-.4.1-.8.2-1 .2-.4.4-.6.8-.7.4-.1.7-.2 1.1-.3h.2v-.8h-8v.8h.2c.4 0 .8.1 1.1.3.3.1.5.3.7.6.1.1.1.2.2.4 0 .2.1.4.1.7V36.3c0 .3-.1.5-.1.7 0 .1-.1.3-.1.3-.2.3-.5.5-.8.6-.3.1-.7.3-1.1.3h-.2v.8h8.1v-.8h-.2c-.4 0-.8-.1-1.2-.3zM84.1 19.8c-.1.2-.2.3-.3.4-.1.1-.2.3-.3.4l-.3.3c-.1 0-.1-.1-.3-.2-.3-.2-.7-.4-1.2-.7-.5-.2-1.1-.5-1.9-.7-.8-.2-1.7-.3-2.7-.3-1.1 0-2.1.1-3 .4-.9.3-1.7.6-2.4 1s-1.3.9-1.9 1.5c-.5.6-1 1.2-1.3 1.8-.3.5-.6 1-.8 1.6-.2.5-.3 1-.5 1.5-.1.5-.2.9-.2 1.3s-.1.8-.1 1.1c0 1.5.2 2.8.7 4 .5 1.2 1.2 2.3 2.1 3.2.9.9 2 1.6 3.3 2 1.3.5 2.7.7 4.3.7.9 0 1.8-.1 2.5-.3.7-.2 1.3-.4 1.9-.6.5-.2.9-.4 1.2-.6.1-.1.2-.2.3-.2l.2.2c.2.2.4.5.6.8l.1.1h.7l.1-6.4h-.8v.2c-.1.7-.4 1.4-.8 2.1-.4.7-.9 1.3-1.4 1.8-.6.5-1.2.9-1.9 1.3-.7.3-1.5.5-2.3.5-1 0-2-.2-2.8-.7-.9-.5-1.6-1.1-2.2-1.9-.6-.8-1.1-1.7-1.4-2.8-.3-1.1-.5-2.2-.5-3.5 0-1.2.2-2.3.5-3.4s.8-2.1 1.4-3c.6-.9 1.3-1.6 2.2-2.1.8-.5 1.8-.8 2.9-.8.8 0 1.5.2 2.2.5.7.3 1.3.7 1.9 1.2.6.5 1.1 1.2 1.5 1.9.4.7.7 1.5.9 2.3l.1.2.8-.1v-6.4h-.7l-.4.4zM104.8 19.2c-.4.1-.7.2-1.1.3-.3.1-.8.1-1.3.1H90.1c-.6 0-1.1-.1-1.4-.1-.3-.1-.7-.1-1-.2l-.3-.1-.8 5.5.7.2.1-.3c.1-.3.2-.6.4-.9.2-.3.4-.6.5-.9.2-.3.4-.6.5-.8.2-.2.3-.4.4-.5.3-.3.7-.5 1-.7.4-.1.9-.2 1.5-.2h2.9V36.1c0 .2-.1.5-.1.7 0 .2-.1.3-.1.3-.3.4-.7.7-1 .8l-1.2.3H92v.8h8.6v-.8h-.2c-.3-.1-.8-.2-1.2-.3-.4-.1-.7-.3-.9-.7-.1-.1-.2-.3-.2-.8V20.8H101c.6 0 1.1.1 1.5.2.4.1.7.3 1 .6.1.1.3.3.4.5.2.3.4.5.6.8.2.3.4.6.5.9.2.3.3.7.5 1l.1.2.7-.2-.9-5.7-.6.1zM123.7 22.2c-.8-.9-1.8-1.7-2.9-2.2-1.1-.5-2.5-.8-3.9-.8-1.3 0-2.6.2-3.8.7-1.2.5-2.3 1.1-3.1 2-.9.9-1.6 1.9-2.1 3.2-.5 1.2-.8 2.6-.8 4.2 0 1.5.3 2.8.8 4 .5 1.2 1.2 2.3 2.1 3.2.9.9 1.9 1.6 3 2 1.2.5 2.4.7 3.7.7 1.3 0 2.6-.2 3.7-.7 1.2-.5 2.2-1.2 3.1-2.1.9-.9 1.6-2 2.1-3.2.5-1.2.8-2.6.8-4 0-1.3-.2-2.5-.6-3.7-.6-1.3-1.3-2.4-2.1-3.3zm-11.5 13.3c-.5-.8-.9-1.8-1.1-2.8-.3-1.1-.4-2.2-.4-3.4 0-1.1.1-2.2.4-3.3.2-1.1.6-2.1 1.1-2.9.5-.8 1.1-1.5 1.9-2.1.7-.5 1.6-.8 2.6-.8s1.9.3 2.6.8c.7.5 1.4 1.2 1.9 2.1.5.9.9 1.8 1.1 2.9.3 1.1.4 2.1.4 3.2s-.1 2.2-.4 3.3c-.2 1.1-.6 2.1-1.1 2.9-.5.9-1.1 1.6-1.8 2.1s-1.6.8-2.6.8-1.9-.2-2.6-.7c-.9-.6-1.5-1.3-2-2.1z"/><path d="M143.4 37.4c-.6-.4-1.1-1.1-1.7-1.9-.4-.6-.8-1.3-1.4-2.1-.5-.8-1-1.5-1.4-2.2-.3-.4-.5-.7-.8-1l-.5-.5 1.2-.6c.5-.3 1-.7 1.4-1.1.4-.4.7-.9.9-1.5.2-.6.4-1.2.4-1.9 0-1.1-.2-2-.7-2.8-.5-.7-1.1-1.3-1.9-1.7-.7-.4-1.6-.7-2.5-.7-.9-.1-1.9-.1-3-.1H126.4v.8h.2c.4.1.8.1 1.1.2.3.1.5.2.7.5 0 0 .1.1.2.4.1.2.1.5.1.8v13.4c0 .3 0 .6-.1.8 0 .3-.1.5-.1.7 0 .2-.1.3-.1.4-.2.2-.4.4-.8.5-.4.1-.7.2-1.1.3h-.2v.8h8.5v-.8h-.3c-.6 0-1.1-.2-1.5-.4-.3-.2-.6-.4-.7-.6-.1-.2-.2-.5-.2-.9V30h.3c.1 0 .4 0 .7.1.4.1.7.3 1.1.6.4.3.7.7 1 1.1.4.5.7.9 1 1.3.3.4.6.8.8 1.2.2.4.5.8.7 1.2.2.4.5.8.8 1.3.3.4.5.7.6.9.1.2.2.4.3.5.1.1.2.2.2.3.1.1.2.2.3.4l.1.1h5.5v-.8h-.2c-.7-.1-1.4-.4-1.9-.8zM132 26.5V20.4h1.1c.5 0 .9 0 1.3.1s.8.2 1.2.4c.7.4 1.3.9 1.7 1.5.4.6.6 1.4.6 2.2 0 .4-.1.9-.2 1.3s-.3.8-.5 1.2c-.2.4-.5.7-.9.9-.4.3-.8.5-1.3.7-.5.2-1.1.3-1.6.4-.5.1-1 .1-1.6.1v-2.7h.2zM153.4 37.9c-.4-.1-.6-.3-.8-.6-.1-.1-.2-.3-.2-.9V22.2c0-.4.1-.8.2-1 .2-.4.4-.6.8-.7.4-.1.7-.2 1.1-.3h.2v-.8h-8v.8h.2c.4 0 .8.1 1.1.3.3.1.5.3.7.6.1.1.1.2.2.4 0 .2.1.4.1.7V36.3c0 .3-.1.5-.1.7 0 .1-.1.3-.1.3-.2.3-.5.5-.8.6-.3.1-.7.3-1.1.3h-.2v.8h8.1v-.8h-.2c-.5 0-.8-.1-1.2-.3zM173.9 37.9c-.3-.1-.5-.3-.6-.4-.2-.2-.3-.3-.4-.5-.1-.2-.2-.3-.2-.3l-.5-1.2c-.2-.3-.3-.8-.5-1.3-.4-1.1-.8-2.2-1.2-3.4-.4-1.1-.8-2.3-1.2-3.5-.4-1.2-.9-2.5-1.3-3.8-.5-1.3-1-2.7-1.5-4.2l-.1-.2h-.6l-.1.1c-.1.1-.2.3-.3.5-.1.2-.3.4-.4.6l-.6.6c-.2.2-.5.3-.8.5l-.2.1.3.7c-.4 1-.8 2-1.2 3.1-.4 1.1-.9 2.3-1.4 3.4l-1.3 3.3c-.4 1.1-.8 2-1.2 2.8-.4.9-.7 1.6-1 2-.3.6-.5.8-.6.8 0 0-.1.1-.5.3-.3.2-.6.3-1 .3h-.2v.8h5.8v-.8h-.2c-.2 0-.4-.1-.7-.1-.2 0-.4-.1-.6-.2-.2-.1-.3-.2-.4-.3-.1-.1-.1-.2-.1-.4s.1-.8.5-1.9c.2-.6.5-1.2.7-1.8.2-.6.4-1.1.7-1.7h6.2l.6 1.8c.2.6.4 1.2.6 1.7.2.5.3 1 .4 1.3.1.4.1.6.1.7 0 .2 0 .3-.2.4-.1.1-.3.2-.5.3-.2.1-.4.1-.5.2h-.6v.8h7.8v-.9h-.3c-.2 0-.4-.1-.7-.2zm-9.8-14c.1-.2.1-.3.2-.4.1.3.2.5.3.8.2.6.5 1.3.7 2 .3.7.6 1.5.8 2.3.2.7.5 1.3.7 2h-5.4l1-2.5c.3-.9.6-1.7.9-2.4.4-.7.6-1.3.8-1.8zM217.6 37.9c-.3-.1-.5-.3-.6-.4-.2-.2-.3-.3-.4-.5-.1-.2-.2-.3-.2-.3l-.5-1.2c-.2-.3-.3-.8-.5-1.3-.4-1.1-.8-2.2-1.2-3.4-.4-1.1-.8-2.3-1.2-3.5-.4-1.2-.9-2.5-1.3-3.8-.5-1.3-1-2.7-1.5-4.2l-.1-.2h-.6l-.1.1c-.1.1-.2.3-.3.5-.1.2-.3.4-.4.6l-.6.6c-.2.2-.5.3-.8.5l-.2.1.3.7c-.4 1-.8 2-1.2 3.1-.4 1.1-.9 2.3-1.4 3.4l-1.3 3.3c-.4 1.1-.8 2-1.2 2.8-.4.9-.7 1.6-1 2-.3.6-.5.8-.6.8 0 0-.1.1-.5.3-.3.2-.6.3-1 .3h-.2v.8h5.8v-.8h-.2c-.2 0-.4-.1-.7-.1-.2 0-.4-.1-.6-.2-.2-.1-.3-.2-.4-.3-.1-.1-.1-.2-.1-.4s.1-.8.5-1.9c.2-.6.5-1.2.7-1.8.2-.6.4-1.1.7-1.7h6.2l.6 1.8c.2.6.4 1.2.6 1.7.2.5.3 1 .4 1.3.1.4.1.6.1.7 0 .2 0 .3-.2.4-.1.1-.3.2-.5.3-.2.1-.4.1-.5.2h-.6v.8h7.8v-.9h-.3c-.2 0-.5-.1-.7-.2zm-9.8-14c.1-.2.1-.3.2-.4.1.3.2.5.3.8.2.6.5 1.3.7 2 .3.7.6 1.5.8 2.3.2.7.5 1.3.7 2h-5.4l1-2.5c.3-.9.6-1.7.9-2.4.4-.7.6-1.3.8-1.8zM236.1 33.1l-.6 1.5c-.2.5-.5.9-.8 1.3-.3.4-.7.7-1.1 1-.4.3-.9.5-1.6.7-.3.1-.6.2-.9.2-.4.1-.7.1-1 .1-.3 0-.7 0-.9.1h-.6c-.3 0-.6 0-1-.1-.3 0-.6-.1-.9-.2-.3-.1-.5-.1-.7-.2-.2-.1-.3-.2-.3-.2-.1-.2-.2-.5-.2-1s0-1-.1-1.6V22.3c0-.4.1-.8.3-1 .2-.3.4-.5.6-.6.2-.1.5-.2.8-.3.3-.1.5-.1.8-.2h.2v-.8h-8.5v.8h.2c.4 0 .8.1 1.2.3.3.1.6.3.8.6.1.1.1.2.2.4 0 .2.1.4.1.7V35.4c0 .3-.1.6-.1.8 0 .2-.1.5-.1.7-.1.2-.1.3-.2.4-.2.2-.5.4-.8.6-.4.2-.8.3-1.2.3h-.2v.8h16.4l1-5.9-.7-.2-.1.2zM252.1 30c-.5-.4-1-.8-1.6-1l-.9-.3c.8-.3 1.4-.7 2-1.3.8-.8 1.1-1.8 1.1-3 0-1.1-.3-2.1-.9-2.8-.6-.7-1.3-1.3-2.2-1.6-.5-.2-1.1-.4-1.7-.5-.6-.1-1.2-.1-1.8-.1h-8.6v.8h.2c.4 0 .7.1 1 .2.2.1.4.2.6.5 0 0 .1.1.2.4.1.2.1.5.1.8 0 .3.1.6.1.9v12.3c0 .3 0 .6-.1.8 0 .3-.1.5-.1.7 0 .2-.1.3-.1.4-.2.2-.5.4-.8.6-.4.1-.7.3-1.1.3h-.2v.8h8.8c.7 0 1.5 0 2.3-.1.8-.1 1.5-.2 2.2-.5.4-.1.8-.4 1.2-.7.4-.3.7-.6 1-1 .3-.4.6-.9.8-1.4.2-.5.3-1.1.3-1.8s-.1-1.4-.4-2c-.6-.5-1-1-1.4-1.4zm-3.5-7.8c.4.6.6 1.4.6 2.2 0 1.1-.4 2.1-1.1 2.8-.7.8-1.8 1.2-3.2 1.3h-2v-8.1c.1 0 .3-.1.4-.1.3 0 .6-.1.9-.1 1.1 0 2 .2 2.7.5.9.4 1.3.9 1.7 1.5zm-4.7 15.7c-.3-.1-.4-.2-.6-.4-.2-.2-.3-.6-.3-.9 0-.4-.1-1-.1-1.6v-5.5h2.1c.5 0 .9 0 1.2.1.3 0 .7.1 1 .2.4.1.8.4 1.2.6.3.3.7.6.9.9.3.4.5.7.6 1.2.1.4.2.9.2 1.3 0 .8-.2 1.6-.5 2.2-.4.6-.9 1.1-1.5 1.4-.5.3-1 .5-1.5.5-1.2.2-2.2.2-2.7 0zM270.3 33.5c-.4.7-.8 1.4-1.2 1.9-.4.5-.8 1-1.2 1.3-.4.4-.8.6-1.2.8-.4.2-.9.3-1.4.4-.5.1-.9.1-1.3.1h-1.1c-.6 0-1.2-.1-1.8-.2-.6-.1-.8-.3-.9-.4-.1-.2-.2-.5-.2-1s-.1-1-.1-1.6v-5.5h2c.5 0 .9.1 1.2.3.3.1.6.3.9.5.3.3.5.7.8 1.3.3.6.5 1.1.6 1.7v.2h.8v-8.9h-.8v.2c-.1.5-.2.9-.3 1.3-.1.4-.3.7-.5 1-.2.3-.4.5-.7.7-.3.2-.7.4-1.2.5-.2 0-.5.1-.8.1-.3 0-.6 0-1 .1h-.9v-6.4c0-.7 0-1.2.1-1.5.1 0 .3 0 .6-.1h1.1c1.1 0 2 .1 2.7.2.9.1 1.3.3 1.5.3 1.1.6 2.4 1.8 3.7 3.5l.1.2.7-.4-1.8-4.8h-14.2v.8h.2c.4.1.8.1 1.1.2.2.1.5.2.7.5 0 0 .1.1.2.4.1.2.1.5.1.8v13.3c0 .3 0 .6-.1.8 0 .3-.1.5-.1.7 0 .2-.1.3-.1.4-.2.2-.5.4-.8.6-.3.1-.7.3-1.1.3h-.2v.8h15.7l1.4-5.5-.7-.2-.5.3zM289.1 37.4c-.6-.4-1.1-1.1-1.7-1.9-.4-.6-.8-1.3-1.4-2.1-.5-.8-1-1.5-1.4-2.2-.3-.4-.5-.7-.8-1l-.5-.5 1.2-.6c.5-.3 1-.7 1.4-1.1.4-.4.7-.9.9-1.5.2-.6.4-1.2.4-1.9 0-1.1-.2-2-.7-2.8-.5-.7-1.1-1.3-1.9-1.7-.7-.4-1.6-.7-2.5-.7-.9-.1-1.9-.1-3-.1H272.1v.8h.2c.4.1.8.1 1.1.2.3.1.5.2.7.5 0 0 .1.1.2.4.1.2.1.5.1.8v13.4c0 .3 0 .6-.1.8 0 .3-.1.5-.1.7 0 .2-.1.3-.1.4-.2.2-.4.4-.8.5-.4.1-.7.2-1.1.3h-.2v.8h8.5v-.8h-.3c-.6 0-1.1-.2-1.5-.4-.3-.2-.6-.4-.7-.6-.1-.2-.2-.5-.2-.9V30h.3c.1 0 .4 0 .7.1.4.1.7.3 1.1.6.4.3.7.7 1 1.1.4.5.7.9 1 1.3.3.4.6.8.8 1.2.2.4.5.8.7 1.2.2.4.5.8.8 1.3.3.4.5.7.6.9.1.2.2.4.3.5.1.1.2.2.2.3.1.1.2.2.3.4l.1.1h5.5v-.8h-.2c-.7-.1-1.4-.4-1.9-.8zm-11.4-10.9V20.4h1.1c.5 0 .9 0 1.3.1s.8.2 1.2.4c.7.4 1.3.9 1.7 1.5.4.6.6 1.4.6 2.2 0 .4-.1.9-.2 1.3s-.3.8-.5 1.2c-.2.4-.5.7-.9.9-.4.3-.8.5-1.3.7-.5.2-1.1.3-1.6.4-.5.1-1 .1-1.6.1v-2.7h.2zM306.4 19.2c-.4.1-.7.2-1.1.3-.3.1-.8.1-1.3.1H291.7c-.6 0-1.1-.1-1.4-.1-.3-.1-.7-.1-1-.2l-.3-.1-.8 5.5.7.2.1-.3c.1-.3.2-.6.4-.9.2-.3.4-.6.5-.9.2-.3.4-.6.5-.8.2-.2.3-.4.4-.5.3-.3.7-.5 1-.7.4-.1.9-.2 1.5-.2h2.9V36.1c0 .2-.1.5-.1.7 0 .2-.1.3-.1.3-.3.4-.7.7-1 .8l-1.2.3h-.2v.8h8.6v-.8h-.2c-.3-.1-.8-.2-1.2-.3-.4-.1-.7-.3-.9-.7-.1-.1-.2-.3-.2-.8V20.8H302.6c.6 0 1.1.1 1.5.2.4.1.7.3 1 .6.1.1.3.3.4.5.2.3.4.5.6.8.2.3.4.6.5.9.2.3.3.7.5 1l.1.2.7-.2-.9-5.7-.6.1zM310.6 19.4c-.4 0-.8.1-1.2.4-.4.3-.6.7-.6 1.2 0 .3.1.6.3.9.3.4.8.6 1.5.4.1 0 .2-.1.3-.1v.3c0 .5-.1.8-.4 1-.3.2-.7.4-1.2.5h-.2v.8h.3c.4 0 .9-.1 1.3-.2.4-.2.8-.4 1.1-.6.3-.3.6-.6.7-1 .2-.4.3-.8.3-1.3 0-.6-.2-1.2-.6-1.7-.4-.4-1-.6-1.6-.6zM305.3 67.6c8.8 2.1 12.6 1.7 17.8 1.4 2.2-.1 4.9-.7 7.5-1.9 2.7-1.2 4-2.4 5.6-4.2 1.9-2.2 2.9-5.6 2.9-8.5 0-2.4-.5-4.6-1.4-6.8-.4-.9-.9-1.8-1.6-2.6-2.4-2.9-5.1-4.9-8.6-6.1-3.9-1.4-7.9-2.6-11.2-5.2-.9-.7-1.8-1.6-2.4-2.6-1.2-2.1-1.1-4.3-.1-6.4.6-1.2 1.4-2.3 2.4-3.1 1-.8 2.1-1.4 3.4-1.8 1.3-.4 2.6-.6 4-.6 1.3 0 2.4.1 3.4.3.9.2 1.7.5 2.3.8.6.3 1.1.5 1.4.8.1 0 .1.1.2.1 0-.1.1-.1.2-.2.3-.3.5-.7.7-1l.1-.2h1.2V29h-1.3l-.1-.3c-.3-.9-.8-1.9-1.3-2.9-.5-.9-1.1-1.8-1.8-2.5s-1.4-1.3-2.3-1.8c-1.5-.8-3.5-.8-5.1-.3-.7.2-1.3.6-1.9 1.1-2.1 1.9-1.8 4.4-.1 6.4 2 2.3 5.6 3.1 8.4 4.2 4.6 1.9 10.1 4 13.3 8 4.1 5.1 5.2 12.4 3.1 18.7-1.7 5.3-7.4 9-12.7 10.6-7.5 2.2-17.9.9-26-1.4M141.9 42.4s.1 0 .4-.1c.3 0 .7-.1 1.2-.1s1.1-.1 1.8-.1h2.4c.4 0 .9.1 1.3.1.5 0 .9.1 1.4.2 1 .1 2 .4 3.1.7 1 .4 2.1.7 3.1 1.3.5.3 1 .6 1.5 1 .2.2.5.4.7.6.2.2.5.4.7.6l.6.7c.2.3.4.5.6.7.4.6.7 1.1.9 1.7.5 1.2.7 2.4.6 3.7-.1 1.2-.4 2.4-1.1 3.5-.6 1-1.6 1.8-2.6 2.2-1 .4-2 .5-2.9.5-.9 0-1.5-.2-2.1-.4-.6-.2-1-.3-1.3-.4-.3-.1-.4-.2-.4-.2-.8-.3-1.2-1.2-.8-2 .3-.8 1.2-1.2 2-.8 0 0 .1 0 .1.1h.1s.1.1.3.2c.2.1.5.3.9.4.8.3 2 .6 3.1.2.6-.2 1.2-.6 1.6-1.2.5-.6.8-1.4.9-2.3.1-.9 0-1.9-.2-2.9-.1-.5-.4-1-.6-1.4-.1-.2-.3-.5-.4-.7l-.5-.6c-.2-.2-.4-.4-.5-.6l-.6-.6c-.4-.3-.8-.7-1.3-1-.9-.6-1.9-1.1-2.8-1.5-1-.4-1.9-.7-2.9-.9-.5-.1-.9-.2-1.4-.3-.4-.1-.9-.2-1.3-.2-.8-.1-1.6-.2-2.3-.2-.7 0-1.3 0-1.8-.1h-1.2c-.2.2-.3.2-.3.2zM25.7 20.3s-.5.1-1.5.2-2.4.3-4.1.7c-.9.2-1.8.5-2.8.9l-1.5.6c-.5.3-1.1.5-1.6.8-2.1 1.2-4.3 2.9-6 5.2-1.8 2.3-3 5.3-3.6 8.6-.5 3.3-.5 6.9.3 10.5.7 3.6 2.2 7.2 4.4 10.4 1.1 1.6 2.4 3.1 3.8 4.4 1.5 1.3 3.1 2.3 4.9 3.3 1.7.9 3.6 1.7 5.5 2.3 1.9.6 3.9 1.1 5.8 1.4 3.9.7 7.9.8 11.7.5 3.8-.2 7.5-.8 11-1.5s6.7-1.5 9.7-2.4c6-1.7 10.9-3.4 14.3-4.5 3.4-1.2 5.4-1.9 5.4-1.9l.1.3s-1.9.8-5.3 2.1-8.2 3.1-14.2 5c-3 .9-6.2 1.9-9.7 2.7-3.5.8-7.2 1.5-11.2 1.9-3.9.4-8 .4-12.2-.2-2.1-.3-4.1-.7-6.2-1.3-2-.6-4-1.4-6-2.3-1.8-.9-3.8-2-5.5-3.4-1.7-1.4-3.2-3-4.5-4.7-2.6-3.5-4.3-7.4-5.1-11.4-.9-4-.9-8.1-.1-11.7.4-1.8 1-3.6 1.8-5.2s1.7-3.1 2.8-4.3c2.1-2.5 4.7-4.3 7.1-5.3 2.4-1 4.7-1.5 6.5-1.7.5-.1.9-.1 1.3-.1s.8 0 1.2-.1c.7-.1 1.3 0 1.8 0 1 0 1.5.1 1.5.1l.2.1z"/><path d="M36.8 71.8c-7.6 0-14.8-1.6-21.4-5.4C5.5 60.6.1 46.9 3.3 35.3c2.7-10 11-15.7 22.7-15.7v1.2c-11.1 0-19 5.4-21.6 14.8-3 11.1 2.1 24.2 11.6 29.7 19.6 11.5 44.8 2 71.5-8 17.5-6.6 35.7-13.4 54.3-15.5 1.3-.1 13.1-1.2 18.3 5.8 2.2 2.9 2.3 6.9.3 9.4-1.8 2.2-4.8 2.5-8.1.8l.5-1.1c2.8 1.4 5.2 1.2 6.6-.5 1.6-2 1.5-5.4-.3-7.9-3.9-5.2-12.6-5.8-17.2-5.3-18.4 2-36.5 8.8-54 15.4-18.1 6.8-35.5 13.4-51.1 13.4zM187.3 59.9c-4.6 0-9.2-1.5-13.1-4.4-8.8-6.5-6.8-18.3-5.1-21.6 3.4-6.8 7.9-9.6 11.1-10.9 2.3-.9 4.2-1 5.3-1.1-1.9-3-2.9-8.6-1.2-13.1.4-1 .9-2 1.7-3.1-4.3-4.1-9.1-4.6-12.1-2.7-2.6 1.6-4.4 5.6-.9 11.3.1.2.1.5-.2.6-.2.1-.5.1-.6-.2-3.6-5.9-2-10.6 1.2-12.6 2.1-1.3 5-1.6 7.8-.6 1.5.5 3.4 1.5 5.4 3.4 1.8-2 4.5-3.8 8.9-4.5 5-.8 10.5 1.1 13.2 4.7 1.9 2.5 2.1 5.5.6 8.5-2 4-6.9 5.8-11.2 4.1-4.7-1.8-7.3-5.8-9.2-8.7-.7-1.1-1.5-2-2.2-2.8-.6.8-1.1 1.7-1.5 2.7-1.9 5.2-.2 10.8 1.6 13 .1.1.1.3 0 .5s-.3.3-.5.2c-.4 0-10.3-1-16.4 11.4-1 1.9-4.1 13.9 4.8 20.5 5.1 3.8 11.7 5.1 17.5 3.5 4.9-1.3 8.6-4.5 10.5-8.9 1.9-4.3 1.5-8.8-1-11.9-2.1-2.7-5.4-3.8-8.9-3.2-2.7.5-4.5 2.7-5.2 5.2 1.2-.6 2.3-1.2 3.3-1.5 1.7-.6 4.4-.5 6.4.8 1.3.8 2 2.1 2.2 3.6.2 2.2-.2 3.9-1.3 5.1-1.1 1.2-2.8 1.8-4.9 1.8-4.7-.1-6.6-3.4-6.8-6.5V41c-4.5 2.5-10 5.4-14.8 1-.2-.2-.2-.5 0-.6.2-.2.5-.2.6 0 4.4 4 9.5 1.2 14-1.3.1-.1.2-.1.3-.2.6-3.1 2.7-6.1 6.1-6.7 3.8-.7 7.5.6 9.8 3.5 2.7 3.4 3.1 8.2 1.1 12.8-2 4.7-6 8-11.1 9.4-1.7.8-3.4 1-5.2 1zm.2-19.1c-.1.7-.1 1.3-.1 2 .3 3.5 2.5 5.6 5.9 5.7 1.8 0 3.3-.5 4.2-1.5.9-1 1.3-2.5 1.1-4.4-.1-1.3-.7-2.2-1.8-2.9-1.7-1.1-4.1-1.1-5.6-.7-1.1.4-2.4 1.1-3.7 1.8zm-.2-35.1c.8.9 1.6 1.9 2.4 3.1 2.4 3.6 4.7 6.8 8.8 8.3 3.4 1.3 8.1.3 10-3.7 1.7-3.4.6-6-.5-7.6-2.4-3.3-7.7-5.2-12.3-4.4-3.6.7-6.5 2.1-8.4 4.3z"/><path d="M191.5 56.3c-5.7 0-11.5-3-14.2-7.6-2.7-4.7-3.2-13.1.7-18.8 2.3-3.3 6.8-7 15.7-6.1-5-4.9-5.1-12.3-2.1-17 3.8-6 10.7-5.5 15.8-2.9.2.1.3.4.2.6-.1.2-.4.3-.6.2-9.2-4.5-13.5.9-14.7 2.6-3 4.7-2.6 12.2 3.1 16.8.2.1.2.4.1.5-.1.2-.3.3-.5.3-9.4-1.4-14 2.2-16.2 5.5-3.7 5.5-3.3 13.4-.7 17.9 3.1 5.3 10.5 8.3 16.9 6.7 5.4-1.3 8.7-5.5 9.1-11.6 0-.3.2-.4.5-.4s.4.2.4.5c-.4 6.5-3.9 11-9.8 12.4-1.2.3-2.5.4-3.7.4z"/><path d="M192.2 51.1c-3 0-6-1.6-7.4-4.2-1.6-2.9-1.7-6.4-.3-9.5 1.9-4.4 6.2-7.7 12.3-9.3 2.4-.7 4.8-1.2 7.1-1.7 4.1-.9 7.6-1.6 10-2.9 3.8-2 6-4.8 6.3-7.9.2-2.9-1.3-5.8-4.3-8-.2-.2-.2-.4-.1-.6.2-.2.4-.2.6-.1 3.2 2.4 4.9 5.6 4.7 8.8-.3 3.4-2.7 6.5-6.8 8.6-2.5 1.3-6.1 2.1-10.2 3-2.3.5-4.6 1-7.1 1.7-5.7 1.5-9.9 4.7-11.7 8.8-1.2 2.9-1.1 6.1.3 8.7 1.4 2.5 4.4 4 7.4 3.7 2.7-.3 4.6-2 5.3-4.6.1-.2.3-.4.6-.3.2.1.4.3.3.6-.8 3-3 4.9-6.1 5.3-.2-.1-.5-.1-.9-.1zM301.8 66.5c-7.3-2.5-14.9-5.8-22.7-9.2-15.1-6.6-30.7-13.4-46.7-15.5-.9-.1-8.1-.9-13.1 2.9-.1.1-.2.1-.3.2-.4.3-.9.6-1.2 1.1l-.6.6-.5.6-.3.3c-.1.2-.2.2-.2.3-.1.2-.3.5-.4.7-.3.5-.5 1-.6 1.6-.3 1.1-.5 2.2-.4 3.3 0 1.1.3 2.2.8 3.1.5 1 1.2 1.8 2.1 2.3.9.5 1.9.7 2.7.6.8 0 1.5-.2 2-.4s.9-.3 1.1-.5c.3-.1.4-.2.4-.2s.1 0 .1-.1c.7-.4.9-1.3.5-1.9-.4-.7-1.3-.9-1.9-.5h-.1s-.1.1-.3.2l-.8.4c-.7.3-1.7.6-2.6.2-.5-.2-1-.6-1.3-1.2-.4-.6-.6-1.4-.7-2.2-.1-.9-.1-1.8.1-2.7.2-.9.5-1.8 1.1-2.6l.4-.6.5-.6c.2-.2.4-.5.6-.7 3.8-3.3 9.6-3.6 12.9-3.2 15.8 2 31.4 8.8 46.4 15.4 9.1 4 18 7.9 26.6 10.4v-1.2c-1.3-.2-2.5-.5-3.6-.9zM188 92.7l-.6-.5c1.7-2.1 2.1-4 1.4-5.6-1.3-2.8-6.1-4.1-7.8-4.2-1.5 0-2.5-.6-3-1.6-.3-.8-.2-1.7.4-2.4.7-.8 1.7-1 2.9-.7 1 .3 2.2.4 2.6-.6.9-2.2-1.9-7.8-8.5-11.7-1.5-.9-3.6-1.6-5.8-2.1-1.6 5.7-6.6 8.7-10.7 8.8-2.7 0-4.6-1.2-5-3.3-.5-2.1.2-3.8 1.8-5 2.9-2.1 8.5-2.3 13.3-1.4 0-.1 0-.2.1-.3.8-4 .1-7.4-2.2-10-3.7-4.2-10.9-5.7-16.1-5.3-12.8.9-25.7 6.4-38.2 11.7-19.5 8.3-37.9 16.1-56 7.8-6.7-3.1-10.7-11.1-9.1-18.2.7-3.1 3.5-10.3 15-10.3v.8c-11 0-13.6 6.8-14.3 9.7-1.5 6.8 2.3 14.4 8.7 17.3 17.8 8.2 36 .4 55.3-7.8 12.5-5.3 25.5-10.8 38.4-11.7 4.1-.3 12.3.6 16.8 5.6 2.5 2.8 3.3 6.4 2.4 10.7 0 .1 0 .2-.1.3 2.4.5 4.5 1.3 6.1 2.2 6.7 4 10.1 9.9 8.9 12.7-.2.6-1.1 1.8-3.6 1.1-.8-.2-1.6-.1-2 .4-.4.4-.5 1-.3 1.5.3.7 1.1 1.1 2.2 1.1 1.7 0 7 1.3 8.5 4.6.9 1.9.4 4.1-1.5 6.4zm-24.4-29.9c-3 0-5.7.5-7.4 1.7-1.4 1-1.9 2.4-1.5 4.2.4 1.7 2 2.7 4.2 2.7 3.8 0 8.4-2.9 9.9-8.1-1.7-.3-3.5-.5-5.2-.5z"/><path d="M62.5 38.3s-.7.1-1.9.2c-1.2.2-3 .5-5 1.4-1 .4-2.1 1.1-3.1 1.9-1 .9-1.9 1.9-2.6 3.3-1.4 2.7-1.8 6.2-.8 9.8.5 1.8 1.3 3.6 2.5 5.1l.4.6.5.6c.3.4.7.7 1 1.1.8.7 1.5 1.3 2.4 1.8.4.3.9.5 1.4.7l1.5.6c.5.2 1.1.5 1.6.6.5.2 1.1.3 1.6.5l.8.2.8.2c.6.1 1.1.3 1.7.4.6.1 1.1.2 1.7.3.6.1 1.2.2 1.7.2.6 0 1.2.1 1.8.1.6.1 1.2 0 1.8 0 1.2 0 2.4-.1 3.6-.1 2.4-.2 4.9-.6 7.4-1.1 4.9-1 9.8-2.6 14.7-4.5 4.9-1.8 9.7-3.8 14.4-5.8 4.8-2 9.5-3.9 14.2-5.6 4.7-1.7 9.3-3 13.8-4 2.2-.5 4.5-.8 6.6-1.1 1.1-.1 2.1-.2 3.2-.2 1-.1 2.1-.1 3.1 0 4.1.3 7.7 1.4 10.6 3.1 1.4.9 2.6 1.9 3.6 3 .9 1.1 1.5 2.3 1.9 3.5.4 1.1.5 2.2.5 3.1V60c0 .2 0 .3-.1.5-.1.6-.2 1.1-.3 1.4-.1.3-.1.5-.1.5s0-.2.1-.5c0-.3.1-.8.1-1.4 0-1.2 0-3.1-.9-5.1-.4-1-1.1-2.1-2-3-.9-.9-2.1-1.8-3.4-2.5-1.4-.7-2.9-1.2-4.6-1.6-1.7-.4-3.5-.6-5.4-.6-1.9-.1-3.9.3-5.9.6-2.1.3-4.2.7-6.3 1.3-4.3 1.1-8.7 2.6-13.3 4.3-4.6 1.7-9.2 3.8-13.9 5.8-4.7 2-9.6 4.1-14.5 6-5 1.8-10.1 3.5-15.3 4.5-5.2 1.1-10.5 1.4-15.6.8-.6 0-1.3-.2-1.9-.3-.6-.1-1.2-.2-1.9-.3-.6-.2-1.2-.3-1.8-.5l-.9-.2-.9-.3-1.8-.6c-.6-.2-1.1-.5-1.6-.7l-.8-.3-.4-.2-.2-.1h-.1s-.1-.1-.1 0H56c-.5-.3-1.1-.6-1.6-.9-1.1-.6-2-1.5-2.8-2.3-.8-.9-1.6-1.7-2.2-2.7-1.3-1.9-2-4-2.5-6-.9-4.1-.2-8.1 1.6-11 .9-1.4 2-2.6 3.2-3.4 1.2-.8 2.4-1.4 3.5-1.8 2.2-.8 4.1-.8 5.3-.9 1.3-.3 2-.2 2-.2zM175.6 65.2s.1.1.4.2c.3.2.7.4 1.2.7 1 .7 2.4 1.6 3.8 3.1.7.7 1.5 1.6 2.1 2.6.7 1 1.3 2.1 1.6 3.4.1.7.2 1.4 0 2.1-.1.4-.3.8-.6 1-.3.3-.7.5-1.1.5-.8.2-1.6 0-2.2-.2-.5-.1-1.1 0-1.5.2-.4.3-.5.7-.4 1.1.1.4.4.8.9 1 .2.1.5.2.8.2.1 0 .3 0 .4.1.2 0 .4 0 .5.1.7.1 1.4.2 2 .4 1.3.3 2.5.8 3.6 1.4 1.1.6 2.1 1.5 2.7 2.6.7 1.1.8 2.4.6 3.4-.2 1-.5 1.8-.8 2.4-.3.6-.6 1-.8 1.3-.2.3-.3.4-.3.4-.4.5-1.2.7-1.7.3-.5-.4-.7-1.2-.3-1.7v-.1l.3-.3c.2-.2.4-.6.7-1 .3-.4.5-1 .7-1.6.1-.6.1-1.3-.3-2-.3-.7-1-1.4-1.9-2-.9-.6-2-1.1-3.1-1.4-.6-.2-1.2-.3-1.8-.5-.2 0-.3-.1-.4-.1-.2 0-.4-.1-.6-.1-.4-.1-.7-.2-1.1-.4-.7-.4-1.4-1.1-1.6-2-.2-.9.3-1.9 1-2.4.8-.5 1.7-.5 2.4-.3l.5.1c.1 0 .3.1.4.1.3.1.6.1.8 0 .5-.1.9-.4 1.1-.9.2-.5.2-1.1.1-1.7-.2-1.2-.7-2.3-1.3-3.3-.6-1-1.3-1.8-1.9-2.6-1.3-1.5-2.7-2.6-3.6-3.3-.5-.4-.9-.6-1.1-.8-.1.1-.2 0-.2 0z"/><path d="M188.2 92.9l-1-.8c1.6-2 2.1-3.8 1.4-5.4-1.3-2.7-6-4-7.6-4-1.5 0-2.7-.7-3.1-1.7-.4-.9-.2-1.9.4-2.6.7-.8 1.9-1.1 3.1-.7.9.3 2 .4 2.4-.5.9-2.1-1.9-7.6-8.4-11.4-1.5-.9-3.4-1.6-5.6-2-1.7 5.6-6.7 8.7-10.8 8.7-2.7 0-4.7-1.3-5.2-3.5s.2-4 1.9-5.3c2.9-2.1 8.4-2.3 13.2-1.4v-.1c.8-4 .1-7.3-2.2-9.8-3.6-4.1-10.8-5.6-15.9-5.2-12.8.9-25.7 6.4-38.1 11.7C99.1 64.7 86 70.3 73.1 70.3c-5.6 0-11.1-1-16.6-3.6-6.8-3.1-10.8-11.2-9.2-18.5 1.4-6.6 7.1-10.5 15.2-10.5v1.2c-7.6 0-12.7 3.5-14.1 9.5-1.5 6.7 2.3 14.2 8.5 17.1 5.3 2.4 10.7 3.4 16.1 3.4 12.6 0 25.6-5.5 39.1-11.2 12.5-5.3 25.5-10.8 38.5-11.7 4.2-.3 12.4.6 16.9 5.7 2.5 2.8 3.3 6.5 2.5 10.9v.1c2.3.5 4.4 1.3 5.9 2.1 6.8 4.1 10.2 10.1 8.9 13-.3.6-1.2 2-3.9 1.2-.8-.2-1.4-.1-1.8.4-.3.4-.4.9-.2 1.3.3.6 1 1 2 1 1.7 0 7.1 1.3 8.7 4.7 1 1.8.5 4-1.4 6.5zM163.6 63c-2.9 0-5.6.5-7.3 1.7-1.3 1-1.8 2.3-1.4 4 .3 1.6 1.9 2.5 4 2.5 3.7 0 8.1-2.7 9.6-7.8-1.6-.3-3.3-.4-4.9-.4z"/><path d="M199.7 65.2s-.1.1-.4.3c-.3.2-.7.4-1.1.8-.9.7-2.3 1.8-3.6 3.3-.7.8-1.3 1.6-1.9 2.6-.6 1-1.1 2.1-1.3 3.3-.1.6-.1 1.2.1 1.7s.6.8 1.1.9h.8c.1 0 .3-.1.4-.1l.5-.1c.8-.2 1.7-.2 2.4.3.8.5 1.2 1.5 1 2.4-.2.9-.9 1.6-1.6 2-.4.2-.7.3-1.1.4-.2 0-.4.1-.6.1-.2 0-.3 0-.4.1-.6.1-1.2.3-1.8.5-1.1.4-2.2.9-3.1 1.4-.9.6-1.6 1.3-1.9 2-.4.7-.4 1.4-.3 2 .1.6.4 1.2.7 1.6.3.4.5.8.7 1l.3.3c.4.5.3 1.3-.2 1.7-.5.4-1.3.3-1.7-.2v-.1s-.1-.1-.3-.4c-.2-.3-.5-.7-.8-1.3-.3-.6-.7-1.4-.8-2.4-.2-1 0-2.3.6-3.4s1.7-1.9 2.7-2.6c1.1-.6 2.3-1.1 3.6-1.4.6-.2 1.3-.3 2-.4.2 0 .4 0 .5-.1.1 0 .3 0 .4-.1.3 0 .5-.1.8-.2.5-.2.8-.5.9-1 .1-.4 0-.9-.4-1.1-.4-.3-.9-.4-1.5-.2s-1.4.3-2.2.2c-.4-.1-.8-.2-1.1-.5-.3-.3-.5-.7-.6-1-.2-.8-.1-1.5 0-2.1.3-1.3.9-2.4 1.6-3.4.7-1 1.4-1.8 2.1-2.6 1.4-1.5 2.8-2.4 3.8-3.1.5-.3.9-.6 1.2-.7.3-.3.5-.4.5-.4z"/><path d="M187.1 92.9c-1.9-2.4-2.4-4.7-1.5-6.6 1.6-3.5 7-4.7 8.7-4.7 1 0 1.8-.4 2-1 .2-.4.1-.9-.2-1.3-.4-.5-1.1-.6-1.8-.4-2.7.8-3.6-.6-3.9-1.2-1.3-2.9 2.1-8.9 8.9-13 1.5-.9 3.6-1.6 5.9-2.1v-.1c-.9-4.4 0-8 2.5-10.9 4.5-5.1 12.7-5.9 16.9-5.7 12.3.9 25.4 6.8 38.1 12.5 21 9.5 40.9 18.5 54.4 3.6 3.4-3.7 4.2-8.9 2.2-13.4-2.7-6-9.7-9.6-18.8-9.6v-1.2c9.6 0 17.1 3.9 20 10.4 2.2 5 1.3 10.6-2.4 14.8-5.4 6-11.8 8.3-18.9 8.3-11.1 0-23.8-5.7-36.9-11.7-12.6-5.7-25.6-11.6-37.7-12.4-5.1-.4-12.3 1.1-15.9 5.2-2.2 2.5-3 5.8-2.2 9.8v.1c4.8-.9 10.3-.7 13.2 1.4 1.7 1.3 2.4 3.1 1.9 5.3-.5 2.2-2.5 3.5-5.2 3.5-4.2 0-9.2-3.1-10.8-8.7-2.1.5-4.1 1.2-5.6 2-6.5 3.9-9.4 9.4-8.4 11.4.4.9 1.5.8 2.4.5 1.2-.4 2.4-.1 3.1.7.6.7.8 1.7.4 2.6-.5 1.1-1.6 1.7-3.1 1.7-1.7 0-6.4 1.3-7.6 4-.7 1.5-.2 3.3 1.4 5.4l-1.1.8zm19.7-29.5c1.5 5 6 7.7 9.6 7.8h.1c2.1 0 3.6-.9 3.9-2.5.4-1.7-.1-3-1.4-4-2.5-1.8-7.6-2.1-12.2-1.3z"/><path d="M300.5 38.4s.5 0 1.6-.1c1 0 2.5 0 4.4.2 1.9.3 4.2.7 6.7 1.9 2.5 1.1 5.1 3.1 6.8 6.2.9 1.5 1.5 3.3 1.8 5.1.3 1.9.2 3.9-.3 5.8-.5 2-1.3 3.9-2.5 5.6l-.1.1-.1.1-.1.1-.2.3-.4.6c-.3.4-.7.8-1 1.2-.4.4-.7.8-1.1 1.1-.4.4-.8.7-1.2 1.1-1.7 1.4-3.7 2.5-5.8 3.3-2.1.8-4.4 1.2-6.6 1.4-4.5.3-9-.5-13.3-1.6-4.3-1.1-8.4-2.6-12.4-4.3-4-1.6-7.8-3.4-11.4-5.1-3.7-1.7-7.2-3.3-10.5-4.9-3.4-1.5-6.5-2.9-9.5-4.2-3-1.2-5.7-2.3-8.2-3.1-2.5-.8-4.7-1.4-6.5-1.9-1.8-.4-3.3-.7-4.3-.9-1-.2-1.5-.2-1.5-.2h1.6c1 .1 2.5.1 4.4.4 1.9.3 4.2.6 6.7 1.3 2.6.6 5.5 1.4 8.5 2.5 1.5.5 3.1 1.1 4.8 1.7 1.6.6 3.3 1.3 5.1 2 3.5 1.4 7.1 2.9 10.8 4.5 3.7 1.6 7.6 3.2 11.5 4.7 3.9 1.5 7.9 3 12 4 4 1.1 8.2 1.8 12.1 1.6 2-.1 3.9-.4 5.7-1 1.8-.6 3.4-1.5 4.9-2.6.4-.3.7-.6 1.1-.9.3-.3.7-.6 1-1 .3-.3.6-.6.9-1l.5-.6.2-.3.1-.1v-.1c1.1-1.4 1.9-3 2.3-4.6 1-3.2.6-6.6-.7-9.3-.6-1.3-1.5-2.5-2.5-3.5s-2.1-1.8-3.1-2.4c-.3-.2-.5-.3-.8-.5-.3-.1-.5-.3-.8-.4-.5-.2-1.1-.5-1.6-.7-.3-.1-.5-.2-.8-.3-.3-.1-.5-.2-.8-.2-.2-.1-.5-.1-.7-.2-.2-.1-.5-.1-.7-.2-.9-.2-1.7-.4-2.4-.5-.7-.1-1.3-.2-1.8-.2-1.3.1-1.8.1-1.8.1z"/><path d="M300.5 38.4h2.1c1.4 0 3.4.2 5.9.8 1.3.3 2.6.8 4.1 1.4 1.4.7 2.9 1.6 4.3 2.8 1.4 1.2 2.6 2.8 3.5 4.7.9 1.9 1.4 4.1 1.3 6.4-.1 2.3-.9 4.7-2.2 6.8-.7 1.1-1.6 2-2.4 2.9-.9.9-1.9 1.8-2.9 2.6s-2.2 1.5-3.4 2.1c-1.2.6-2.5 1.2-3.8 1.6-2.6.8-5.5 1.2-8.3 1.2-5.7-.1-11.4-1.5-16.9-3.4-5.5-1.9-11-4.3-16.3-6.6-5.4-2.4-10.7-4.9-16-7.1-2.7-1.1-5.3-2.1-7.9-3.1-2.6-.9-5.3-1.8-7.9-2.4-2.6-.7-5.2-1.1-7.8-1.4l-1-.1h-2.8c-1.2 0-2.5.2-3.7.4-2.4.4-4.7 1.2-6.6 2.3-1.9 1.1-3.5 2.7-4.4 4.5-.5.9-.8 1.9-.9 2.9-.2 1-.2 2-.1 2.9.1 1 .2 1.9.4 2.8.2.9.6 1.7 1 2.5 1.6 3.1 4.4 4.9 6.8 5.5 1.2.3 2.4.4 3.3.2 1-.1 1.7-.5 2.2-1 .5-.4.8-.9.9-1.2.1-.3.2-.5.2-.5s0 .2-.1.5-.3.8-.8 1.3c-1 1-3.2 1.7-5.8 1.1-1.3-.3-2.7-.9-4-1.8-1.3-.9-2.6-2.2-3.5-3.8-.5-.8-.9-1.7-1.2-2.6-.3-.9-.5-1.9-.6-3-.1-1-.1-2.1 0-3.2s.4-2.2.9-3.3c1-2.2 2.7-4 4.9-5.3 2.1-1.3 4.6-2.2 7.1-2.7 1.3-.3 2.6-.4 3.9-.5H225.1l1 .1c2.7.2 5.4.7 8.1 1.3 5.4 1.3 10.9 3.2 16.3 5.4s10.7 4.7 16.1 7.1c5.3 2.4 10.7 4.8 16.1 6.6 5.4 1.9 10.9 3.3 16.2 3.4 2.7.1 5.3-.2 7.7-.9 1.2-.3 2.4-.8 3.5-1.3s2.2-1.2 3.2-1.9 1.9-1.5 2.8-2.3c.9-.9 1.7-1.7 2.3-2.6 1.3-1.8 2-3.9 2.2-6 .2-2.1-.2-4.1-1-5.9-.7-1.8-1.9-3.3-3.1-4.5-1.2-1.2-2.6-2.1-4-2.9-1.3-.7-2.7-1.2-3.9-1.6-2.4-.7-4.5-1-5.8-1.1-.7-.1-1.2-.1-1.6-.1h-.7z"/><path d="M214.8 65.2s-1.2.1-2.9.5-4 1.2-5.9 2.5c-.5.3-.9.7-1.3 1-.4.4-.8.7-1.1 1.1-.3.4-.6.8-.8 1.2l-.3.6c-.1.2-.2.4-.2.6-.2.4-.2.7-.3 1-.1.3-.1.6-.2.8-.1.5-.1.7-.1.7v.1c-.1.7-.7 1.2-1.4 1.1-.7-.1-1.2-.7-1.1-1.4v-.2s.1-.3.2-.9c.1-.3.2-.6.3-1 .2-.4.3-.8.6-1.2.1-.2.2-.4.4-.7.1-.2.3-.5.5-.7.3-.4.7-.9 1.2-1.3.4-.4.9-.8 1.4-1.1.5-.3 1.1-.7 1.6-.9 2.2-1.1 4.7-1.6 6.4-1.8 1.8-.1 3 0 3 0z"/><path d="M200.3 75.4c-.2 0-.3-.2-.3-.4 1.4-9.8 14.7-10.2 14.8-10.2.2 0 .3.1.3.3 0 .2-.1.3-.3.3-.1 0-12.8.4-14.2 9.7 0 .2-.2.3-.3.3zM160.9 65.2s1.2-.1 3 .2c1.8.2 4.2.7 6.4 1.8.6.3 1.1.6 1.6.9.5.4 1 .7 1.4 1.1.4.4.8.8 1.2 1.3.2.2.3.4.5.7.2.2.3.4.4.7.3.4.4.9.6 1.2.1.4.3.7.3 1 .1.6.2.9.2.9.2.7-.2 1.3-.9 1.5-.7.2-1.3-.2-1.5-.9v-.2s0-.3-.1-.7c0-.2-.1-.5-.2-.8-.1-.3-.2-.7-.3-1-.1-.2-.1-.4-.2-.6l-.3-.6c-.2-.4-.5-.8-.8-1.2-.3-.4-.7-.8-1.1-1.1-.4-.4-.9-.7-1.3-1-1.9-1.3-4.2-2-5.9-2.5-1.8-.6-3-.7-3-.7z"/><path d="M175.4 75.4c-.1 0-.3-.1-.3-.3-1.4-9.3-14.1-9.7-14.2-9.7-.2 0-.3-.1-.3-.3 0-.2.2-.3.3-.3.1 0 13.4.4 14.8 10.2.1.2 0 .4-.3.4z"/><ellipse cx="187.6" cy="88.3" rx="1.9" ry="2.4"/><ellipse cx="187.6" cy="72.5" rx="1.9" ry="2.4"/></g></svg>