<?xml version="1.0" standalone="no"?>
<!DOCTYPE svg PUBLIC "-//W3C//DTD SVG 20010904//EN"
 "http://www.w3.org/TR/2001/REC-SVG-20010904/DTD/svg10.dtd">
<svg version="1.0" xmlns="http://www.w3.org/2000/svg"
 width="500.000000pt" height="500.000000pt" viewBox="0 0 500.000000 500.000000"
 preserveAspectRatio="xMidYMid meet">
<metadata>
Created by potrace 1.11, written by Peter Selinger 2001-2013
</metadata>
<g transform="translate(0.000000,500.000000) scale(0.100000,-0.100000)"
fill="#000000" stroke="none">
<path d="M2175 4885 c-117 -16 -229 -38 -339 -68 l-79 -21 6 -705 c6 -664 12
-907 37 -1451 21 -458 50 -681 116 -900 49 -160 99 -230 166 -230 52 0 109 31
148 80 175 221 684 1255 1045 2125 46 110 99 234 119 276 44 96 79 213 105
362 23 127 50 211 83 252 11 14 18 28 15 31 -2 3 -60 29 -128 58 -230 99 -455
162 -689 191 -151 18 -462 18 -605 0z"/>
<path d="M1225 4557 c-325 -198 -575 -438 -787 -756 -341 -514 -472 -1143
-367 -1761 36 -215 104 -429 200 -628 l58 -124 29 21 c56 39 191 191 252 283
143 213 266 508 374 898 149 536 244 1065 290 1620 16 188 31 490 25 490 -2 0
-35 -20 -74 -43z"/>
<path d="M3900 4357 c0 -46 -16 -207 -34 -358 -36 -286 -59 -513 -76 -759 -13
-192 -13 -726 1 -848 20 -185 68 -349 130 -438 85 -125 277 -79 431 103 168
200 446 656 507 835 l20 57 -29 113 c-108 424 -322 799 -635 1114 -117 118
-287 264 -307 264 -5 0 -8 -38 -8 -83z"/>
<path d="M3343 3078 c-16 -20 -118 -226 -248 -503 -533 -1136 -862 -1594
-1146 -1595 -146 0 -256 120 -337 370 -104 318 -159 727 -182 1340 -7 168 -14
311 -16 319 -3 9 -8 11 -14 5 -5 -5 -48 -142 -94 -304 -142 -493 -230 -736
-381 -1045 -116 -237 -210 -379 -342 -516 l-103 -106 86 -107 c645 -805 1711
-1123 2681 -800 528 175 965 510 1278 979 193 289 343 701 384 1050 16 143 23
333 14 425 l-9 85 -18 -75 c-25 -97 -166 -377 -248 -492 -173 -239 -402 -449
-555 -509 -88 -34 -210 -32 -285 4 -116 57 -226 208 -296 408 -77 220 -141
655 -142 964 0 95 -8 126 -27 103z"/>
</g>
</svg>
